<?xml version="1.0" encoding="UTF-8"?><svg xmlns="http://www.w3.org/2000/svg" xmlns:xlink="http://www.w3.org/1999/xlink" stroke-dasharray="none" shape-rendering="auto" font-family="'Dialog'" width="893" text-rendering="auto" fill-opacity="1" contentScriptType="text/ecmascript" color-interpolation="auto" color-rendering="auto" preserveAspectRatio="xMidYMid meet" font-size="12" fill="black" stroke="black" image-rendering="auto" stroke-miterlimit="10" zoomAndPan="magnify" version="1.0" stroke-linecap="square" stroke-linejoin="miter" contentStyleType="text/css" font-style="normal" height="535" stroke-width="1" stroke-dashoffset="0" font-weight="normal" stroke-opacity="1">
<!--Generated by the Batik Graphics2D SVG Generator-->
<defs id="genericDefs"/>
<g>
<defs id="defs1">
<clipPath clipPathUnits="userSpaceOnUse" id="clipPath1">
<path d="M25 38 L868 38 L868 513 L25 513 L25 38 Z"/>
</clipPath>
<clipPath clipPathUnits="userSpaceOnUse" id="clipPath2">
<path d="M-1 -1 L894 -1 L894 536 L-1 536 L-1 -1 Z"/>
</clipPath>
</defs>
<g font-size="15" fill="white" text-rendering="geometricPrecision" font-family="'Ubuntu'" stroke-linejoin="round" stroke="white" stroke-width="0" stroke-miterlimit="0">
<rect x="26" y="39" clip-path="url(#clipPath1)" width="841" height="473" stroke="none"/>
</g>
<g font-size="15" stroke-linecap="butt" fill="rgb(204,204,204)" text-rendering="geometricPrecision" font-family="'Ubuntu'" stroke-dasharray="3,3" stroke="rgb(204,204,204)">
<line clip-path="url(#clipPath1)" fill="none" x1="26" x2="26" y1="39" y2="512"/>
<line clip-path="url(#clipPath1)" fill="none" x1="118" x2="118" y1="39" y2="512"/>
<line clip-path="url(#clipPath1)" fill="none" x1="210" x2="210" y1="39" y2="512"/>
<line clip-path="url(#clipPath1)" fill="none" x1="302" x2="302" y1="39" y2="512"/>
<line clip-path="url(#clipPath1)" fill="none" x1="395" x2="395" y1="39" y2="512"/>
<line clip-path="url(#clipPath1)" fill="none" x1="487" x2="487" y1="39" y2="512"/>
<line clip-path="url(#clipPath1)" fill="none" x1="579" x2="579" y1="39" y2="512"/>
<line clip-path="url(#clipPath1)" fill="none" x1="671" x2="671" y1="39" y2="512"/>
<line clip-path="url(#clipPath1)" fill="none" x1="764" x2="764" y1="39" y2="512"/>
<line clip-path="url(#clipPath1)" fill="none" x1="856" x2="856" y1="39" y2="512"/>
<line clip-path="url(#clipPath1)" fill="none" x1="26" x2="867" y1="512" y2="512"/>
<line clip-path="url(#clipPath1)" fill="none" x1="26" x2="867" y1="438" y2="438"/>
<line clip-path="url(#clipPath1)" fill="none" x1="26" x2="867" y1="364" y2="364"/>
<line clip-path="url(#clipPath1)" fill="none" x1="26" x2="867" y1="290" y2="290"/>
<line clip-path="url(#clipPath1)" fill="none" x1="26" x2="867" y1="216" y2="216"/>
<line clip-path="url(#clipPath1)" fill="none" x1="26" x2="867" y1="142" y2="142"/>
<line clip-path="url(#clipPath1)" fill="none" x1="26" x2="867" y1="68" y2="68"/>
</g>
<g font-size="15" stroke-linecap="butt" fill="rgb(0,0,139)" text-rendering="geometricPrecision" font-family="'Ubuntu'" shape-rendering="crispEdges" stroke-dasharray="1,2" stroke="rgb(0,0,139)">
<line clip-path="url(#clipPath1)" fill="none" x1="26" x2="26" y1="511" y2="511"/>
<line clip-path="url(#clipPath1)" fill="none" x1="26" x2="81" y1="467" y2="467" stroke-dasharray="none"/>
<line clip-path="url(#clipPath1)" fill="none" x1="26" x2="26" y1="511" y2="467"/>
<line clip-path="url(#clipPath1)" fill="none" x1="81" x2="192" y1="423" y2="423" stroke-dasharray="none"/>
<line clip-path="url(#clipPath1)" fill="none" x1="81" x2="81" y1="467" y2="423"/>
<line clip-path="url(#clipPath1)" fill="none" x1="192" x2="413" y1="334" y2="334" stroke-dasharray="none"/>
<line clip-path="url(#clipPath1)" fill="none" x1="192" x2="192" y1="423" y2="334"/>
<line clip-path="url(#clipPath1)" fill="none" x1="413" x2="856" y1="157" y2="157" stroke-dasharray="none"/>
<line clip-path="url(#clipPath1)" fill="none" x1="413" x2="413" y1="334" y2="157"/>
<rect x="24" y="509" clip-path="url(#clipPath1)" width="5" shape-rendering="auto" height="5" stroke="none"/>
<rect x="79" y="465" clip-path="url(#clipPath1)" width="5" shape-rendering="auto" height="5" stroke="none"/>
<rect x="190" y="421" clip-path="url(#clipPath1)" width="5" shape-rendering="auto" height="5" stroke="none"/>
<rect x="411" y="332" clip-path="url(#clipPath1)" width="5" shape-rendering="auto" height="5" stroke="none"/>
<rect x="854" y="155" clip-path="url(#clipPath1)" width="5" shape-rendering="auto" height="5" stroke="none"/>
<line clip-path="url(#clipPath1)" fill="none" x1="26" x2="26" y1="511" y2="511" stroke="rgb(238,0,0)"/>
<line clip-path="url(#clipPath1)" fill="none" x1="26" x2="81" y1="467" y2="467" stroke-dasharray="none" stroke="rgb(238,0,0)"/>
<line clip-path="url(#clipPath1)" fill="none" x1="26" x2="26" y1="511" y2="467" stroke="rgb(238,0,0)"/>
<line clip-path="url(#clipPath1)" fill="none" x1="81" x2="192" y1="423" y2="423" stroke-dasharray="none" stroke="rgb(238,0,0)"/>
<line clip-path="url(#clipPath1)" fill="none" x1="81" x2="81" y1="467" y2="423" stroke="rgb(238,0,0)"/>
<line clip-path="url(#clipPath1)" fill="none" x1="192" x2="413" y1="334" y2="334" stroke-dasharray="none" stroke="rgb(238,0,0)"/>
<line clip-path="url(#clipPath1)" fill="none" x1="192" x2="192" y1="423" y2="334" stroke="rgb(238,0,0)"/>
<line clip-path="url(#clipPath1)" fill="none" x1="413" x2="856" y1="157" y2="157" stroke-dasharray="none" stroke="rgb(238,0,0)"/>
<line clip-path="url(#clipPath1)" fill="none" x1="413" x2="413" y1="334" y2="157" stroke="rgb(238,0,0)"/>
<circle clip-path="url(#clipPath1)" fill="rgb(238,0,0)" shape-rendering="auto" r="2" cx="26" cy="511" stroke="none"/>
<circle clip-path="url(#clipPath1)" fill="rgb(238,0,0)" shape-rendering="auto" r="2" cx="81" cy="467" stroke="none"/>
<circle clip-path="url(#clipPath1)" fill="rgb(238,0,0)" shape-rendering="auto" r="2" cx="192" cy="423" stroke="none"/>
<circle clip-path="url(#clipPath1)" fill="rgb(238,0,0)" shape-rendering="auto" r="2" cx="413" cy="334" stroke="none"/>
<circle clip-path="url(#clipPath1)" fill="rgb(238,0,0)" shape-rendering="auto" r="2" cx="856" cy="157" stroke="none"/>
<line clip-path="url(#clipPath1)" fill="none" x1="26" x2="26" y1="511" y2="511" stroke="rgb(0,100,0)"/>
<line clip-path="url(#clipPath1)" fill="none" x1="26" x2="81" y1="467" y2="467" stroke-dasharray="none" stroke="rgb(0,100,0)"/>
<line clip-path="url(#clipPath1)" fill="none" x1="26" x2="26" y1="511" y2="467" stroke="rgb(0,100,0)"/>
<line clip-path="url(#clipPath1)" fill="none" x1="81" x2="192" y1="423" y2="423" stroke-dasharray="none" stroke="rgb(0,100,0)"/>
<line clip-path="url(#clipPath1)" fill="none" x1="81" x2="81" y1="467" y2="423" stroke="rgb(0,100,0)"/>
<line clip-path="url(#clipPath1)" fill="none" x1="192" x2="413" y1="334" y2="334" stroke-dasharray="none" stroke="rgb(0,100,0)"/>
<line clip-path="url(#clipPath1)" fill="none" x1="192" x2="192" y1="423" y2="334" stroke="rgb(0,100,0)"/>
<line clip-path="url(#clipPath1)" fill="none" x1="413" x2="856" y1="157" y2="157" stroke-dasharray="none" stroke="rgb(0,100,0)"/>
<line clip-path="url(#clipPath1)" fill="none" x1="413" x2="413" y1="334" y2="157" stroke="rgb(0,100,0)"/>
<polygon fill="rgb(0,100,0)" shape-rendering="auto" clip-path="url(#clipPath1)" points=" 26 508 29 513 23 513 26 508" stroke="none"/>
<polygon fill="rgb(0,100,0)" shape-rendering="auto" clip-path="url(#clipPath1)" points=" 81 464 84 469 78 469 81 464" stroke="none"/>
<polygon fill="rgb(0,100,0)" shape-rendering="auto" clip-path="url(#clipPath1)" points=" 192 420 195 425 189 425 192 420" stroke="none"/>
<polygon fill="rgb(0,100,0)" shape-rendering="auto" clip-path="url(#clipPath1)" points=" 413 331 416 336 410 336 413 331" stroke="none"/>
<polygon fill="rgb(0,100,0)" shape-rendering="auto" clip-path="url(#clipPath1)" points=" 856 154 859 159 853 159 856 154" stroke="none"/>
</g>
<g text-rendering="geometricPrecision" font-size="15" font-family="'Ubuntu'" stroke-linecap="butt">
<rect x="26" y="39" clip-path="url(#clipPath2)" fill="none" width="841" height="473"/>
<text font-size="13" x="283" y="13" clip-path="url(#clipPath2)" font-family="'Dialog'" stroke="none" xml:space="preserve">timediff(mean(difference(timediff(movingavg(sent ack)))))</text>
<line clip-path="url(#clipPath2)" fill="none" x1="26" x2="867" y1="37" y2="37"/>
<line clip-path="url(#clipPath2)" fill="none" x1="26" x2="867" y1="514" y2="514"/>
<line clip-path="url(#clipPath2)" fill="none" x1="26" x2="26" y1="33" y2="37"/>
<line clip-path="url(#clipPath2)" fill="none" x1="26" x2="26" y1="518" y2="514"/>
<text font-size="11" x="25" y="30" clip-path="url(#clipPath2)" font-family="'Dialog'" stroke="none" xml:space="preserve">0</text>
<text font-size="11" x="25" y="530" clip-path="url(#clipPath2)" font-family="'Dialog'" stroke="none" xml:space="preserve">0</text>
<line clip-path="url(#clipPath2)" fill="none" x1="44" x2="44" y1="35" y2="37"/>
<line clip-path="url(#clipPath2)" fill="none" x1="44" x2="44" y1="516" y2="514"/>
<line clip-path="url(#clipPath2)" fill="none" x1="62" x2="62" y1="35" y2="37"/>
<line clip-path="url(#clipPath2)" fill="none" x1="62" x2="62" y1="516" y2="514"/>
<line clip-path="url(#clipPath2)" fill="none" x1="81" x2="81" y1="35" y2="37"/>
<line clip-path="url(#clipPath2)" fill="none" x1="81" x2="81" y1="516" y2="514"/>
<line clip-path="url(#clipPath2)" fill="none" x1="99" x2="99" y1="35" y2="37"/>
<line clip-path="url(#clipPath2)" fill="none" x1="99" x2="99" y1="516" y2="514"/>
<line clip-path="url(#clipPath2)" fill="none" x1="118" x2="118" y1="33" y2="37"/>
<line clip-path="url(#clipPath2)" fill="none" x1="118" x2="118" y1="518" y2="514"/>
<text font-size="11" x="117" y="30" clip-path="url(#clipPath2)" font-family="'Dialog'" stroke="none" xml:space="preserve">5</text>
<text font-size="11" x="117" y="530" clip-path="url(#clipPath2)" font-family="'Dialog'" stroke="none" xml:space="preserve">5</text>
<line clip-path="url(#clipPath2)" fill="none" x1="136" x2="136" y1="35" y2="37"/>
<line clip-path="url(#clipPath2)" fill="none" x1="136" x2="136" y1="516" y2="514"/>
<line clip-path="url(#clipPath2)" fill="none" x1="155" x2="155" y1="35" y2="37"/>
<line clip-path="url(#clipPath2)" fill="none" x1="155" x2="155" y1="516" y2="514"/>
<line clip-path="url(#clipPath2)" fill="none" x1="173" x2="173" y1="35" y2="37"/>
<line clip-path="url(#clipPath2)" fill="none" x1="173" x2="173" y1="516" y2="514"/>
<line clip-path="url(#clipPath2)" fill="none" x1="192" x2="192" y1="35" y2="37"/>
<line clip-path="url(#clipPath2)" fill="none" x1="192" x2="192" y1="516" y2="514"/>
<line clip-path="url(#clipPath2)" fill="none" x1="210" x2="210" y1="33" y2="37"/>
<line clip-path="url(#clipPath2)" fill="none" x1="210" x2="210" y1="518" y2="514"/>
<text font-size="11" x="206" y="30" clip-path="url(#clipPath2)" font-family="'Dialog'" stroke="none" xml:space="preserve">10</text>
<text font-size="11" x="206" y="530" clip-path="url(#clipPath2)" font-family="'Dialog'" stroke="none" xml:space="preserve">10</text>
<line clip-path="url(#clipPath2)" fill="none" x1="229" x2="229" y1="35" y2="37"/>
<line clip-path="url(#clipPath2)" fill="none" x1="229" x2="229" y1="516" y2="514"/>
<line clip-path="url(#clipPath2)" fill="none" x1="247" x2="247" y1="35" y2="37"/>
<line clip-path="url(#clipPath2)" fill="none" x1="247" x2="247" y1="516" y2="514"/>
<line clip-path="url(#clipPath2)" fill="none" x1="265" x2="265" y1="35" y2="37"/>
<line clip-path="url(#clipPath2)" fill="none" x1="265" x2="265" y1="516" y2="514"/>
<line clip-path="url(#clipPath2)" fill="none" x1="284" x2="284" y1="35" y2="37"/>
<line clip-path="url(#clipPath2)" fill="none" x1="284" x2="284" y1="516" y2="514"/>
<line clip-path="url(#clipPath2)" fill="none" x1="302" x2="302" y1="33" y2="37"/>
<line clip-path="url(#clipPath2)" fill="none" x1="302" x2="302" y1="518" y2="514"/>
<text font-size="11" x="298" y="30" clip-path="url(#clipPath2)" font-family="'Dialog'" stroke="none" xml:space="preserve">15</text>
<text font-size="11" x="298" y="530" clip-path="url(#clipPath2)" font-family="'Dialog'" stroke="none" xml:space="preserve">15</text>
<line clip-path="url(#clipPath2)" fill="none" x1="321" x2="321" y1="35" y2="37"/>
<line clip-path="url(#clipPath2)" fill="none" x1="321" x2="321" y1="516" y2="514"/>
<line clip-path="url(#clipPath2)" fill="none" x1="339" x2="339" y1="35" y2="37"/>
<line clip-path="url(#clipPath2)" fill="none" x1="339" x2="339" y1="516" y2="514"/>
<line clip-path="url(#clipPath2)" fill="none" x1="358" x2="358" y1="35" y2="37"/>
<line clip-path="url(#clipPath2)" fill="none" x1="358" x2="358" y1="516" y2="514"/>
<line clip-path="url(#clipPath2)" fill="none" x1="376" x2="376" y1="35" y2="37"/>
<line clip-path="url(#clipPath2)" fill="none" x1="376" x2="376" y1="516" y2="514"/>
<line clip-path="url(#clipPath2)" fill="none" x1="395" x2="395" y1="33" y2="37"/>
<line clip-path="url(#clipPath2)" fill="none" x1="395" x2="395" y1="518" y2="514"/>
<text font-size="11" x="391" y="30" clip-path="url(#clipPath2)" font-family="'Dialog'" stroke="none" xml:space="preserve">20</text>
<text font-size="11" x="391" y="530" clip-path="url(#clipPath2)" font-family="'Dialog'" stroke="none" xml:space="preserve">20</text>
<line clip-path="url(#clipPath2)" fill="none" x1="413" x2="413" y1="35" y2="37"/>
<line clip-path="url(#clipPath2)" fill="none" x1="413" x2="413" y1="516" y2="514"/>
<line clip-path="url(#clipPath2)" fill="none" x1="432" x2="432" y1="35" y2="37"/>
<line clip-path="url(#clipPath2)" fill="none" x1="432" x2="432" y1="516" y2="514"/>
<line clip-path="url(#clipPath2)" fill="none" x1="450" x2="450" y1="35" y2="37"/>
<line clip-path="url(#clipPath2)" fill="none" x1="450" x2="450" y1="516" y2="514"/>
<line clip-path="url(#clipPath2)" fill="none" x1="468" x2="468" y1="35" y2="37"/>
<line clip-path="url(#clipPath2)" fill="none" x1="468" x2="468" y1="516" y2="514"/>
<line clip-path="url(#clipPath2)" fill="none" x1="487" x2="487" y1="33" y2="37"/>
<line clip-path="url(#clipPath2)" fill="none" x1="487" x2="487" y1="518" y2="514"/>
<text font-size="11" x="483" y="30" clip-path="url(#clipPath2)" font-family="'Dialog'" stroke="none" xml:space="preserve">25</text>
<text font-size="11" x="483" y="530" clip-path="url(#clipPath2)" font-family="'Dialog'" stroke="none" xml:space="preserve">25</text>
<line clip-path="url(#clipPath2)" fill="none" x1="505" x2="505" y1="35" y2="37"/>
<line clip-path="url(#clipPath2)" fill="none" x1="505" x2="505" y1="516" y2="514"/>
<line clip-path="url(#clipPath2)" fill="none" x1="524" x2="524" y1="35" y2="37"/>
<line clip-path="url(#clipPath2)" fill="none" x1="524" x2="524" y1="516" y2="514"/>
<line clip-path="url(#clipPath2)" fill="none" x1="542" x2="542" y1="35" y2="37"/>
<line clip-path="url(#clipPath2)" fill="none" x1="542" x2="542" y1="516" y2="514"/>
<line clip-path="url(#clipPath2)" fill="none" x1="561" x2="561" y1="35" y2="37"/>
<line clip-path="url(#clipPath2)" fill="none" x1="561" x2="561" y1="516" y2="514"/>
<line clip-path="url(#clipPath2)" fill="none" x1="579" x2="579" y1="33" y2="37"/>
<line clip-path="url(#clipPath2)" fill="none" x1="579" x2="579" y1="518" y2="514"/>
<text font-size="11" x="575" y="30" clip-path="url(#clipPath2)" font-family="'Dialog'" stroke="none" xml:space="preserve">30</text>
<text font-size="11" x="575" y="530" clip-path="url(#clipPath2)" font-family="'Dialog'" stroke="none" xml:space="preserve">30</text>
<line clip-path="url(#clipPath2)" fill="none" x1="598" x2="598" y1="35" y2="37"/>
<line clip-path="url(#clipPath2)" fill="none" x1="598" x2="598" y1="516" y2="514"/>
<line clip-path="url(#clipPath2)" fill="none" x1="616" x2="616" y1="35" y2="37"/>
<line clip-path="url(#clipPath2)" fill="none" x1="616" x2="616" y1="516" y2="514"/>
<line clip-path="url(#clipPath2)" fill="none" x1="635" x2="635" y1="35" y2="37"/>
<line clip-path="url(#clipPath2)" fill="none" x1="635" x2="635" y1="516" y2="514"/>
<line clip-path="url(#clipPath2)" fill="none" x1="653" x2="653" y1="35" y2="37"/>
<line clip-path="url(#clipPath2)" fill="none" x1="653" x2="653" y1="516" y2="514"/>
<line clip-path="url(#clipPath2)" fill="none" x1="671" x2="671" y1="33" y2="37"/>
<line clip-path="url(#clipPath2)" fill="none" x1="671" x2="671" y1="518" y2="514"/>
<text font-size="11" x="667" y="30" clip-path="url(#clipPath2)" font-family="'Dialog'" stroke="none" xml:space="preserve">35</text>
<text font-size="11" x="667" y="530" clip-path="url(#clipPath2)" font-family="'Dialog'" stroke="none" xml:space="preserve">35</text>
<line clip-path="url(#clipPath2)" fill="none" x1="690" x2="690" y1="35" y2="37"/>
<line clip-path="url(#clipPath2)" fill="none" x1="690" x2="690" y1="516" y2="514"/>
<line clip-path="url(#clipPath2)" fill="none" x1="708" x2="708" y1="35" y2="37"/>
<line clip-path="url(#clipPath2)" fill="none" x1="708" x2="708" y1="516" y2="514"/>
<line clip-path="url(#clipPath2)" fill="none" x1="727" x2="727" y1="35" y2="37"/>
<line clip-path="url(#clipPath2)" fill="none" x1="727" x2="727" y1="516" y2="514"/>
<line clip-path="url(#clipPath2)" fill="none" x1="745" x2="745" y1="35" y2="37"/>
<line clip-path="url(#clipPath2)" fill="none" x1="745" x2="745" y1="516" y2="514"/>
<line clip-path="url(#clipPath2)" fill="none" x1="764" x2="764" y1="33" y2="37"/>
<line clip-path="url(#clipPath2)" fill="none" x1="764" x2="764" y1="518" y2="514"/>
<text font-size="11" x="760" y="30" clip-path="url(#clipPath2)" font-family="'Dialog'" stroke="none" xml:space="preserve">40</text>
<text font-size="11" x="760" y="530" clip-path="url(#clipPath2)" font-family="'Dialog'" stroke="none" xml:space="preserve">40</text>
<line clip-path="url(#clipPath2)" fill="none" x1="782" x2="782" y1="35" y2="37"/>
<line clip-path="url(#clipPath2)" fill="none" x1="782" x2="782" y1="516" y2="514"/>
<line clip-path="url(#clipPath2)" fill="none" x1="801" x2="801" y1="35" y2="37"/>
<line clip-path="url(#clipPath2)" fill="none" x1="801" x2="801" y1="516" y2="514"/>
<line clip-path="url(#clipPath2)" fill="none" x1="819" x2="819" y1="35" y2="37"/>
<line clip-path="url(#clipPath2)" fill="none" x1="819" x2="819" y1="516" y2="514"/>
<line clip-path="url(#clipPath2)" fill="none" x1="838" x2="838" y1="35" y2="37"/>
<line clip-path="url(#clipPath2)" fill="none" x1="838" x2="838" y1="516" y2="514"/>
<line clip-path="url(#clipPath2)" fill="none" x1="856" x2="856" y1="33" y2="37"/>
<line clip-path="url(#clipPath2)" fill="none" x1="856" x2="856" y1="518" y2="514"/>
<text font-size="11" x="852" y="30" clip-path="url(#clipPath2)" font-family="'Dialog'" stroke="none" xml:space="preserve">45</text>
<text font-size="11" x="852" y="530" clip-path="url(#clipPath2)" font-family="'Dialog'" stroke="none" xml:space="preserve">45</text>
<line clip-path="url(#clipPath2)" fill="none" x1="24" x2="24" y1="39" y2="512"/>
<line clip-path="url(#clipPath2)" fill="none" x1="869" x2="869" y1="39" y2="512"/>
<line clip-path="url(#clipPath2)" fill="none" x1="20" x2="24" y1="512" y2="512"/>
<line clip-path="url(#clipPath2)" fill="none" x1="873" x2="869" y1="512" y2="512"/>
<text font-size="11" x="14" y="517" clip-path="url(#clipPath2)" font-family="'Dialog'" stroke="none" xml:space="preserve">0</text>
<text font-size="11" x="876" y="517" clip-path="url(#clipPath2)" font-family="'Dialog'" stroke="none" xml:space="preserve">0</text>
<line clip-path="url(#clipPath2)" fill="none" x1="22" x2="24" y1="497" y2="497"/>
<line clip-path="url(#clipPath2)" fill="none" x1="871" x2="869" y1="497" y2="497"/>
<line clip-path="url(#clipPath2)" fill="none" x1="22" x2="24" y1="482" y2="482"/>
<line clip-path="url(#clipPath2)" fill="none" x1="871" x2="869" y1="482" y2="482"/>
<line clip-path="url(#clipPath2)" fill="none" x1="22" x2="24" y1="467" y2="467"/>
<line clip-path="url(#clipPath2)" fill="none" x1="871" x2="869" y1="467" y2="467"/>
<line clip-path="url(#clipPath2)" fill="none" x1="22" x2="24" y1="452" y2="452"/>
<line clip-path="url(#clipPath2)" fill="none" x1="871" x2="869" y1="452" y2="452"/>
<line clip-path="url(#clipPath2)" fill="none" x1="20" x2="24" y1="438" y2="438"/>
<line clip-path="url(#clipPath2)" fill="none" x1="873" x2="869" y1="438" y2="438"/>
<text font-size="11" x="14" y="443" clip-path="url(#clipPath2)" font-family="'Dialog'" stroke="none" xml:space="preserve">5</text>
<text font-size="11" x="876" y="443" clip-path="url(#clipPath2)" font-family="'Dialog'" stroke="none" xml:space="preserve">5</text>
<line clip-path="url(#clipPath2)" fill="none" x1="22" x2="24" y1="423" y2="423"/>
<line clip-path="url(#clipPath2)" fill="none" x1="871" x2="869" y1="423" y2="423"/>
<line clip-path="url(#clipPath2)" fill="none" x1="22" x2="24" y1="408" y2="408"/>
<line clip-path="url(#clipPath2)" fill="none" x1="871" x2="869" y1="408" y2="408"/>
<line clip-path="url(#clipPath2)" fill="none" x1="22" x2="24" y1="393" y2="393"/>
<line clip-path="url(#clipPath2)" fill="none" x1="871" x2="869" y1="393" y2="393"/>
<line clip-path="url(#clipPath2)" fill="none" x1="22" x2="24" y1="378" y2="378"/>
<line clip-path="url(#clipPath2)" fill="none" x1="871" x2="869" y1="378" y2="378"/>
<line clip-path="url(#clipPath2)" fill="none" x1="20" x2="24" y1="364" y2="364"/>
<line clip-path="url(#clipPath2)" fill="none" x1="873" x2="869" y1="364" y2="364"/>
<text font-size="11" x="9" y="369" clip-path="url(#clipPath2)" font-family="'Dialog'" stroke="none" xml:space="preserve">10</text>
<text font-size="11" x="876" y="369" clip-path="url(#clipPath2)" font-family="'Dialog'" stroke="none" xml:space="preserve">10</text>
<line clip-path="url(#clipPath2)" fill="none" x1="22" x2="24" y1="349" y2="349"/>
<line clip-path="url(#clipPath2)" fill="none" x1="871" x2="869" y1="349" y2="349"/>
<line clip-path="url(#clipPath2)" fill="none" x1="22" x2="24" y1="334" y2="334"/>
<line clip-path="url(#clipPath2)" fill="none" x1="871" x2="869" y1="334" y2="334"/>
<line clip-path="url(#clipPath2)" fill="none" x1="22" x2="24" y1="319" y2="319"/>
<line clip-path="url(#clipPath2)" fill="none" x1="871" x2="869" y1="319" y2="319"/>
<line clip-path="url(#clipPath2)" fill="none" x1="22" x2="24" y1="305" y2="305"/>
<line clip-path="url(#clipPath2)" fill="none" x1="871" x2="869" y1="305" y2="305"/>
<line clip-path="url(#clipPath2)" fill="none" x1="20" x2="24" y1="290" y2="290"/>
<line clip-path="url(#clipPath2)" fill="none" x1="873" x2="869" y1="290" y2="290"/>
<text font-size="11" x="9" y="295" clip-path="url(#clipPath2)" font-family="'Dialog'" stroke="none" xml:space="preserve">15</text>
<text font-size="11" x="876" y="295" clip-path="url(#clipPath2)" font-family="'Dialog'" stroke="none" xml:space="preserve">15</text>
<line clip-path="url(#clipPath2)" fill="none" x1="22" x2="24" y1="275" y2="275"/>
<line clip-path="url(#clipPath2)" fill="none" x1="871" x2="869" y1="275" y2="275"/>
<line clip-path="url(#clipPath2)" fill="none" x1="22" x2="24" y1="260" y2="260"/>
<line clip-path="url(#clipPath2)" fill="none" x1="871" x2="869" y1="260" y2="260"/>
<line clip-path="url(#clipPath2)" fill="none" x1="22" x2="24" y1="245" y2="245"/>
<line clip-path="url(#clipPath2)" fill="none" x1="871" x2="869" y1="245" y2="245"/>
<line clip-path="url(#clipPath2)" fill="none" x1="22" x2="24" y1="231" y2="231"/>
<line clip-path="url(#clipPath2)" fill="none" x1="871" x2="869" y1="231" y2="231"/>
<line clip-path="url(#clipPath2)" fill="none" x1="20" x2="24" y1="216" y2="216"/>
<line clip-path="url(#clipPath2)" fill="none" x1="873" x2="869" y1="216" y2="216"/>
<text font-size="11" x="9" y="221" clip-path="url(#clipPath2)" font-family="'Dialog'" stroke="none" xml:space="preserve">20</text>
<text font-size="11" x="876" y="221" clip-path="url(#clipPath2)" font-family="'Dialog'" stroke="none" xml:space="preserve">20</text>
<line clip-path="url(#clipPath2)" fill="none" x1="22" x2="24" y1="201" y2="201"/>
<line clip-path="url(#clipPath2)" fill="none" x1="871" x2="869" y1="201" y2="201"/>
<line clip-path="url(#clipPath2)" fill="none" x1="22" x2="24" y1="186" y2="186"/>
<line clip-path="url(#clipPath2)" fill="none" x1="871" x2="869" y1="186" y2="186"/>
<line clip-path="url(#clipPath2)" fill="none" x1="22" x2="24" y1="172" y2="172"/>
<line clip-path="url(#clipPath2)" fill="none" x1="871" x2="869" y1="172" y2="172"/>
<line clip-path="url(#clipPath2)" fill="none" x1="22" x2="24" y1="157" y2="157"/>
<line clip-path="url(#clipPath2)" fill="none" x1="871" x2="869" y1="157" y2="157"/>
<line clip-path="url(#clipPath2)" fill="none" x1="20" x2="24" y1="142" y2="142"/>
<line clip-path="url(#clipPath2)" fill="none" x1="873" x2="869" y1="142" y2="142"/>
<text font-size="11" x="9" y="147" clip-path="url(#clipPath2)" font-family="'Dialog'" stroke="none" xml:space="preserve">25</text>
<text font-size="11" x="876" y="147" clip-path="url(#clipPath2)" font-family="'Dialog'" stroke="none" xml:space="preserve">25</text>
<line clip-path="url(#clipPath2)" fill="none" x1="22" x2="24" y1="127" y2="127"/>
<line clip-path="url(#clipPath2)" fill="none" x1="871" x2="869" y1="127" y2="127"/>
<line clip-path="url(#clipPath2)" fill="none" x1="22" x2="24" y1="112" y2="112"/>
<line clip-path="url(#clipPath2)" fill="none" x1="871" x2="869" y1="112" y2="112"/>
<line clip-path="url(#clipPath2)" fill="none" x1="22" x2="24" y1="98" y2="98"/>
<line clip-path="url(#clipPath2)" fill="none" x1="871" x2="869" y1="98" y2="98"/>
<line clip-path="url(#clipPath2)" fill="none" x1="22" x2="24" y1="83" y2="83"/>
<line clip-path="url(#clipPath2)" fill="none" x1="871" x2="869" y1="83" y2="83"/>
<line clip-path="url(#clipPath2)" fill="none" x1="20" x2="24" y1="68" y2="68"/>
<line clip-path="url(#clipPath2)" fill="none" x1="873" x2="869" y1="68" y2="68"/>
<text font-size="11" x="9" y="73" clip-path="url(#clipPath2)" font-family="'Dialog'" stroke="none" xml:space="preserve">30</text>
<text font-size="11" x="876" y="73" clip-path="url(#clipPath2)" font-family="'Dialog'" stroke="none" xml:space="preserve">30</text>
<line clip-path="url(#clipPath2)" fill="none" x1="22" x2="24" y1="53" y2="53"/>
<line clip-path="url(#clipPath2)" fill="none" x1="871" x2="869" y1="53" y2="53"/>
<line clip-path="url(#clipPath2)" fill="none" x1="22" x2="24" y1="39" y2="39"/>
<line clip-path="url(#clipPath2)" fill="none" x1="871" x2="869" y1="39" y2="39"/>
</g>
</g>
</svg>
