<?xml version="1.0" encoding="UTF-8"?><svg xmlns="http://www.w3.org/2000/svg" xmlns:xlink="http://www.w3.org/1999/xlink" stroke-dasharray="none" shape-rendering="auto" font-family="'Dialog'" width="851" text-rendering="auto" fill-opacity="1" contentScriptType="text/ecmascript" color-interpolation="auto" color-rendering="auto" preserveAspectRatio="xMidYMid meet" font-size="12" fill="black" stroke="black" image-rendering="auto" stroke-miterlimit="10" zoomAndPan="magnify" version="1.0" stroke-linecap="square" stroke-linejoin="miter" contentStyleType="text/css" font-style="normal" height="535" stroke-width="1" stroke-dashoffset="0" font-weight="normal" stroke-opacity="1">
<!--Generated by the Batik Graphics2D SVG Generator-->
<defs id="genericDefs"/>
<g>
<defs id="defs1">
<clipPath clipPathUnits="userSpaceOnUse" id="clipPath1">
<path d="M25 22 L826 22 L826 513 L25 513 L25 22 Z"/>
</clipPath>
<clipPath clipPathUnits="userSpaceOnUse" id="clipPath2">
<path d="M-1 -1 L852 -1 L852 536 L-1 536 L-1 -1 Z"/>
</clipPath>
</defs>
<g font-size="15" fill="white" text-rendering="geometricPrecision" font-family="'Ubuntu'" stroke-linejoin="round" stroke="white" stroke-width="0" stroke-miterlimit="0">
<rect x="26" y="23" clip-path="url(#clipPath1)" width="799" height="489" stroke="none"/>
</g>
<g font-size="15" stroke-linecap="butt" fill="rgb(204,204,204)" text-rendering="geometricPrecision" font-family="'Ubuntu'" stroke-dasharray="3,3" stroke="rgb(204,204,204)">
<line clip-path="url(#clipPath1)" fill="none" x1="26" x2="26" y1="23" y2="512"/>
<line clip-path="url(#clipPath1)" fill="none" x1="100" x2="100" y1="23" y2="512"/>
<line clip-path="url(#clipPath1)" fill="none" x1="175" x2="175" y1="23" y2="512"/>
<line clip-path="url(#clipPath1)" fill="none" x1="250" x2="250" y1="23" y2="512"/>
<line clip-path="url(#clipPath1)" fill="none" x1="325" x2="325" y1="23" y2="512"/>
<line clip-path="url(#clipPath1)" fill="none" x1="400" x2="400" y1="23" y2="512"/>
<line clip-path="url(#clipPath1)" fill="none" x1="475" x2="475" y1="23" y2="512"/>
<line clip-path="url(#clipPath1)" fill="none" x1="550" x2="550" y1="23" y2="512"/>
<line clip-path="url(#clipPath1)" fill="none" x1="625" x2="625" y1="23" y2="512"/>
<line clip-path="url(#clipPath1)" fill="none" x1="700" x2="700" y1="23" y2="512"/>
<line clip-path="url(#clipPath1)" fill="none" x1="774" x2="774" y1="23" y2="512"/>
<line clip-path="url(#clipPath1)" fill="none" x1="26" x2="825" y1="493" y2="493"/>
<line clip-path="url(#clipPath1)" fill="none" x1="26" x2="825" y1="399" y2="399"/>
<line clip-path="url(#clipPath1)" fill="none" x1="26" x2="825" y1="305" y2="305"/>
<line clip-path="url(#clipPath1)" fill="none" x1="26" x2="825" y1="211" y2="211"/>
<line clip-path="url(#clipPath1)" fill="none" x1="26" x2="825" y1="117" y2="117"/>
<rect x="122" y="387" clip-path="url(#clipPath1)" fill="rgb(0,0,139)" width="5" height="5" stroke="none"/>
<line clip-path="url(#clipPath1)" fill="none" x1="124" x2="141" y1="389" y2="380" stroke-dasharray="none" stroke="rgb(0,0,139)"/>
<rect x="139" y="378" clip-path="url(#clipPath1)" fill="rgb(0,0,139)" width="5" stroke-dasharray="none" height="5" stroke="none"/>
<line clip-path="url(#clipPath1)" fill="none" x1="141" x2="158" y1="380" y2="370" stroke-dasharray="none" stroke="rgb(0,0,139)"/>
<rect x="156" y="368" clip-path="url(#clipPath1)" fill="rgb(0,0,139)" width="5" stroke-dasharray="none" height="5" stroke="none"/>
<line clip-path="url(#clipPath1)" fill="none" x1="158" x2="175" y1="370" y2="361" stroke-dasharray="none" stroke="rgb(0,0,139)"/>
<rect x="173" y="359" clip-path="url(#clipPath1)" fill="rgb(0,0,139)" width="5" stroke-dasharray="none" height="5" stroke="none"/>
<line clip-path="url(#clipPath1)" fill="none" x1="175" x2="192" y1="361" y2="352" stroke-dasharray="none" stroke="rgb(0,0,139)"/>
<rect x="190" y="350" clip-path="url(#clipPath1)" fill="rgb(0,0,139)" width="5" stroke-dasharray="none" height="5" stroke="none"/>
<line clip-path="url(#clipPath1)" fill="none" x1="192" x2="213" y1="352" y2="342" stroke-dasharray="none" stroke="rgb(0,0,139)"/>
<rect x="211" y="340" clip-path="url(#clipPath1)" fill="rgb(0,0,139)" width="5" stroke-dasharray="none" height="5" stroke="none"/>
<line clip-path="url(#clipPath1)" fill="none" x1="213" x2="230" y1="342" y2="333" stroke-dasharray="none" stroke="rgb(0,0,139)"/>
<rect x="228" y="331" clip-path="url(#clipPath1)" fill="rgb(0,0,139)" width="5" stroke-dasharray="none" height="5" stroke="none"/>
<line clip-path="url(#clipPath1)" fill="none" x1="230" x2="247" y1="333" y2="323" stroke-dasharray="none" stroke="rgb(0,0,139)"/>
<rect x="245" y="321" clip-path="url(#clipPath1)" fill="rgb(0,0,139)" width="5" stroke-dasharray="none" height="5" stroke="none"/>
<line clip-path="url(#clipPath1)" fill="none" x1="247" x2="265" y1="323" y2="314" stroke-dasharray="none" stroke="rgb(0,0,139)"/>
<rect x="263" y="312" clip-path="url(#clipPath1)" fill="rgb(0,0,139)" width="5" stroke-dasharray="none" height="5" stroke="none"/>
<line clip-path="url(#clipPath1)" fill="none" x1="265" x2="286" y1="314" y2="305" stroke-dasharray="none" stroke="rgb(0,0,139)"/>
<rect x="284" y="303" clip-path="url(#clipPath1)" fill="rgb(0,0,139)" width="5" stroke-dasharray="none" height="5" stroke="none"/>
<line clip-path="url(#clipPath1)" fill="none" x1="286" x2="303" y1="305" y2="295" stroke-dasharray="none" stroke="rgb(0,0,139)"/>
<rect x="301" y="293" clip-path="url(#clipPath1)" fill="rgb(0,0,139)" width="5" stroke-dasharray="none" height="5" stroke="none"/>
<line clip-path="url(#clipPath1)" fill="none" x1="303" x2="320" y1="295" y2="286" stroke-dasharray="none" stroke="rgb(0,0,139)"/>
<rect x="318" y="284" clip-path="url(#clipPath1)" fill="rgb(0,0,139)" width="5" stroke-dasharray="none" height="5" stroke="none"/>
<line clip-path="url(#clipPath1)" fill="none" x1="320" x2="341" y1="286" y2="276" stroke-dasharray="none" stroke="rgb(0,0,139)"/>
<rect x="339" y="274" clip-path="url(#clipPath1)" fill="rgb(0,0,139)" width="5" stroke-dasharray="none" height="5" stroke="none"/>
<line clip-path="url(#clipPath1)" fill="none" x1="341" x2="358" y1="276" y2="267" stroke-dasharray="none" stroke="rgb(0,0,139)"/>
<rect x="356" y="265" clip-path="url(#clipPath1)" fill="rgb(0,0,139)" width="5" stroke-dasharray="none" height="5" stroke="none"/>
<line clip-path="url(#clipPath1)" fill="none" x1="358" x2="375" y1="267" y2="258" stroke-dasharray="none" stroke="rgb(0,0,139)"/>
<rect x="373" y="256" clip-path="url(#clipPath1)" fill="rgb(0,0,139)" width="5" stroke-dasharray="none" height="5" stroke="none"/>
<line clip-path="url(#clipPath1)" fill="none" x1="375" x2="392" y1="258" y2="248" stroke-dasharray="none" stroke="rgb(0,0,139)"/>
<rect x="390" y="246" clip-path="url(#clipPath1)" fill="rgb(0,0,139)" width="5" stroke-dasharray="none" height="5" stroke="none"/>
<line clip-path="url(#clipPath1)" fill="none" x1="392" x2="409" y1="248" y2="239" stroke-dasharray="none" stroke="rgb(0,0,139)"/>
<rect x="407" y="237" clip-path="url(#clipPath1)" fill="rgb(0,0,139)" width="5" stroke-dasharray="none" height="5" stroke="none"/>
<line clip-path="url(#clipPath1)" fill="none" x1="409" x2="427" y1="239" y2="229" stroke-dasharray="none" stroke="rgb(0,0,139)"/>
<rect x="425" y="227" clip-path="url(#clipPath1)" fill="rgb(0,0,139)" width="5" stroke-dasharray="none" height="5" stroke="none"/>
<line clip-path="url(#clipPath1)" fill="none" x1="427" x2="444" y1="229" y2="220" stroke-dasharray="none" stroke="rgb(0,0,139)"/>
<rect x="442" y="218" clip-path="url(#clipPath1)" fill="rgb(0,0,139)" width="5" stroke-dasharray="none" height="5" stroke="none"/>
<line clip-path="url(#clipPath1)" fill="none" x1="444" x2="462" y1="220" y2="211" stroke-dasharray="none" stroke="rgb(0,0,139)"/>
<rect x="460" y="209" clip-path="url(#clipPath1)" fill="rgb(0,0,139)" width="5" stroke-dasharray="none" height="5" stroke="none"/>
<line clip-path="url(#clipPath1)" fill="none" x1="462" x2="483" y1="211" y2="201" stroke-dasharray="none" stroke="rgb(0,0,139)"/>
<rect x="481" y="199" clip-path="url(#clipPath1)" fill="rgb(0,0,139)" width="5" stroke-dasharray="none" height="5" stroke="none"/>
<line clip-path="url(#clipPath1)" fill="none" x1="483" x2="500" y1="201" y2="192" stroke-dasharray="none" stroke="rgb(0,0,139)"/>
<rect x="498" y="190" clip-path="url(#clipPath1)" fill="rgb(0,0,139)" width="5" stroke-dasharray="none" height="5" stroke="none"/>
<line clip-path="url(#clipPath1)" fill="none" x1="500" x2="517" y1="192" y2="182" stroke-dasharray="none" stroke="rgb(0,0,139)"/>
<rect x="515" y="180" clip-path="url(#clipPath1)" fill="rgb(0,0,139)" width="5" stroke-dasharray="none" height="5" stroke="none"/>
<line clip-path="url(#clipPath1)" fill="none" x1="517" x2="535" y1="182" y2="173" stroke-dasharray="none" stroke="rgb(0,0,139)"/>
<rect x="533" y="171" clip-path="url(#clipPath1)" fill="rgb(0,0,139)" width="5" stroke-dasharray="none" height="5" stroke="none"/>
<line clip-path="url(#clipPath1)" fill="none" x1="535" x2="555" y1="173" y2="164" stroke-dasharray="none" stroke="rgb(0,0,139)"/>
<rect x="553" y="162" clip-path="url(#clipPath1)" fill="rgb(0,0,139)" width="5" stroke-dasharray="none" height="5" stroke="none"/>
<line clip-path="url(#clipPath1)" fill="none" x1="555" x2="573" y1="164" y2="154" stroke-dasharray="none" stroke="rgb(0,0,139)"/>
<rect x="571" y="152" clip-path="url(#clipPath1)" fill="rgb(0,0,139)" width="5" stroke-dasharray="none" height="5" stroke="none"/>
<line clip-path="url(#clipPath1)" fill="none" x1="573" x2="590" y1="154" y2="145" stroke-dasharray="none" stroke="rgb(0,0,139)"/>
<rect x="588" y="143" clip-path="url(#clipPath1)" fill="rgb(0,0,139)" width="5" stroke-dasharray="none" height="5" stroke="none"/>
<line clip-path="url(#clipPath1)" fill="none" x1="590" x2="608" y1="145" y2="135" stroke-dasharray="none" stroke="rgb(0,0,139)"/>
<rect x="606" y="133" clip-path="url(#clipPath1)" fill="rgb(0,0,139)" width="5" stroke-dasharray="none" height="5" stroke="none"/>
<line clip-path="url(#clipPath1)" fill="none" x1="608" x2="625" y1="135" y2="126" stroke-dasharray="none" stroke="rgb(0,0,139)"/>
<rect x="623" y="124" clip-path="url(#clipPath1)" fill="rgb(0,0,139)" width="5" stroke-dasharray="none" height="5" stroke="none"/>
<line clip-path="url(#clipPath1)" fill="none" x1="625" x2="642" y1="126" y2="117" stroke-dasharray="none" stroke="rgb(0,0,139)"/>
<rect x="640" y="115" clip-path="url(#clipPath1)" fill="rgb(0,0,139)" width="5" stroke-dasharray="none" height="5" stroke="none"/>
<line clip-path="url(#clipPath1)" fill="none" x1="642" x2="659" y1="117" y2="107" stroke-dasharray="none" stroke="rgb(0,0,139)"/>
<rect x="657" y="105" clip-path="url(#clipPath1)" fill="rgb(0,0,139)" width="5" stroke-dasharray="none" height="5" stroke="none"/>
<line clip-path="url(#clipPath1)" fill="none" x1="659" x2="676" y1="107" y2="98" stroke-dasharray="none" stroke="rgb(0,0,139)"/>
<rect x="674" y="96" clip-path="url(#clipPath1)" fill="rgb(0,0,139)" width="5" stroke-dasharray="none" height="5" stroke="none"/>
<line clip-path="url(#clipPath1)" fill="none" x1="676" x2="693" y1="98" y2="88" stroke-dasharray="none" stroke="rgb(0,0,139)"/>
<rect x="691" y="86" clip-path="url(#clipPath1)" fill="rgb(0,0,139)" width="5" stroke-dasharray="none" height="5" stroke="none"/>
<line clip-path="url(#clipPath1)" fill="none" x1="693" x2="710" y1="88" y2="79" stroke-dasharray="none" stroke="rgb(0,0,139)"/>
<rect x="708" y="77" clip-path="url(#clipPath1)" fill="rgb(0,0,139)" width="5" stroke-dasharray="none" height="5" stroke="none"/>
<line clip-path="url(#clipPath1)" fill="none" x1="710" x2="727" y1="79" y2="70" stroke-dasharray="none" stroke="rgb(0,0,139)"/>
<rect x="725" y="68" clip-path="url(#clipPath1)" fill="rgb(0,0,139)" width="5" stroke-dasharray="none" height="5" stroke="none"/>
<line clip-path="url(#clipPath1)" fill="none" x1="727" x2="745" y1="70" y2="60" stroke-dasharray="none" stroke="rgb(0,0,139)"/>
<rect x="743" y="58" clip-path="url(#clipPath1)" fill="rgb(0,0,139)" width="5" stroke-dasharray="none" height="5" stroke="none"/>
<line clip-path="url(#clipPath1)" fill="none" x1="745" x2="762" y1="60" y2="51" stroke-dasharray="none" stroke="rgb(0,0,139)"/>
<rect x="760" y="49" clip-path="url(#clipPath1)" fill="rgb(0,0,139)" width="5" stroke-dasharray="none" height="5" stroke="none"/>
<line clip-path="url(#clipPath1)" fill="none" x1="762" x2="780" y1="51" y2="41" stroke-dasharray="none" stroke="rgb(0,0,139)"/>
<rect x="778" y="39" clip-path="url(#clipPath1)" fill="rgb(0,0,139)" width="5" stroke-dasharray="none" height="5" stroke="none"/>
<line clip-path="url(#clipPath1)" fill="none" x1="780" x2="797" y1="41" y2="32" stroke-dasharray="none" stroke="rgb(0,0,139)"/>
<rect x="795" y="30" clip-path="url(#clipPath1)" fill="rgb(0,0,139)" width="5" stroke-dasharray="none" height="5" stroke="none"/>
<line clip-path="url(#clipPath1)" fill="none" x1="797" x2="815" y1="32" y2="23" stroke-dasharray="none" stroke="rgb(0,0,139)"/>
<rect x="813" y="21" clip-path="url(#clipPath1)" fill="rgb(0,0,139)" width="5" stroke-dasharray="none" height="5" stroke="none"/>
<rect x="26" y="23" clip-path="url(#clipPath2)" fill="none" width="799" stroke-dasharray="none" height="489" stroke="black"/>
</g>
<g text-rendering="geometricPrecision" font-size="13" stroke-linecap="butt">
<line clip-path="url(#clipPath2)" fill="none" x1="26" x2="825" y1="21" y2="21"/>
<line clip-path="url(#clipPath2)" fill="none" x1="26" x2="825" y1="514" y2="514"/>
<line clip-path="url(#clipPath2)" fill="none" x1="26" x2="26" y1="17" y2="21"/>
<line clip-path="url(#clipPath2)" fill="none" x1="26" x2="26" y1="518" y2="514"/>
<text font-size="11" x="17" y="14" clip-path="url(#clipPath2)" stroke="none" xml:space="preserve">0.00</text>
<text font-size="11" x="17" y="530" clip-path="url(#clipPath2)" stroke="none" xml:space="preserve">0.00</text>
<line clip-path="url(#clipPath2)" fill="none" x1="40" x2="40" y1="19" y2="21"/>
<line clip-path="url(#clipPath2)" fill="none" x1="40" x2="40" y1="516" y2="514"/>
<line clip-path="url(#clipPath2)" fill="none" x1="55" x2="55" y1="19" y2="21"/>
<line clip-path="url(#clipPath2)" fill="none" x1="55" x2="55" y1="516" y2="514"/>
<line clip-path="url(#clipPath2)" fill="none" x1="70" x2="70" y1="19" y2="21"/>
<line clip-path="url(#clipPath2)" fill="none" x1="70" x2="70" y1="516" y2="514"/>
<line clip-path="url(#clipPath2)" fill="none" x1="85" x2="85" y1="19" y2="21"/>
<line clip-path="url(#clipPath2)" fill="none" x1="85" x2="85" y1="516" y2="514"/>
<line clip-path="url(#clipPath2)" fill="none" x1="100" x2="100" y1="17" y2="21"/>
<line clip-path="url(#clipPath2)" fill="none" x1="100" x2="100" y1="518" y2="514"/>
<text font-size="11" x="89" y="14" clip-path="url(#clipPath2)" stroke="none" xml:space="preserve">0.010</text>
<text font-size="11" x="89" y="530" clip-path="url(#clipPath2)" stroke="none" xml:space="preserve">0.010</text>
<line clip-path="url(#clipPath2)" fill="none" x1="115" x2="115" y1="19" y2="21"/>
<line clip-path="url(#clipPath2)" fill="none" x1="115" x2="115" y1="516" y2="514"/>
<line clip-path="url(#clipPath2)" fill="none" x1="130" x2="130" y1="19" y2="21"/>
<line clip-path="url(#clipPath2)" fill="none" x1="130" x2="130" y1="516" y2="514"/>
<line clip-path="url(#clipPath2)" fill="none" x1="145" x2="145" y1="19" y2="21"/>
<line clip-path="url(#clipPath2)" fill="none" x1="145" x2="145" y1="516" y2="514"/>
<line clip-path="url(#clipPath2)" fill="none" x1="160" x2="160" y1="19" y2="21"/>
<line clip-path="url(#clipPath2)" fill="none" x1="160" x2="160" y1="516" y2="514"/>
<line clip-path="url(#clipPath2)" fill="none" x1="175" x2="175" y1="17" y2="21"/>
<line clip-path="url(#clipPath2)" fill="none" x1="175" x2="175" y1="518" y2="514"/>
<text font-size="11" x="164" y="14" clip-path="url(#clipPath2)" stroke="none" xml:space="preserve">0.020</text>
<text font-size="11" x="164" y="530" clip-path="url(#clipPath2)" stroke="none" xml:space="preserve">0.020</text>
<line clip-path="url(#clipPath2)" fill="none" x1="190" x2="190" y1="19" y2="21"/>
<line clip-path="url(#clipPath2)" fill="none" x1="190" x2="190" y1="516" y2="514"/>
<line clip-path="url(#clipPath2)" fill="none" x1="205" x2="205" y1="19" y2="21"/>
<line clip-path="url(#clipPath2)" fill="none" x1="205" x2="205" y1="516" y2="514"/>
<line clip-path="url(#clipPath2)" fill="none" x1="220" x2="220" y1="19" y2="21"/>
<line clip-path="url(#clipPath2)" fill="none" x1="220" x2="220" y1="516" y2="514"/>
<line clip-path="url(#clipPath2)" fill="none" x1="235" x2="235" y1="19" y2="21"/>
<line clip-path="url(#clipPath2)" fill="none" x1="235" x2="235" y1="516" y2="514"/>
<line clip-path="url(#clipPath2)" fill="none" x1="250" x2="250" y1="17" y2="21"/>
<line clip-path="url(#clipPath2)" fill="none" x1="250" x2="250" y1="518" y2="514"/>
<text font-size="11" x="239" y="14" clip-path="url(#clipPath2)" stroke="none" xml:space="preserve">0.030</text>
<text font-size="11" x="239" y="530" clip-path="url(#clipPath2)" stroke="none" xml:space="preserve">0.030</text>
<line clip-path="url(#clipPath2)" fill="none" x1="265" x2="265" y1="19" y2="21"/>
<line clip-path="url(#clipPath2)" fill="none" x1="265" x2="265" y1="516" y2="514"/>
<line clip-path="url(#clipPath2)" fill="none" x1="280" x2="280" y1="19" y2="21"/>
<line clip-path="url(#clipPath2)" fill="none" x1="280" x2="280" y1="516" y2="514"/>
<line clip-path="url(#clipPath2)" fill="none" x1="295" x2="295" y1="19" y2="21"/>
<line clip-path="url(#clipPath2)" fill="none" x1="295" x2="295" y1="516" y2="514"/>
<line clip-path="url(#clipPath2)" fill="none" x1="310" x2="310" y1="19" y2="21"/>
<line clip-path="url(#clipPath2)" fill="none" x1="310" x2="310" y1="516" y2="514"/>
<line clip-path="url(#clipPath2)" fill="none" x1="325" x2="325" y1="17" y2="21"/>
<line clip-path="url(#clipPath2)" fill="none" x1="325" x2="325" y1="518" y2="514"/>
<text font-size="11" x="314" y="14" clip-path="url(#clipPath2)" stroke="none" xml:space="preserve">0.040</text>
<text font-size="11" x="314" y="530" clip-path="url(#clipPath2)" stroke="none" xml:space="preserve">0.040</text>
<line clip-path="url(#clipPath2)" fill="none" x1="340" x2="340" y1="19" y2="21"/>
<line clip-path="url(#clipPath2)" fill="none" x1="340" x2="340" y1="516" y2="514"/>
<line clip-path="url(#clipPath2)" fill="none" x1="355" x2="355" y1="19" y2="21"/>
<line clip-path="url(#clipPath2)" fill="none" x1="355" x2="355" y1="516" y2="514"/>
<line clip-path="url(#clipPath2)" fill="none" x1="370" x2="370" y1="19" y2="21"/>
<line clip-path="url(#clipPath2)" fill="none" x1="370" x2="370" y1="516" y2="514"/>
<line clip-path="url(#clipPath2)" fill="none" x1="385" x2="385" y1="19" y2="21"/>
<line clip-path="url(#clipPath2)" fill="none" x1="385" x2="385" y1="516" y2="514"/>
<line clip-path="url(#clipPath2)" fill="none" x1="400" x2="400" y1="17" y2="21"/>
<line clip-path="url(#clipPath2)" fill="none" x1="400" x2="400" y1="518" y2="514"/>
<text font-size="11" x="389" y="14" clip-path="url(#clipPath2)" stroke="none" xml:space="preserve">0.050</text>
<text font-size="11" x="389" y="530" clip-path="url(#clipPath2)" stroke="none" xml:space="preserve">0.050</text>
<line clip-path="url(#clipPath2)" fill="none" x1="415" x2="415" y1="19" y2="21"/>
<line clip-path="url(#clipPath2)" fill="none" x1="415" x2="415" y1="516" y2="514"/>
<line clip-path="url(#clipPath2)" fill="none" x1="430" x2="430" y1="19" y2="21"/>
<line clip-path="url(#clipPath2)" fill="none" x1="430" x2="430" y1="516" y2="514"/>
<line clip-path="url(#clipPath2)" fill="none" x1="445" x2="445" y1="19" y2="21"/>
<line clip-path="url(#clipPath2)" fill="none" x1="445" x2="445" y1="516" y2="514"/>
<line clip-path="url(#clipPath2)" fill="none" x1="460" x2="460" y1="19" y2="21"/>
<line clip-path="url(#clipPath2)" fill="none" x1="460" x2="460" y1="516" y2="514"/>
<line clip-path="url(#clipPath2)" fill="none" x1="475" x2="475" y1="17" y2="21"/>
<line clip-path="url(#clipPath2)" fill="none" x1="475" x2="475" y1="518" y2="514"/>
<text font-size="11" x="464" y="14" clip-path="url(#clipPath2)" stroke="none" xml:space="preserve">0.060</text>
<text font-size="11" x="464" y="530" clip-path="url(#clipPath2)" stroke="none" xml:space="preserve">0.060</text>
<line clip-path="url(#clipPath2)" fill="none" x1="490" x2="490" y1="19" y2="21"/>
<line clip-path="url(#clipPath2)" fill="none" x1="490" x2="490" y1="516" y2="514"/>
<line clip-path="url(#clipPath2)" fill="none" x1="505" x2="505" y1="19" y2="21"/>
<line clip-path="url(#clipPath2)" fill="none" x1="505" x2="505" y1="516" y2="514"/>
<line clip-path="url(#clipPath2)" fill="none" x1="520" x2="520" y1="19" y2="21"/>
<line clip-path="url(#clipPath2)" fill="none" x1="520" x2="520" y1="516" y2="514"/>
<line clip-path="url(#clipPath2)" fill="none" x1="535" x2="535" y1="19" y2="21"/>
<line clip-path="url(#clipPath2)" fill="none" x1="535" x2="535" y1="516" y2="514"/>
<line clip-path="url(#clipPath2)" fill="none" x1="550" x2="550" y1="17" y2="21"/>
<line clip-path="url(#clipPath2)" fill="none" x1="550" x2="550" y1="518" y2="514"/>
<text font-size="11" x="539" y="14" clip-path="url(#clipPath2)" stroke="none" xml:space="preserve">0.070</text>
<text font-size="11" x="539" y="530" clip-path="url(#clipPath2)" stroke="none" xml:space="preserve">0.070</text>
<line clip-path="url(#clipPath2)" fill="none" x1="565" x2="565" y1="19" y2="21"/>
<line clip-path="url(#clipPath2)" fill="none" x1="565" x2="565" y1="516" y2="514"/>
<line clip-path="url(#clipPath2)" fill="none" x1="580" x2="580" y1="19" y2="21"/>
<line clip-path="url(#clipPath2)" fill="none" x1="580" x2="580" y1="516" y2="514"/>
<line clip-path="url(#clipPath2)" fill="none" x1="595" x2="595" y1="19" y2="21"/>
<line clip-path="url(#clipPath2)" fill="none" x1="595" x2="595" y1="516" y2="514"/>
<line clip-path="url(#clipPath2)" fill="none" x1="610" x2="610" y1="19" y2="21"/>
<line clip-path="url(#clipPath2)" fill="none" x1="610" x2="610" y1="516" y2="514"/>
<line clip-path="url(#clipPath2)" fill="none" x1="625" x2="625" y1="17" y2="21"/>
<line clip-path="url(#clipPath2)" fill="none" x1="625" x2="625" y1="518" y2="514"/>
<text font-size="11" x="614" y="14" clip-path="url(#clipPath2)" stroke="none" xml:space="preserve">0.080</text>
<text font-size="11" x="614" y="530" clip-path="url(#clipPath2)" stroke="none" xml:space="preserve">0.080</text>
<line clip-path="url(#clipPath2)" fill="none" x1="640" x2="640" y1="19" y2="21"/>
<line clip-path="url(#clipPath2)" fill="none" x1="640" x2="640" y1="516" y2="514"/>
<line clip-path="url(#clipPath2)" fill="none" x1="655" x2="655" y1="19" y2="21"/>
<line clip-path="url(#clipPath2)" fill="none" x1="655" x2="655" y1="516" y2="514"/>
<line clip-path="url(#clipPath2)" fill="none" x1="670" x2="670" y1="19" y2="21"/>
<line clip-path="url(#clipPath2)" fill="none" x1="670" x2="670" y1="516" y2="514"/>
<line clip-path="url(#clipPath2)" fill="none" x1="685" x2="685" y1="19" y2="21"/>
<line clip-path="url(#clipPath2)" fill="none" x1="685" x2="685" y1="516" y2="514"/>
<line clip-path="url(#clipPath2)" fill="none" x1="700" x2="700" y1="17" y2="21"/>
<line clip-path="url(#clipPath2)" fill="none" x1="700" x2="700" y1="518" y2="514"/>
<text font-size="11" x="689" y="14" clip-path="url(#clipPath2)" stroke="none" xml:space="preserve">0.090</text>
<text font-size="11" x="689" y="530" clip-path="url(#clipPath2)" stroke="none" xml:space="preserve">0.090</text>
<line clip-path="url(#clipPath2)" fill="none" x1="715" x2="715" y1="19" y2="21"/>
<line clip-path="url(#clipPath2)" fill="none" x1="715" x2="715" y1="516" y2="514"/>
<line clip-path="url(#clipPath2)" fill="none" x1="730" x2="730" y1="19" y2="21"/>
<line clip-path="url(#clipPath2)" fill="none" x1="730" x2="730" y1="516" y2="514"/>
<line clip-path="url(#clipPath2)" fill="none" x1="745" x2="745" y1="19" y2="21"/>
<line clip-path="url(#clipPath2)" fill="none" x1="745" x2="745" y1="516" y2="514"/>
<line clip-path="url(#clipPath2)" fill="none" x1="760" x2="760" y1="19" y2="21"/>
<line clip-path="url(#clipPath2)" fill="none" x1="760" x2="760" y1="516" y2="514"/>
<line clip-path="url(#clipPath2)" fill="none" x1="774" x2="774" y1="17" y2="21"/>
<line clip-path="url(#clipPath2)" fill="none" x1="774" x2="774" y1="518" y2="514"/>
<text font-size="11" x="763" y="14" clip-path="url(#clipPath2)" stroke="none" xml:space="preserve">0.100</text>
<text font-size="11" x="763" y="530" clip-path="url(#clipPath2)" stroke="none" xml:space="preserve">0.100</text>
<line clip-path="url(#clipPath2)" fill="none" x1="789" x2="789" y1="19" y2="21"/>
<line clip-path="url(#clipPath2)" fill="none" x1="789" x2="789" y1="516" y2="514"/>
<line clip-path="url(#clipPath2)" fill="none" x1="804" x2="804" y1="19" y2="21"/>
<line clip-path="url(#clipPath2)" fill="none" x1="804" x2="804" y1="516" y2="514"/>
<line clip-path="url(#clipPath2)" fill="none" x1="819" x2="819" y1="19" y2="21"/>
<line clip-path="url(#clipPath2)" fill="none" x1="819" x2="819" y1="516" y2="514"/>
<line clip-path="url(#clipPath2)" fill="none" x1="24" x2="24" y1="23" y2="512"/>
<line clip-path="url(#clipPath2)" fill="none" x1="827" x2="827" y1="23" y2="512"/>
<line clip-path="url(#clipPath2)" fill="none" x1="22" x2="24" y1="512" y2="512"/>
<line clip-path="url(#clipPath2)" fill="none" x1="829" x2="827" y1="512" y2="512"/>
<line clip-path="url(#clipPath2)" fill="none" x1="20" x2="24" y1="493" y2="493"/>
<line clip-path="url(#clipPath2)" fill="none" x1="831" x2="827" y1="493" y2="493"/>
<text font-size="11" x="4" y="498" clip-path="url(#clipPath2)" stroke="none" xml:space="preserve">-50</text>
<text font-size="11" x="834" y="498" clip-path="url(#clipPath2)" stroke="none" xml:space="preserve">-50</text>
<line clip-path="url(#clipPath2)" fill="none" x1="22" x2="24" y1="474" y2="474"/>
<line clip-path="url(#clipPath2)" fill="none" x1="829" x2="827" y1="474" y2="474"/>
<line clip-path="url(#clipPath2)" fill="none" x1="22" x2="24" y1="455" y2="455"/>
<line clip-path="url(#clipPath2)" fill="none" x1="829" x2="827" y1="455" y2="455"/>
<line clip-path="url(#clipPath2)" fill="none" x1="22" x2="24" y1="436" y2="436"/>
<line clip-path="url(#clipPath2)" fill="none" x1="829" x2="827" y1="436" y2="436"/>
<line clip-path="url(#clipPath2)" fill="none" x1="22" x2="24" y1="417" y2="417"/>
<line clip-path="url(#clipPath2)" fill="none" x1="829" x2="827" y1="417" y2="417"/>
<line clip-path="url(#clipPath2)" fill="none" x1="20" x2="24" y1="399" y2="399"/>
<line clip-path="url(#clipPath2)" fill="none" x1="831" x2="827" y1="399" y2="399"/>
<text font-size="11" x="4" y="404" clip-path="url(#clipPath2)" stroke="none" xml:space="preserve">-40</text>
<text font-size="11" x="834" y="404" clip-path="url(#clipPath2)" stroke="none" xml:space="preserve">-40</text>
<line clip-path="url(#clipPath2)" fill="none" x1="22" x2="24" y1="380" y2="380"/>
<line clip-path="url(#clipPath2)" fill="none" x1="829" x2="827" y1="380" y2="380"/>
<line clip-path="url(#clipPath2)" fill="none" x1="22" x2="24" y1="361" y2="361"/>
<line clip-path="url(#clipPath2)" fill="none" x1="829" x2="827" y1="361" y2="361"/>
<line clip-path="url(#clipPath2)" fill="none" x1="22" x2="24" y1="342" y2="342"/>
<line clip-path="url(#clipPath2)" fill="none" x1="829" x2="827" y1="342" y2="342"/>
<line clip-path="url(#clipPath2)" fill="none" x1="22" x2="24" y1="323" y2="323"/>
<line clip-path="url(#clipPath2)" fill="none" x1="829" x2="827" y1="323" y2="323"/>
<line clip-path="url(#clipPath2)" fill="none" x1="20" x2="24" y1="305" y2="305"/>
<line clip-path="url(#clipPath2)" fill="none" x1="831" x2="827" y1="305" y2="305"/>
<text font-size="11" x="4" y="310" clip-path="url(#clipPath2)" stroke="none" xml:space="preserve">-30</text>
<text font-size="11" x="834" y="310" clip-path="url(#clipPath2)" stroke="none" xml:space="preserve">-30</text>
<line clip-path="url(#clipPath2)" fill="none" x1="22" x2="24" y1="286" y2="286"/>
<line clip-path="url(#clipPath2)" fill="none" x1="829" x2="827" y1="286" y2="286"/>
<line clip-path="url(#clipPath2)" fill="none" x1="22" x2="24" y1="267" y2="267"/>
<line clip-path="url(#clipPath2)" fill="none" x1="829" x2="827" y1="267" y2="267"/>
<line clip-path="url(#clipPath2)" fill="none" x1="22" x2="24" y1="248" y2="248"/>
<line clip-path="url(#clipPath2)" fill="none" x1="829" x2="827" y1="248" y2="248"/>
<line clip-path="url(#clipPath2)" fill="none" x1="22" x2="24" y1="229" y2="229"/>
<line clip-path="url(#clipPath2)" fill="none" x1="829" x2="827" y1="229" y2="229"/>
<line clip-path="url(#clipPath2)" fill="none" x1="20" x2="24" y1="211" y2="211"/>
<line clip-path="url(#clipPath2)" fill="none" x1="831" x2="827" y1="211" y2="211"/>
<text font-size="11" x="4" y="216" clip-path="url(#clipPath2)" stroke="none" xml:space="preserve">-20</text>
<text font-size="11" x="834" y="216" clip-path="url(#clipPath2)" stroke="none" xml:space="preserve">-20</text>
<line clip-path="url(#clipPath2)" fill="none" x1="22" x2="24" y1="192" y2="192"/>
<line clip-path="url(#clipPath2)" fill="none" x1="829" x2="827" y1="192" y2="192"/>
<line clip-path="url(#clipPath2)" fill="none" x1="22" x2="24" y1="173" y2="173"/>
<line clip-path="url(#clipPath2)" fill="none" x1="829" x2="827" y1="173" y2="173"/>
<line clip-path="url(#clipPath2)" fill="none" x1="22" x2="24" y1="154" y2="154"/>
<line clip-path="url(#clipPath2)" fill="none" x1="829" x2="827" y1="154" y2="154"/>
<line clip-path="url(#clipPath2)" fill="none" x1="22" x2="24" y1="135" y2="135"/>
<line clip-path="url(#clipPath2)" fill="none" x1="829" x2="827" y1="135" y2="135"/>
<line clip-path="url(#clipPath2)" fill="none" x1="20" x2="24" y1="117" y2="117"/>
<line clip-path="url(#clipPath2)" fill="none" x1="831" x2="827" y1="117" y2="117"/>
<text font-size="11" x="4" y="122" clip-path="url(#clipPath2)" stroke="none" xml:space="preserve">-10</text>
<text font-size="11" x="834" y="122" clip-path="url(#clipPath2)" stroke="none" xml:space="preserve">-10</text>
<line clip-path="url(#clipPath2)" fill="none" x1="22" x2="24" y1="98" y2="98"/>
<line clip-path="url(#clipPath2)" fill="none" x1="829" x2="827" y1="98" y2="98"/>
<line clip-path="url(#clipPath2)" fill="none" x1="22" x2="24" y1="79" y2="79"/>
<line clip-path="url(#clipPath2)" fill="none" x1="829" x2="827" y1="79" y2="79"/>
<line clip-path="url(#clipPath2)" fill="none" x1="22" x2="24" y1="60" y2="60"/>
<line clip-path="url(#clipPath2)" fill="none" x1="829" x2="827" y1="60" y2="60"/>
<line clip-path="url(#clipPath2)" fill="none" x1="22" x2="24" y1="41" y2="41"/>
<line clip-path="url(#clipPath2)" fill="none" x1="829" x2="827" y1="41" y2="41"/>
</g>
</g>
</svg>
