<?xml version="1.0" encoding="UTF-8"?><svg xmlns="http://www.w3.org/2000/svg" xmlns:xlink="http://www.w3.org/1999/xlink" stroke-dasharray="none" shape-rendering="auto" font-family="'Dialog'" width="851" text-rendering="auto" fill-opacity="1" contentScriptType="text/ecmascript" color-interpolation="auto" color-rendering="auto" preserveAspectRatio="xMidYMid meet" font-size="12" fill="black" stroke="black" image-rendering="auto" stroke-miterlimit="10" zoomAndPan="magnify" version="1.0" stroke-linecap="square" stroke-linejoin="miter" contentStyleType="text/css" font-style="normal" height="535" stroke-width="1" stroke-dashoffset="0" font-weight="normal" stroke-opacity="1">
<!--Generated by the Batik Graphics2D SVG Generator-->
<defs id="genericDefs"/>
<g>
<defs id="defs1">
<clipPath clipPathUnits="userSpaceOnUse" id="clipPath1">
<path d="M25 38 L826 38 L826 513 L25 513 L25 38 Z"/>
</clipPath>
<clipPath clipPathUnits="userSpaceOnUse" id="clipPath2">
<path d="M-1 -1 L852 -1 L852 536 L-1 536 L-1 -1 Z"/>
</clipPath>
</defs>
<g font-size="15" fill="white" text-rendering="geometricPrecision" font-family="'Ubuntu'" stroke-linejoin="round" stroke="white" stroke-width="0" stroke-miterlimit="0">
<rect x="26" y="39" clip-path="url(#clipPath1)" width="799" height="473" stroke="none"/>
</g>
<g font-size="15" stroke-linecap="butt" fill="rgb(204,204,204)" text-rendering="geometricPrecision" font-family="'Ubuntu'" stroke-dasharray="3,3" stroke="rgb(204,204,204)">
<line clip-path="url(#clipPath1)" fill="none" x1="26" x2="26" y1="39" y2="512"/>
<line clip-path="url(#clipPath1)" fill="none" x1="77" x2="77" y1="39" y2="512"/>
<line clip-path="url(#clipPath1)" fill="none" x1="128" x2="128" y1="39" y2="512"/>
<line clip-path="url(#clipPath1)" fill="none" x1="180" x2="180" y1="39" y2="512"/>
<line clip-path="url(#clipPath1)" fill="none" x1="231" x2="231" y1="39" y2="512"/>
<line clip-path="url(#clipPath1)" fill="none" x1="282" x2="282" y1="39" y2="512"/>
<line clip-path="url(#clipPath1)" fill="none" x1="334" x2="334" y1="39" y2="512"/>
<line clip-path="url(#clipPath1)" fill="none" x1="385" x2="385" y1="39" y2="512"/>
<line clip-path="url(#clipPath1)" fill="none" x1="437" x2="437" y1="39" y2="512"/>
<line clip-path="url(#clipPath1)" fill="none" x1="488" x2="488" y1="39" y2="512"/>
<line clip-path="url(#clipPath1)" fill="none" x1="539" x2="539" y1="39" y2="512"/>
<line clip-path="url(#clipPath1)" fill="none" x1="591" x2="591" y1="39" y2="512"/>
<line clip-path="url(#clipPath1)" fill="none" x1="642" x2="642" y1="39" y2="512"/>
<line clip-path="url(#clipPath1)" fill="none" x1="694" x2="694" y1="39" y2="512"/>
<line clip-path="url(#clipPath1)" fill="none" x1="745" x2="745" y1="39" y2="512"/>
<line clip-path="url(#clipPath1)" fill="none" x1="796" x2="796" y1="39" y2="512"/>
<line clip-path="url(#clipPath1)" fill="none" x1="26" x2="825" y1="493" y2="493"/>
<line clip-path="url(#clipPath1)" fill="none" x1="26" x2="825" y1="402" y2="402"/>
<line clip-path="url(#clipPath1)" fill="none" x1="26" x2="825" y1="311" y2="311"/>
<line clip-path="url(#clipPath1)" fill="none" x1="26" x2="825" y1="220" y2="220"/>
<line clip-path="url(#clipPath1)" fill="none" x1="26" x2="825" y1="129" y2="129"/>
<rect x="114" y="391" clip-path="url(#clipPath1)" fill="rgb(0,0,139)" width="5" height="5" stroke="none"/>
<line clip-path="url(#clipPath1)" fill="none" x1="116" x2="127" y1="393" y2="384" stroke-dasharray="none" stroke="rgb(0,0,139)"/>
<rect x="125" y="382" clip-path="url(#clipPath1)" fill="rgb(0,0,139)" width="5" stroke-dasharray="none" height="5" stroke="none"/>
<line clip-path="url(#clipPath1)" fill="none" x1="127" x2="139" y1="384" y2="375" stroke-dasharray="none" stroke="rgb(0,0,139)"/>
<rect x="137" y="373" clip-path="url(#clipPath1)" fill="rgb(0,0,139)" width="5" stroke-dasharray="none" height="5" stroke="none"/>
<line clip-path="url(#clipPath1)" fill="none" x1="139" x2="151" y1="375" y2="366" stroke-dasharray="none" stroke="rgb(0,0,139)"/>
<rect x="149" y="364" clip-path="url(#clipPath1)" fill="rgb(0,0,139)" width="5" stroke-dasharray="none" height="5" stroke="none"/>
<line clip-path="url(#clipPath1)" fill="none" x1="151" x2="163" y1="366" y2="357" stroke-dasharray="none" stroke="rgb(0,0,139)"/>
<rect x="161" y="355" clip-path="url(#clipPath1)" fill="rgb(0,0,139)" width="5" stroke-dasharray="none" height="5" stroke="none"/>
<line clip-path="url(#clipPath1)" fill="none" x1="163" x2="175" y1="357" y2="348" stroke-dasharray="none" stroke="rgb(0,0,139)"/>
<rect x="173" y="346" clip-path="url(#clipPath1)" fill="rgb(0,0,139)" width="5" stroke-dasharray="none" height="5" stroke="none"/>
<line clip-path="url(#clipPath1)" fill="none" x1="175" x2="186" y1="348" y2="339" stroke-dasharray="none" stroke="rgb(0,0,139)"/>
<rect x="184" y="337" clip-path="url(#clipPath1)" fill="rgb(0,0,139)" width="5" stroke-dasharray="none" height="5" stroke="none"/>
<line clip-path="url(#clipPath1)" fill="none" x1="186" x2="198" y1="339" y2="330" stroke-dasharray="none" stroke="rgb(0,0,139)"/>
<rect x="196" y="328" clip-path="url(#clipPath1)" fill="rgb(0,0,139)" width="5" stroke-dasharray="none" height="5" stroke="none"/>
<line clip-path="url(#clipPath1)" fill="none" x1="198" x2="213" y1="330" y2="320" stroke-dasharray="none" stroke="rgb(0,0,139)"/>
<rect x="211" y="318" clip-path="url(#clipPath1)" fill="rgb(0,0,139)" width="5" stroke-dasharray="none" height="5" stroke="none"/>
<line clip-path="url(#clipPath1)" fill="none" x1="213" x2="225" y1="320" y2="311" stroke-dasharray="none" stroke="rgb(0,0,139)"/>
<rect x="223" y="309" clip-path="url(#clipPath1)" fill="rgb(0,0,139)" width="5" stroke-dasharray="none" height="5" stroke="none"/>
<line clip-path="url(#clipPath1)" fill="none" x1="225" x2="238" y1="311" y2="302" stroke-dasharray="none" stroke="rgb(0,0,139)"/>
<rect x="236" y="300" clip-path="url(#clipPath1)" fill="rgb(0,0,139)" width="5" stroke-dasharray="none" height="5" stroke="none"/>
<line clip-path="url(#clipPath1)" fill="none" x1="238" x2="249" y1="302" y2="293" stroke-dasharray="none" stroke="rgb(0,0,139)"/>
<rect x="247" y="291" clip-path="url(#clipPath1)" fill="rgb(0,0,139)" width="5" stroke-dasharray="none" height="5" stroke="none"/>
<line clip-path="url(#clipPath1)" fill="none" x1="249" x2="264" y1="293" y2="284" stroke-dasharray="none" stroke="rgb(0,0,139)"/>
<rect x="262" y="282" clip-path="url(#clipPath1)" fill="rgb(0,0,139)" width="5" stroke-dasharray="none" height="5" stroke="none"/>
<line clip-path="url(#clipPath1)" fill="none" x1="264" x2="278" y1="284" y2="275" stroke-dasharray="none" stroke="rgb(0,0,139)"/>
<rect x="276" y="273" clip-path="url(#clipPath1)" fill="rgb(0,0,139)" width="5" stroke-dasharray="none" height="5" stroke="none"/>
<line clip-path="url(#clipPath1)" fill="none" x1="278" x2="290" y1="275" y2="266" stroke-dasharray="none" stroke="rgb(0,0,139)"/>
<rect x="288" y="264" clip-path="url(#clipPath1)" fill="rgb(0,0,139)" width="5" stroke-dasharray="none" height="5" stroke="none"/>
<line clip-path="url(#clipPath1)" fill="none" x1="290" x2="305" y1="266" y2="257" stroke-dasharray="none" stroke="rgb(0,0,139)"/>
<rect x="303" y="255" clip-path="url(#clipPath1)" fill="rgb(0,0,139)" width="5" stroke-dasharray="none" height="5" stroke="none"/>
<line clip-path="url(#clipPath1)" fill="none" x1="305" x2="314" y1="257" y2="248" stroke-dasharray="none" stroke="rgb(0,0,139)"/>
<rect x="312" y="246" clip-path="url(#clipPath1)" fill="rgb(0,0,139)" width="5" stroke-dasharray="none" height="5" stroke="none"/>
<line clip-path="url(#clipPath1)" fill="none" x1="314" x2="326" y1="248" y2="239" stroke-dasharray="none" stroke="rgb(0,0,139)"/>
<rect x="324" y="237" clip-path="url(#clipPath1)" fill="rgb(0,0,139)" width="5" stroke-dasharray="none" height="5" stroke="none"/>
<line clip-path="url(#clipPath1)" fill="none" x1="326" x2="338" y1="239" y2="230" stroke-dasharray="none" stroke="rgb(0,0,139)"/>
<rect x="336" y="228" clip-path="url(#clipPath1)" fill="rgb(0,0,139)" width="5" stroke-dasharray="none" height="5" stroke="none"/>
<line clip-path="url(#clipPath1)" fill="none" x1="338" x2="350" y1="230" y2="220" stroke-dasharray="none" stroke="rgb(0,0,139)"/>
<rect x="348" y="218" clip-path="url(#clipPath1)" fill="rgb(0,0,139)" width="5" stroke-dasharray="none" height="5" stroke="none"/>
<line clip-path="url(#clipPath1)" fill="none" x1="350" x2="361" y1="220" y2="211" stroke-dasharray="none" stroke="rgb(0,0,139)"/>
<rect x="359" y="209" clip-path="url(#clipPath1)" fill="rgb(0,0,139)" width="5" stroke-dasharray="none" height="5" stroke="none"/>
<line clip-path="url(#clipPath1)" fill="none" x1="361" x2="374" y1="211" y2="202" stroke-dasharray="none" stroke="rgb(0,0,139)"/>
<rect x="372" y="200" clip-path="url(#clipPath1)" fill="rgb(0,0,139)" width="5" stroke-dasharray="none" height="5" stroke="none"/>
<line clip-path="url(#clipPath1)" fill="none" x1="374" x2="384" y1="202" y2="193" stroke-dasharray="none" stroke="rgb(0,0,139)"/>
<rect x="382" y="191" clip-path="url(#clipPath1)" fill="rgb(0,0,139)" width="5" stroke-dasharray="none" height="5" stroke="none"/>
<line clip-path="url(#clipPath1)" fill="none" x1="384" x2="394" y1="193" y2="184" stroke-dasharray="none" stroke="rgb(0,0,139)"/>
<rect x="392" y="182" clip-path="url(#clipPath1)" fill="rgb(0,0,139)" width="5" stroke-dasharray="none" height="5" stroke="none"/>
<line clip-path="url(#clipPath1)" fill="none" x1="394" x2="405" y1="184" y2="175" stroke-dasharray="none" stroke="rgb(0,0,139)"/>
<rect x="403" y="173" clip-path="url(#clipPath1)" fill="rgb(0,0,139)" width="5" stroke-dasharray="none" height="5" stroke="none"/>
<line clip-path="url(#clipPath1)" fill="none" x1="405" x2="417" y1="175" y2="166" stroke-dasharray="none" stroke="rgb(0,0,139)"/>
<rect x="415" y="164" clip-path="url(#clipPath1)" fill="rgb(0,0,139)" width="5" stroke-dasharray="none" height="5" stroke="none"/>
<line clip-path="url(#clipPath1)" fill="none" x1="417" x2="427" y1="166" y2="157" stroke-dasharray="none" stroke="rgb(0,0,139)"/>
<rect x="425" y="155" clip-path="url(#clipPath1)" fill="rgb(0,0,139)" width="5" stroke-dasharray="none" height="5" stroke="none"/>
<line clip-path="url(#clipPath1)" fill="none" x1="427" x2="438" y1="157" y2="148" stroke-dasharray="none" stroke="rgb(0,0,139)"/>
<rect x="436" y="146" clip-path="url(#clipPath1)" fill="rgb(0,0,139)" width="5" stroke-dasharray="none" height="5" stroke="none"/>
<line clip-path="url(#clipPath1)" fill="none" x1="438" x2="446" y1="148" y2="139" stroke-dasharray="none" stroke="rgb(0,0,139)"/>
<rect x="444" y="137" clip-path="url(#clipPath1)" fill="rgb(0,0,139)" width="5" stroke-dasharray="none" height="5" stroke="none"/>
<line clip-path="url(#clipPath1)" fill="none" x1="446" x2="456" y1="139" y2="129" stroke-dasharray="none" stroke="rgb(0,0,139)"/>
<rect x="454" y="127" clip-path="url(#clipPath1)" fill="rgb(0,0,139)" width="5" stroke-dasharray="none" height="5" stroke="none"/>
<line clip-path="url(#clipPath1)" fill="none" x1="456" x2="469" y1="129" y2="120" stroke-dasharray="none" stroke="rgb(0,0,139)"/>
<rect x="467" y="118" clip-path="url(#clipPath1)" fill="rgb(0,0,139)" width="5" stroke-dasharray="none" height="5" stroke="none"/>
<line clip-path="url(#clipPath1)" fill="none" x1="469" x2="484" y1="120" y2="111" stroke-dasharray="none" stroke="rgb(0,0,139)"/>
<rect x="482" y="109" clip-path="url(#clipPath1)" fill="rgb(0,0,139)" width="5" stroke-dasharray="none" height="5" stroke="none"/>
<line clip-path="url(#clipPath1)" fill="none" x1="484" x2="496" y1="111" y2="102" stroke-dasharray="none" stroke="rgb(0,0,139)"/>
<rect x="494" y="100" clip-path="url(#clipPath1)" fill="rgb(0,0,139)" width="5" stroke-dasharray="none" height="5" stroke="none"/>
<line clip-path="url(#clipPath1)" fill="none" x1="496" x2="507" y1="102" y2="93" stroke-dasharray="none" stroke="rgb(0,0,139)"/>
<rect x="505" y="91" clip-path="url(#clipPath1)" fill="rgb(0,0,139)" width="5" stroke-dasharray="none" height="5" stroke="none"/>
<line clip-path="url(#clipPath1)" fill="none" x1="507" x2="519" y1="93" y2="84" stroke-dasharray="none" stroke="rgb(0,0,139)"/>
<rect x="517" y="82" clip-path="url(#clipPath1)" fill="rgb(0,0,139)" width="5" stroke-dasharray="none" height="5" stroke="none"/>
<line clip-path="url(#clipPath1)" fill="none" x1="519" x2="534" y1="84" y2="75" stroke-dasharray="none" stroke="rgb(0,0,139)"/>
<rect x="532" y="73" clip-path="url(#clipPath1)" fill="rgb(0,0,139)" width="5" stroke-dasharray="none" height="5" stroke="none"/>
<line clip-path="url(#clipPath1)" fill="none" x1="534" x2="542" y1="75" y2="66" stroke-dasharray="none" stroke="rgb(0,0,139)"/>
<rect x="540" y="64" clip-path="url(#clipPath1)" fill="rgb(0,0,139)" width="5" stroke-dasharray="none" height="5" stroke="none"/>
<line clip-path="url(#clipPath1)" fill="none" x1="542" x2="554" y1="66" y2="57" stroke-dasharray="none" stroke="rgb(0,0,139)"/>
<rect x="552" y="55" clip-path="url(#clipPath1)" fill="rgb(0,0,139)" width="5" stroke-dasharray="none" height="5" stroke="none"/>
<line clip-path="url(#clipPath1)" fill="none" x1="554" x2="568" y1="57" y2="48" stroke-dasharray="none" stroke="rgb(0,0,139)"/>
<rect x="566" y="46" clip-path="url(#clipPath1)" fill="rgb(0,0,139)" width="5" stroke-dasharray="none" height="5" stroke="none"/>
<line clip-path="url(#clipPath1)" fill="none" x1="568" x2="581" y1="48" y2="39" stroke-dasharray="none" stroke="rgb(0,0,139)"/>
<rect x="579" y="37" clip-path="url(#clipPath1)" fill="rgb(0,0,139)" width="5" stroke-dasharray="none" height="5" stroke="none"/>
<circle clip-path="url(#clipPath1)" fill="rgb(238,0,0)" stroke-dasharray="none" r="2" cx="357" cy="393" stroke="none"/>
<line clip-path="url(#clipPath1)" fill="none" x1="357" x2="361" y1="393" y2="384" stroke-dasharray="none" stroke="rgb(238,0,0)"/>
<circle clip-path="url(#clipPath1)" fill="rgb(238,0,0)" stroke-dasharray="none" r="2" cx="361" cy="384" stroke="none"/>
<line clip-path="url(#clipPath1)" fill="none" x1="361" x2="376" y1="384" y2="375" stroke-dasharray="none" stroke="rgb(238,0,0)"/>
<circle clip-path="url(#clipPath1)" fill="rgb(238,0,0)" stroke-dasharray="none" r="2" cx="376" cy="375" stroke="none"/>
<line clip-path="url(#clipPath1)" fill="none" x1="376" x2="380" y1="375" y2="375" stroke-dasharray="none" stroke="rgb(238,0,0)"/>
<circle clip-path="url(#clipPath1)" fill="rgb(238,0,0)" stroke-dasharray="none" r="2" cx="380" cy="375" stroke="none"/>
<line clip-path="url(#clipPath1)" fill="none" x1="380" x2="390" y1="375" y2="366" stroke-dasharray="none" stroke="rgb(238,0,0)"/>
<circle clip-path="url(#clipPath1)" fill="rgb(238,0,0)" stroke-dasharray="none" r="2" cx="390" cy="366" stroke="none"/>
<line clip-path="url(#clipPath1)" fill="none" x1="390" x2="397" y1="366" y2="366" stroke-dasharray="none" stroke="rgb(238,0,0)"/>
<circle clip-path="url(#clipPath1)" fill="rgb(238,0,0)" stroke-dasharray="none" r="2" cx="397" cy="366" stroke="none"/>
<line clip-path="url(#clipPath1)" fill="none" x1="397" x2="406" y1="366" y2="357" stroke-dasharray="none" stroke="rgb(238,0,0)"/>
<circle clip-path="url(#clipPath1)" fill="rgb(238,0,0)" stroke-dasharray="none" r="2" cx="406" cy="357" stroke="none"/>
<line clip-path="url(#clipPath1)" fill="none" x1="406" x2="414" y1="357" y2="357" stroke-dasharray="none" stroke="rgb(238,0,0)"/>
<circle clip-path="url(#clipPath1)" fill="rgb(238,0,0)" stroke-dasharray="none" r="2" cx="414" cy="357" stroke="none"/>
<line clip-path="url(#clipPath1)" fill="none" x1="414" x2="423" y1="357" y2="348" stroke-dasharray="none" stroke="rgb(238,0,0)"/>
<circle clip-path="url(#clipPath1)" fill="rgb(238,0,0)" stroke-dasharray="none" r="2" cx="423" cy="348" stroke="none"/>
<line clip-path="url(#clipPath1)" fill="none" x1="423" x2="430" y1="348" y2="348" stroke-dasharray="none" stroke="rgb(238,0,0)"/>
<circle clip-path="url(#clipPath1)" fill="rgb(238,0,0)" stroke-dasharray="none" r="2" cx="430" cy="348" stroke="none"/>
<line clip-path="url(#clipPath1)" fill="none" x1="430" x2="440" y1="348" y2="339" stroke-dasharray="none" stroke="rgb(238,0,0)"/>
<circle clip-path="url(#clipPath1)" fill="rgb(238,0,0)" stroke-dasharray="none" r="2" cx="440" cy="339" stroke="none"/>
<line clip-path="url(#clipPath1)" fill="none" x1="440" x2="447" y1="339" y2="339" stroke-dasharray="none" stroke="rgb(238,0,0)"/>
<circle clip-path="url(#clipPath1)" fill="rgb(238,0,0)" stroke-dasharray="none" r="2" cx="447" cy="339" stroke="none"/>
<line clip-path="url(#clipPath1)" fill="none" x1="447" x2="461" y1="339" y2="330" stroke-dasharray="none" stroke="rgb(238,0,0)"/>
<circle clip-path="url(#clipPath1)" fill="rgb(238,0,0)" stroke-dasharray="none" r="2" cx="461" cy="330" stroke="none"/>
<line clip-path="url(#clipPath1)" fill="none" x1="461" x2="470" y1="330" y2="330" stroke-dasharray="none" stroke="rgb(238,0,0)"/>
<circle clip-path="url(#clipPath1)" fill="rgb(238,0,0)" stroke-dasharray="none" r="2" cx="470" cy="330" stroke="none"/>
<line clip-path="url(#clipPath1)" fill="none" x1="470" x2="480" y1="330" y2="320" stroke-dasharray="none" stroke="rgb(238,0,0)"/>
<circle clip-path="url(#clipPath1)" fill="rgb(238,0,0)" stroke-dasharray="none" r="2" cx="480" cy="320" stroke="none"/>
<line clip-path="url(#clipPath1)" fill="none" x1="480" x2="489" y1="320" y2="320" stroke-dasharray="none" stroke="rgb(238,0,0)"/>
<circle clip-path="url(#clipPath1)" fill="rgb(238,0,0)" stroke-dasharray="none" r="2" cx="489" cy="320" stroke="none"/>
<line clip-path="url(#clipPath1)" fill="none" x1="489" x2="497" y1="320" y2="311" stroke-dasharray="none" stroke="rgb(238,0,0)"/>
<circle clip-path="url(#clipPath1)" fill="rgb(238,0,0)" stroke-dasharray="none" r="2" cx="497" cy="311" stroke="none"/>
<line clip-path="url(#clipPath1)" fill="none" x1="497" x2="509" y1="311" y2="311" stroke-dasharray="none" stroke="rgb(238,0,0)"/>
<circle clip-path="url(#clipPath1)" fill="rgb(238,0,0)" stroke-dasharray="none" r="2" cx="509" cy="311" stroke="none"/>
<line clip-path="url(#clipPath1)" fill="none" x1="509" x2="518" y1="311" y2="302" stroke-dasharray="none" stroke="rgb(238,0,0)"/>
<circle clip-path="url(#clipPath1)" fill="rgb(238,0,0)" stroke-dasharray="none" r="2" cx="518" cy="302" stroke="none"/>
<line clip-path="url(#clipPath1)" fill="none" x1="518" x2="525" y1="302" y2="302" stroke-dasharray="none" stroke="rgb(238,0,0)"/>
<circle clip-path="url(#clipPath1)" fill="rgb(238,0,0)" stroke-dasharray="none" r="2" cx="525" cy="302" stroke="none"/>
<line clip-path="url(#clipPath1)" fill="none" x1="525" x2="535" y1="302" y2="293" stroke-dasharray="none" stroke="rgb(238,0,0)"/>
<circle clip-path="url(#clipPath1)" fill="rgb(238,0,0)" stroke-dasharray="none" r="2" cx="535" cy="293" stroke="none"/>
<line clip-path="url(#clipPath1)" fill="none" x1="535" x2="545" y1="293" y2="293" stroke-dasharray="none" stroke="rgb(238,0,0)"/>
<circle clip-path="url(#clipPath1)" fill="rgb(238,0,0)" stroke-dasharray="none" r="2" cx="545" cy="293" stroke="none"/>
<line clip-path="url(#clipPath1)" fill="none" x1="545" x2="561" y1="293" y2="284" stroke-dasharray="none" stroke="rgb(238,0,0)"/>
<circle clip-path="url(#clipPath1)" fill="rgb(238,0,0)" stroke-dasharray="none" r="2" cx="561" cy="284" stroke="none"/>
<line clip-path="url(#clipPath1)" fill="none" x1="561" x2="576" y1="284" y2="275" stroke-dasharray="none" stroke="rgb(238,0,0)"/>
<circle clip-path="url(#clipPath1)" fill="rgb(238,0,0)" stroke-dasharray="none" r="2" cx="576" cy="275" stroke="none"/>
<line clip-path="url(#clipPath1)" fill="none" x1="576" x2="584" y1="275" y2="266" stroke-dasharray="none" stroke="rgb(238,0,0)"/>
<circle clip-path="url(#clipPath1)" fill="rgb(238,0,0)" stroke-dasharray="none" r="2" cx="584" cy="266" stroke="none"/>
<line clip-path="url(#clipPath1)" fill="none" x1="584" x2="592" y1="266" y2="257" stroke-dasharray="none" stroke="rgb(238,0,0)"/>
<circle clip-path="url(#clipPath1)" fill="rgb(238,0,0)" stroke-dasharray="none" r="2" cx="592" cy="257" stroke="none"/>
<line clip-path="url(#clipPath1)" fill="none" x1="592" x2="602" y1="257" y2="248" stroke-dasharray="none" stroke="rgb(238,0,0)"/>
<circle clip-path="url(#clipPath1)" fill="rgb(238,0,0)" stroke-dasharray="none" r="2" cx="602" cy="248" stroke="none"/>
<line clip-path="url(#clipPath1)" fill="none" x1="602" x2="611" y1="248" y2="239" stroke-dasharray="none" stroke="rgb(238,0,0)"/>
<circle clip-path="url(#clipPath1)" fill="rgb(238,0,0)" stroke-dasharray="none" r="2" cx="611" cy="239" stroke="none"/>
<line clip-path="url(#clipPath1)" fill="none" x1="611" x2="620" y1="239" y2="230" stroke-dasharray="none" stroke="rgb(238,0,0)"/>
<circle clip-path="url(#clipPath1)" fill="rgb(238,0,0)" stroke-dasharray="none" r="2" cx="620" cy="230" stroke="none"/>
<line clip-path="url(#clipPath1)" fill="none" x1="620" x2="629" y1="230" y2="220" stroke-dasharray="none" stroke="rgb(238,0,0)"/>
<circle clip-path="url(#clipPath1)" fill="rgb(238,0,0)" stroke-dasharray="none" r="2" cx="629" cy="220" stroke="none"/>
<line clip-path="url(#clipPath1)" fill="none" x1="629" x2="639" y1="220" y2="211" stroke-dasharray="none" stroke="rgb(238,0,0)"/>
<circle clip-path="url(#clipPath1)" fill="rgb(238,0,0)" stroke-dasharray="none" r="2" cx="639" cy="211" stroke="none"/>
<line clip-path="url(#clipPath1)" fill="none" x1="639" x2="648" y1="211" y2="202" stroke-dasharray="none" stroke="rgb(238,0,0)"/>
<circle clip-path="url(#clipPath1)" fill="rgb(238,0,0)" stroke-dasharray="none" r="2" cx="648" cy="202" stroke="none"/>
<line clip-path="url(#clipPath1)" fill="none" x1="648" x2="657" y1="202" y2="193" stroke-dasharray="none" stroke="rgb(238,0,0)"/>
<circle clip-path="url(#clipPath1)" fill="rgb(238,0,0)" stroke-dasharray="none" r="2" cx="657" cy="193" stroke="none"/>
<line clip-path="url(#clipPath1)" fill="none" x1="657" x2="667" y1="193" y2="184" stroke-dasharray="none" stroke="rgb(238,0,0)"/>
<circle clip-path="url(#clipPath1)" fill="rgb(238,0,0)" stroke-dasharray="none" r="2" cx="667" cy="184" stroke="none"/>
<line clip-path="url(#clipPath1)" fill="none" x1="667" x2="676" y1="184" y2="175" stroke-dasharray="none" stroke="rgb(238,0,0)"/>
<circle clip-path="url(#clipPath1)" fill="rgb(238,0,0)" stroke-dasharray="none" r="2" cx="676" cy="175" stroke="none"/>
<line clip-path="url(#clipPath1)" fill="none" x1="676" x2="685" y1="175" y2="166" stroke-dasharray="none" stroke="rgb(238,0,0)"/>
<circle clip-path="url(#clipPath1)" fill="rgb(238,0,0)" stroke-dasharray="none" r="2" cx="685" cy="166" stroke="none"/>
<line clip-path="url(#clipPath1)" fill="none" x1="685" x2="695" y1="166" y2="157" stroke-dasharray="none" stroke="rgb(238,0,0)"/>
<circle clip-path="url(#clipPath1)" fill="rgb(238,0,0)" stroke-dasharray="none" r="2" cx="695" cy="157" stroke="none"/>
<line clip-path="url(#clipPath1)" fill="none" x1="695" x2="704" y1="157" y2="148" stroke-dasharray="none" stroke="rgb(238,0,0)"/>
<circle clip-path="url(#clipPath1)" fill="rgb(238,0,0)" stroke-dasharray="none" r="2" cx="704" cy="148" stroke="none"/>
<line clip-path="url(#clipPath1)" fill="none" x1="704" x2="714" y1="148" y2="139" stroke-dasharray="none" stroke="rgb(238,0,0)"/>
<circle clip-path="url(#clipPath1)" fill="rgb(238,0,0)" stroke-dasharray="none" r="2" cx="714" cy="139" stroke="none"/>
<line clip-path="url(#clipPath1)" fill="none" x1="714" x2="723" y1="139" y2="129" stroke-dasharray="none" stroke="rgb(238,0,0)"/>
<circle clip-path="url(#clipPath1)" fill="rgb(238,0,0)" stroke-dasharray="none" r="2" cx="723" cy="129" stroke="none"/>
<line clip-path="url(#clipPath1)" fill="none" x1="723" x2="732" y1="129" y2="120" stroke-dasharray="none" stroke="rgb(238,0,0)"/>
<circle clip-path="url(#clipPath1)" fill="rgb(238,0,0)" stroke-dasharray="none" r="2" cx="732" cy="120" stroke="none"/>
<line clip-path="url(#clipPath1)" fill="none" x1="732" x2="741" y1="120" y2="111" stroke-dasharray="none" stroke="rgb(238,0,0)"/>
<circle clip-path="url(#clipPath1)" fill="rgb(238,0,0)" stroke-dasharray="none" r="2" cx="741" cy="111" stroke="none"/>
<line clip-path="url(#clipPath1)" fill="none" x1="741" x2="750" y1="111" y2="102" stroke-dasharray="none" stroke="rgb(238,0,0)"/>
<circle clip-path="url(#clipPath1)" fill="rgb(238,0,0)" stroke-dasharray="none" r="2" cx="750" cy="102" stroke="none"/>
<line clip-path="url(#clipPath1)" fill="none" x1="750" x2="760" y1="102" y2="93" stroke-dasharray="none" stroke="rgb(238,0,0)"/>
<circle clip-path="url(#clipPath1)" fill="rgb(238,0,0)" stroke-dasharray="none" r="2" cx="760" cy="93" stroke="none"/>
<line clip-path="url(#clipPath1)" fill="none" x1="760" x2="769" y1="93" y2="84" stroke-dasharray="none" stroke="rgb(238,0,0)"/>
<circle clip-path="url(#clipPath1)" fill="rgb(238,0,0)" stroke-dasharray="none" r="2" cx="769" cy="84" stroke="none"/>
<line clip-path="url(#clipPath1)" fill="none" x1="769" x2="778" y1="84" y2="75" stroke-dasharray="none" stroke="rgb(238,0,0)"/>
<circle clip-path="url(#clipPath1)" fill="rgb(238,0,0)" stroke-dasharray="none" r="2" cx="778" cy="75" stroke="none"/>
<line clip-path="url(#clipPath1)" fill="none" x1="778" x2="787" y1="75" y2="66" stroke-dasharray="none" stroke="rgb(238,0,0)"/>
<circle clip-path="url(#clipPath1)" fill="rgb(238,0,0)" stroke-dasharray="none" r="2" cx="787" cy="66" stroke="none"/>
<line clip-path="url(#clipPath1)" fill="none" x1="787" x2="797" y1="66" y2="57" stroke-dasharray="none" stroke="rgb(238,0,0)"/>
<circle clip-path="url(#clipPath1)" fill="rgb(238,0,0)" stroke-dasharray="none" r="2" cx="797" cy="57" stroke="none"/>
<line clip-path="url(#clipPath1)" fill="none" x1="797" x2="806" y1="57" y2="48" stroke-dasharray="none" stroke="rgb(238,0,0)"/>
<circle clip-path="url(#clipPath1)" fill="rgb(238,0,0)" stroke-dasharray="none" r="2" cx="806" cy="48" stroke="none"/>
<line clip-path="url(#clipPath1)" fill="none" x1="806" x2="815" y1="48" y2="39" stroke-dasharray="none" stroke="rgb(238,0,0)"/>
<circle clip-path="url(#clipPath1)" fill="rgb(238,0,0)" stroke-dasharray="none" r="2" cx="815" cy="39" stroke="none"/>
<rect x="26" y="39" clip-path="url(#clipPath2)" fill="none" width="799" stroke-dasharray="none" height="473" stroke="black"/>
</g>
<g text-rendering="geometricPrecision" font-size="13" stroke-linecap="butt">
<text xml:space="preserve" x="370" y="13" clip-path="url(#clipPath2)" stroke="none">Remaining Chunks</text>
<line clip-path="url(#clipPath2)" fill="none" x1="26" x2="825" y1="37" y2="37"/>
<line clip-path="url(#clipPath2)" fill="none" x1="26" x2="825" y1="514" y2="514"/>
<line clip-path="url(#clipPath2)" fill="none" x1="26" x2="26" y1="33" y2="37"/>
<line clip-path="url(#clipPath2)" fill="none" x1="26" x2="26" y1="518" y2="514"/>
<text font-size="11" x="17" y="30" clip-path="url(#clipPath2)" stroke="none" xml:space="preserve">0.00</text>
<text font-size="11" x="17" y="530" clip-path="url(#clipPath2)" stroke="none" xml:space="preserve">0.00</text>
<line clip-path="url(#clipPath2)" fill="none" x1="36" x2="36" y1="35" y2="37"/>
<line clip-path="url(#clipPath2)" fill="none" x1="36" x2="36" y1="516" y2="514"/>
<line clip-path="url(#clipPath2)" fill="none" x1="46" x2="46" y1="35" y2="37"/>
<line clip-path="url(#clipPath2)" fill="none" x1="46" x2="46" y1="516" y2="514"/>
<line clip-path="url(#clipPath2)" fill="none" x1="56" x2="56" y1="35" y2="37"/>
<line clip-path="url(#clipPath2)" fill="none" x1="56" x2="56" y1="516" y2="514"/>
<line clip-path="url(#clipPath2)" fill="none" x1="67" x2="67" y1="35" y2="37"/>
<line clip-path="url(#clipPath2)" fill="none" x1="67" x2="67" y1="516" y2="514"/>
<line clip-path="url(#clipPath2)" fill="none" x1="77" x2="77" y1="33" y2="37"/>
<line clip-path="url(#clipPath2)" fill="none" x1="77" x2="77" y1="518" y2="514"/>
<text font-size="11" x="66" y="30" clip-path="url(#clipPath2)" stroke="none" xml:space="preserve">0.010</text>
<text font-size="11" x="66" y="530" clip-path="url(#clipPath2)" stroke="none" xml:space="preserve">0.010</text>
<line clip-path="url(#clipPath2)" fill="none" x1="87" x2="87" y1="35" y2="37"/>
<line clip-path="url(#clipPath2)" fill="none" x1="87" x2="87" y1="516" y2="514"/>
<line clip-path="url(#clipPath2)" fill="none" x1="97" x2="97" y1="35" y2="37"/>
<line clip-path="url(#clipPath2)" fill="none" x1="97" x2="97" y1="516" y2="514"/>
<line clip-path="url(#clipPath2)" fill="none" x1="108" x2="108" y1="35" y2="37"/>
<line clip-path="url(#clipPath2)" fill="none" x1="108" x2="108" y1="516" y2="514"/>
<line clip-path="url(#clipPath2)" fill="none" x1="118" x2="118" y1="35" y2="37"/>
<line clip-path="url(#clipPath2)" fill="none" x1="118" x2="118" y1="516" y2="514"/>
<line clip-path="url(#clipPath2)" fill="none" x1="128" x2="128" y1="33" y2="37"/>
<line clip-path="url(#clipPath2)" fill="none" x1="128" x2="128" y1="518" y2="514"/>
<text font-size="11" x="117" y="30" clip-path="url(#clipPath2)" stroke="none" xml:space="preserve">0.020</text>
<text font-size="11" x="117" y="530" clip-path="url(#clipPath2)" stroke="none" xml:space="preserve">0.020</text>
<line clip-path="url(#clipPath2)" fill="none" x1="139" x2="139" y1="35" y2="37"/>
<line clip-path="url(#clipPath2)" fill="none" x1="139" x2="139" y1="516" y2="514"/>
<line clip-path="url(#clipPath2)" fill="none" x1="149" x2="149" y1="35" y2="37"/>
<line clip-path="url(#clipPath2)" fill="none" x1="149" x2="149" y1="516" y2="514"/>
<line clip-path="url(#clipPath2)" fill="none" x1="159" x2="159" y1="35" y2="37"/>
<line clip-path="url(#clipPath2)" fill="none" x1="159" x2="159" y1="516" y2="514"/>
<line clip-path="url(#clipPath2)" fill="none" x1="169" x2="169" y1="35" y2="37"/>
<line clip-path="url(#clipPath2)" fill="none" x1="169" x2="169" y1="516" y2="514"/>
<line clip-path="url(#clipPath2)" fill="none" x1="180" x2="180" y1="33" y2="37"/>
<line clip-path="url(#clipPath2)" fill="none" x1="180" x2="180" y1="518" y2="514"/>
<text font-size="11" x="169" y="30" clip-path="url(#clipPath2)" stroke="none" xml:space="preserve">0.030</text>
<text font-size="11" x="169" y="530" clip-path="url(#clipPath2)" stroke="none" xml:space="preserve">0.030</text>
<line clip-path="url(#clipPath2)" fill="none" x1="190" x2="190" y1="35" y2="37"/>
<line clip-path="url(#clipPath2)" fill="none" x1="190" x2="190" y1="516" y2="514"/>
<line clip-path="url(#clipPath2)" fill="none" x1="200" x2="200" y1="35" y2="37"/>
<line clip-path="url(#clipPath2)" fill="none" x1="200" x2="200" y1="516" y2="514"/>
<line clip-path="url(#clipPath2)" fill="none" x1="211" x2="211" y1="35" y2="37"/>
<line clip-path="url(#clipPath2)" fill="none" x1="211" x2="211" y1="516" y2="514"/>
<line clip-path="url(#clipPath2)" fill="none" x1="221" x2="221" y1="35" y2="37"/>
<line clip-path="url(#clipPath2)" fill="none" x1="221" x2="221" y1="516" y2="514"/>
<line clip-path="url(#clipPath2)" fill="none" x1="231" x2="231" y1="33" y2="37"/>
<line clip-path="url(#clipPath2)" fill="none" x1="231" x2="231" y1="518" y2="514"/>
<text font-size="11" x="220" y="30" clip-path="url(#clipPath2)" stroke="none" xml:space="preserve">0.040</text>
<text font-size="11" x="220" y="530" clip-path="url(#clipPath2)" stroke="none" xml:space="preserve">0.040</text>
<line clip-path="url(#clipPath2)" fill="none" x1="241" x2="241" y1="35" y2="37"/>
<line clip-path="url(#clipPath2)" fill="none" x1="241" x2="241" y1="516" y2="514"/>
<line clip-path="url(#clipPath2)" fill="none" x1="252" x2="252" y1="35" y2="37"/>
<line clip-path="url(#clipPath2)" fill="none" x1="252" x2="252" y1="516" y2="514"/>
<line clip-path="url(#clipPath2)" fill="none" x1="262" x2="262" y1="35" y2="37"/>
<line clip-path="url(#clipPath2)" fill="none" x1="262" x2="262" y1="516" y2="514"/>
<line clip-path="url(#clipPath2)" fill="none" x1="272" x2="272" y1="35" y2="37"/>
<line clip-path="url(#clipPath2)" fill="none" x1="272" x2="272" y1="516" y2="514"/>
<line clip-path="url(#clipPath2)" fill="none" x1="282" x2="282" y1="33" y2="37"/>
<line clip-path="url(#clipPath2)" fill="none" x1="282" x2="282" y1="518" y2="514"/>
<text font-size="11" x="271" y="30" clip-path="url(#clipPath2)" stroke="none" xml:space="preserve">0.050</text>
<text font-size="11" x="271" y="530" clip-path="url(#clipPath2)" stroke="none" xml:space="preserve">0.050</text>
<line clip-path="url(#clipPath2)" fill="none" x1="293" x2="293" y1="35" y2="37"/>
<line clip-path="url(#clipPath2)" fill="none" x1="293" x2="293" y1="516" y2="514"/>
<line clip-path="url(#clipPath2)" fill="none" x1="303" x2="303" y1="35" y2="37"/>
<line clip-path="url(#clipPath2)" fill="none" x1="303" x2="303" y1="516" y2="514"/>
<line clip-path="url(#clipPath2)" fill="none" x1="313" x2="313" y1="35" y2="37"/>
<line clip-path="url(#clipPath2)" fill="none" x1="313" x2="313" y1="516" y2="514"/>
<line clip-path="url(#clipPath2)" fill="none" x1="324" x2="324" y1="35" y2="37"/>
<line clip-path="url(#clipPath2)" fill="none" x1="324" x2="324" y1="516" y2="514"/>
<line clip-path="url(#clipPath2)" fill="none" x1="334" x2="334" y1="33" y2="37"/>
<line clip-path="url(#clipPath2)" fill="none" x1="334" x2="334" y1="518" y2="514"/>
<text font-size="11" x="323" y="30" clip-path="url(#clipPath2)" stroke="none" xml:space="preserve">0.060</text>
<text font-size="11" x="323" y="530" clip-path="url(#clipPath2)" stroke="none" xml:space="preserve">0.060</text>
<line clip-path="url(#clipPath2)" fill="none" x1="344" x2="344" y1="35" y2="37"/>
<line clip-path="url(#clipPath2)" fill="none" x1="344" x2="344" y1="516" y2="514"/>
<line clip-path="url(#clipPath2)" fill="none" x1="354" x2="354" y1="35" y2="37"/>
<line clip-path="url(#clipPath2)" fill="none" x1="354" x2="354" y1="516" y2="514"/>
<line clip-path="url(#clipPath2)" fill="none" x1="365" x2="365" y1="35" y2="37"/>
<line clip-path="url(#clipPath2)" fill="none" x1="365" x2="365" y1="516" y2="514"/>
<line clip-path="url(#clipPath2)" fill="none" x1="375" x2="375" y1="35" y2="37"/>
<line clip-path="url(#clipPath2)" fill="none" x1="375" x2="375" y1="516" y2="514"/>
<line clip-path="url(#clipPath2)" fill="none" x1="385" x2="385" y1="33" y2="37"/>
<line clip-path="url(#clipPath2)" fill="none" x1="385" x2="385" y1="518" y2="514"/>
<text font-size="11" x="374" y="30" clip-path="url(#clipPath2)" stroke="none" xml:space="preserve">0.070</text>
<text font-size="11" x="374" y="530" clip-path="url(#clipPath2)" stroke="none" xml:space="preserve">0.070</text>
<line clip-path="url(#clipPath2)" fill="none" x1="396" x2="396" y1="35" y2="37"/>
<line clip-path="url(#clipPath2)" fill="none" x1="396" x2="396" y1="516" y2="514"/>
<line clip-path="url(#clipPath2)" fill="none" x1="406" x2="406" y1="35" y2="37"/>
<line clip-path="url(#clipPath2)" fill="none" x1="406" x2="406" y1="516" y2="514"/>
<line clip-path="url(#clipPath2)" fill="none" x1="416" x2="416" y1="35" y2="37"/>
<line clip-path="url(#clipPath2)" fill="none" x1="416" x2="416" y1="516" y2="514"/>
<line clip-path="url(#clipPath2)" fill="none" x1="426" x2="426" y1="35" y2="37"/>
<line clip-path="url(#clipPath2)" fill="none" x1="426" x2="426" y1="516" y2="514"/>
<line clip-path="url(#clipPath2)" fill="none" x1="437" x2="437" y1="33" y2="37"/>
<line clip-path="url(#clipPath2)" fill="none" x1="437" x2="437" y1="518" y2="514"/>
<text font-size="11" x="426" y="30" clip-path="url(#clipPath2)" stroke="none" xml:space="preserve">0.080</text>
<text font-size="11" x="426" y="530" clip-path="url(#clipPath2)" stroke="none" xml:space="preserve">0.080</text>
<line clip-path="url(#clipPath2)" fill="none" x1="447" x2="447" y1="35" y2="37"/>
<line clip-path="url(#clipPath2)" fill="none" x1="447" x2="447" y1="516" y2="514"/>
<line clip-path="url(#clipPath2)" fill="none" x1="457" x2="457" y1="35" y2="37"/>
<line clip-path="url(#clipPath2)" fill="none" x1="457" x2="457" y1="516" y2="514"/>
<line clip-path="url(#clipPath2)" fill="none" x1="468" x2="468" y1="35" y2="37"/>
<line clip-path="url(#clipPath2)" fill="none" x1="468" x2="468" y1="516" y2="514"/>
<line clip-path="url(#clipPath2)" fill="none" x1="478" x2="478" y1="35" y2="37"/>
<line clip-path="url(#clipPath2)" fill="none" x1="478" x2="478" y1="516" y2="514"/>
<line clip-path="url(#clipPath2)" fill="none" x1="488" x2="488" y1="33" y2="37"/>
<line clip-path="url(#clipPath2)" fill="none" x1="488" x2="488" y1="518" y2="514"/>
<text font-size="11" x="477" y="30" clip-path="url(#clipPath2)" stroke="none" xml:space="preserve">0.090</text>
<text font-size="11" x="477" y="530" clip-path="url(#clipPath2)" stroke="none" xml:space="preserve">0.090</text>
<line clip-path="url(#clipPath2)" fill="none" x1="498" x2="498" y1="35" y2="37"/>
<line clip-path="url(#clipPath2)" fill="none" x1="498" x2="498" y1="516" y2="514"/>
<line clip-path="url(#clipPath2)" fill="none" x1="509" x2="509" y1="35" y2="37"/>
<line clip-path="url(#clipPath2)" fill="none" x1="509" x2="509" y1="516" y2="514"/>
<line clip-path="url(#clipPath2)" fill="none" x1="519" x2="519" y1="35" y2="37"/>
<line clip-path="url(#clipPath2)" fill="none" x1="519" x2="519" y1="516" y2="514"/>
<line clip-path="url(#clipPath2)" fill="none" x1="529" x2="529" y1="35" y2="37"/>
<line clip-path="url(#clipPath2)" fill="none" x1="529" x2="529" y1="516" y2="514"/>
<line clip-path="url(#clipPath2)" fill="none" x1="539" x2="539" y1="33" y2="37"/>
<line clip-path="url(#clipPath2)" fill="none" x1="539" x2="539" y1="518" y2="514"/>
<text font-size="11" x="528" y="30" clip-path="url(#clipPath2)" stroke="none" xml:space="preserve">0.100</text>
<text font-size="11" x="528" y="530" clip-path="url(#clipPath2)" stroke="none" xml:space="preserve">0.100</text>
<line clip-path="url(#clipPath2)" fill="none" x1="550" x2="550" y1="35" y2="37"/>
<line clip-path="url(#clipPath2)" fill="none" x1="550" x2="550" y1="516" y2="514"/>
<line clip-path="url(#clipPath2)" fill="none" x1="560" x2="560" y1="35" y2="37"/>
<line clip-path="url(#clipPath2)" fill="none" x1="560" x2="560" y1="516" y2="514"/>
<line clip-path="url(#clipPath2)" fill="none" x1="570" x2="570" y1="35" y2="37"/>
<line clip-path="url(#clipPath2)" fill="none" x1="570" x2="570" y1="516" y2="514"/>
<line clip-path="url(#clipPath2)" fill="none" x1="581" x2="581" y1="35" y2="37"/>
<line clip-path="url(#clipPath2)" fill="none" x1="581" x2="581" y1="516" y2="514"/>
<line clip-path="url(#clipPath2)" fill="none" x1="591" x2="591" y1="33" y2="37"/>
<line clip-path="url(#clipPath2)" fill="none" x1="591" x2="591" y1="518" y2="514"/>
<text font-size="11" x="580" y="30" clip-path="url(#clipPath2)" stroke="none" xml:space="preserve">0.110</text>
<text font-size="11" x="580" y="530" clip-path="url(#clipPath2)" stroke="none" xml:space="preserve">0.110</text>
<line clip-path="url(#clipPath2)" fill="none" x1="601" x2="601" y1="35" y2="37"/>
<line clip-path="url(#clipPath2)" fill="none" x1="601" x2="601" y1="516" y2="514"/>
<line clip-path="url(#clipPath2)" fill="none" x1="611" x2="611" y1="35" y2="37"/>
<line clip-path="url(#clipPath2)" fill="none" x1="611" x2="611" y1="516" y2="514"/>
<line clip-path="url(#clipPath2)" fill="none" x1="622" x2="622" y1="35" y2="37"/>
<line clip-path="url(#clipPath2)" fill="none" x1="622" x2="622" y1="516" y2="514"/>
<line clip-path="url(#clipPath2)" fill="none" x1="632" x2="632" y1="35" y2="37"/>
<line clip-path="url(#clipPath2)" fill="none" x1="632" x2="632" y1="516" y2="514"/>
<line clip-path="url(#clipPath2)" fill="none" x1="642" x2="642" y1="33" y2="37"/>
<line clip-path="url(#clipPath2)" fill="none" x1="642" x2="642" y1="518" y2="514"/>
<text font-size="11" x="631" y="30" clip-path="url(#clipPath2)" stroke="none" xml:space="preserve">0.120</text>
<text font-size="11" x="631" y="530" clip-path="url(#clipPath2)" stroke="none" xml:space="preserve">0.120</text>
<line clip-path="url(#clipPath2)" fill="none" x1="653" x2="653" y1="35" y2="37"/>
<line clip-path="url(#clipPath2)" fill="none" x1="653" x2="653" y1="516" y2="514"/>
<line clip-path="url(#clipPath2)" fill="none" x1="663" x2="663" y1="35" y2="37"/>
<line clip-path="url(#clipPath2)" fill="none" x1="663" x2="663" y1="516" y2="514"/>
<line clip-path="url(#clipPath2)" fill="none" x1="673" x2="673" y1="35" y2="37"/>
<line clip-path="url(#clipPath2)" fill="none" x1="673" x2="673" y1="516" y2="514"/>
<line clip-path="url(#clipPath2)" fill="none" x1="683" x2="683" y1="35" y2="37"/>
<line clip-path="url(#clipPath2)" fill="none" x1="683" x2="683" y1="516" y2="514"/>
<line clip-path="url(#clipPath2)" fill="none" x1="694" x2="694" y1="33" y2="37"/>
<line clip-path="url(#clipPath2)" fill="none" x1="694" x2="694" y1="518" y2="514"/>
<text font-size="11" x="683" y="30" clip-path="url(#clipPath2)" stroke="none" xml:space="preserve">0.130</text>
<text font-size="11" x="683" y="530" clip-path="url(#clipPath2)" stroke="none" xml:space="preserve">0.130</text>
<line clip-path="url(#clipPath2)" fill="none" x1="704" x2="704" y1="35" y2="37"/>
<line clip-path="url(#clipPath2)" fill="none" x1="704" x2="704" y1="516" y2="514"/>
<line clip-path="url(#clipPath2)" fill="none" x1="714" x2="714" y1="35" y2="37"/>
<line clip-path="url(#clipPath2)" fill="none" x1="714" x2="714" y1="516" y2="514"/>
<line clip-path="url(#clipPath2)" fill="none" x1="725" x2="725" y1="35" y2="37"/>
<line clip-path="url(#clipPath2)" fill="none" x1="725" x2="725" y1="516" y2="514"/>
<line clip-path="url(#clipPath2)" fill="none" x1="735" x2="735" y1="35" y2="37"/>
<line clip-path="url(#clipPath2)" fill="none" x1="735" x2="735" y1="516" y2="514"/>
<line clip-path="url(#clipPath2)" fill="none" x1="745" x2="745" y1="33" y2="37"/>
<line clip-path="url(#clipPath2)" fill="none" x1="745" x2="745" y1="518" y2="514"/>
<text font-size="11" x="734" y="30" clip-path="url(#clipPath2)" stroke="none" xml:space="preserve">0.140</text>
<text font-size="11" x="734" y="530" clip-path="url(#clipPath2)" stroke="none" xml:space="preserve">0.140</text>
<line clip-path="url(#clipPath2)" fill="none" x1="755" x2="755" y1="35" y2="37"/>
<line clip-path="url(#clipPath2)" fill="none" x1="755" x2="755" y1="516" y2="514"/>
<line clip-path="url(#clipPath2)" fill="none" x1="766" x2="766" y1="35" y2="37"/>
<line clip-path="url(#clipPath2)" fill="none" x1="766" x2="766" y1="516" y2="514"/>
<line clip-path="url(#clipPath2)" fill="none" x1="776" x2="776" y1="35" y2="37"/>
<line clip-path="url(#clipPath2)" fill="none" x1="776" x2="776" y1="516" y2="514"/>
<line clip-path="url(#clipPath2)" fill="none" x1="786" x2="786" y1="35" y2="37"/>
<line clip-path="url(#clipPath2)" fill="none" x1="786" x2="786" y1="516" y2="514"/>
<line clip-path="url(#clipPath2)" fill="none" x1="796" x2="796" y1="33" y2="37"/>
<line clip-path="url(#clipPath2)" fill="none" x1="796" x2="796" y1="518" y2="514"/>
<text font-size="11" x="785" y="30" clip-path="url(#clipPath2)" stroke="none" xml:space="preserve">0.150</text>
<text font-size="11" x="785" y="530" clip-path="url(#clipPath2)" stroke="none" xml:space="preserve">0.150</text>
<line clip-path="url(#clipPath2)" fill="none" x1="807" x2="807" y1="35" y2="37"/>
<line clip-path="url(#clipPath2)" fill="none" x1="807" x2="807" y1="516" y2="514"/>
<line clip-path="url(#clipPath2)" fill="none" x1="817" x2="817" y1="35" y2="37"/>
<line clip-path="url(#clipPath2)" fill="none" x1="817" x2="817" y1="516" y2="514"/>
<line clip-path="url(#clipPath2)" fill="none" x1="24" x2="24" y1="39" y2="512"/>
<line clip-path="url(#clipPath2)" fill="none" x1="827" x2="827" y1="39" y2="512"/>
<line clip-path="url(#clipPath2)" fill="none" x1="22" x2="24" y1="512" y2="512"/>
<line clip-path="url(#clipPath2)" fill="none" x1="829" x2="827" y1="512" y2="512"/>
<line clip-path="url(#clipPath2)" fill="none" x1="20" x2="24" y1="493" y2="493"/>
<line clip-path="url(#clipPath2)" fill="none" x1="831" x2="827" y1="493" y2="493"/>
<text font-size="11" x="4" y="498" clip-path="url(#clipPath2)" stroke="none" xml:space="preserve">-50</text>
<text font-size="11" x="834" y="498" clip-path="url(#clipPath2)" stroke="none" xml:space="preserve">-50</text>
<line clip-path="url(#clipPath2)" fill="none" x1="22" x2="24" y1="475" y2="475"/>
<line clip-path="url(#clipPath2)" fill="none" x1="829" x2="827" y1="475" y2="475"/>
<line clip-path="url(#clipPath2)" fill="none" x1="22" x2="24" y1="457" y2="457"/>
<line clip-path="url(#clipPath2)" fill="none" x1="829" x2="827" y1="457" y2="457"/>
<line clip-path="url(#clipPath2)" fill="none" x1="22" x2="24" y1="439" y2="439"/>
<line clip-path="url(#clipPath2)" fill="none" x1="829" x2="827" y1="439" y2="439"/>
<line clip-path="url(#clipPath2)" fill="none" x1="22" x2="24" y1="421" y2="421"/>
<line clip-path="url(#clipPath2)" fill="none" x1="829" x2="827" y1="421" y2="421"/>
<line clip-path="url(#clipPath2)" fill="none" x1="20" x2="24" y1="402" y2="402"/>
<line clip-path="url(#clipPath2)" fill="none" x1="831" x2="827" y1="402" y2="402"/>
<text font-size="11" x="4" y="407" clip-path="url(#clipPath2)" stroke="none" xml:space="preserve">-40</text>
<text font-size="11" x="834" y="407" clip-path="url(#clipPath2)" stroke="none" xml:space="preserve">-40</text>
<line clip-path="url(#clipPath2)" fill="none" x1="22" x2="24" y1="384" y2="384"/>
<line clip-path="url(#clipPath2)" fill="none" x1="829" x2="827" y1="384" y2="384"/>
<line clip-path="url(#clipPath2)" fill="none" x1="22" x2="24" y1="366" y2="366"/>
<line clip-path="url(#clipPath2)" fill="none" x1="829" x2="827" y1="366" y2="366"/>
<line clip-path="url(#clipPath2)" fill="none" x1="22" x2="24" y1="348" y2="348"/>
<line clip-path="url(#clipPath2)" fill="none" x1="829" x2="827" y1="348" y2="348"/>
<line clip-path="url(#clipPath2)" fill="none" x1="22" x2="24" y1="330" y2="330"/>
<line clip-path="url(#clipPath2)" fill="none" x1="829" x2="827" y1="330" y2="330"/>
<line clip-path="url(#clipPath2)" fill="none" x1="20" x2="24" y1="311" y2="311"/>
<line clip-path="url(#clipPath2)" fill="none" x1="831" x2="827" y1="311" y2="311"/>
<text font-size="11" x="4" y="316" clip-path="url(#clipPath2)" stroke="none" xml:space="preserve">-30</text>
<text font-size="11" x="834" y="316" clip-path="url(#clipPath2)" stroke="none" xml:space="preserve">-30</text>
<line clip-path="url(#clipPath2)" fill="none" x1="22" x2="24" y1="293" y2="293"/>
<line clip-path="url(#clipPath2)" fill="none" x1="829" x2="827" y1="293" y2="293"/>
<line clip-path="url(#clipPath2)" fill="none" x1="22" x2="24" y1="275" y2="275"/>
<line clip-path="url(#clipPath2)" fill="none" x1="829" x2="827" y1="275" y2="275"/>
<line clip-path="url(#clipPath2)" fill="none" x1="22" x2="24" y1="257" y2="257"/>
<line clip-path="url(#clipPath2)" fill="none" x1="829" x2="827" y1="257" y2="257"/>
<line clip-path="url(#clipPath2)" fill="none" x1="22" x2="24" y1="239" y2="239"/>
<line clip-path="url(#clipPath2)" fill="none" x1="829" x2="827" y1="239" y2="239"/>
<line clip-path="url(#clipPath2)" fill="none" x1="20" x2="24" y1="220" y2="220"/>
<line clip-path="url(#clipPath2)" fill="none" x1="831" x2="827" y1="220" y2="220"/>
<text font-size="11" x="4" y="225" clip-path="url(#clipPath2)" stroke="none" xml:space="preserve">-20</text>
<text font-size="11" x="834" y="225" clip-path="url(#clipPath2)" stroke="none" xml:space="preserve">-20</text>
<line clip-path="url(#clipPath2)" fill="none" x1="22" x2="24" y1="202" y2="202"/>
<line clip-path="url(#clipPath2)" fill="none" x1="829" x2="827" y1="202" y2="202"/>
<line clip-path="url(#clipPath2)" fill="none" x1="22" x2="24" y1="184" y2="184"/>
<line clip-path="url(#clipPath2)" fill="none" x1="829" x2="827" y1="184" y2="184"/>
<line clip-path="url(#clipPath2)" fill="none" x1="22" x2="24" y1="166" y2="166"/>
<line clip-path="url(#clipPath2)" fill="none" x1="829" x2="827" y1="166" y2="166"/>
<line clip-path="url(#clipPath2)" fill="none" x1="22" x2="24" y1="148" y2="148"/>
<line clip-path="url(#clipPath2)" fill="none" x1="829" x2="827" y1="148" y2="148"/>
<line clip-path="url(#clipPath2)" fill="none" x1="20" x2="24" y1="129" y2="129"/>
<line clip-path="url(#clipPath2)" fill="none" x1="831" x2="827" y1="129" y2="129"/>
<text font-size="11" x="4" y="134" clip-path="url(#clipPath2)" stroke="none" xml:space="preserve">-10</text>
<text font-size="11" x="834" y="134" clip-path="url(#clipPath2)" stroke="none" xml:space="preserve">-10</text>
<line clip-path="url(#clipPath2)" fill="none" x1="22" x2="24" y1="111" y2="111"/>
<line clip-path="url(#clipPath2)" fill="none" x1="829" x2="827" y1="111" y2="111"/>
<line clip-path="url(#clipPath2)" fill="none" x1="22" x2="24" y1="93" y2="93"/>
<line clip-path="url(#clipPath2)" fill="none" x1="829" x2="827" y1="93" y2="93"/>
<line clip-path="url(#clipPath2)" fill="none" x1="22" x2="24" y1="75" y2="75"/>
<line clip-path="url(#clipPath2)" fill="none" x1="829" x2="827" y1="75" y2="75"/>
<line clip-path="url(#clipPath2)" fill="none" x1="22" x2="24" y1="57" y2="57"/>
<line clip-path="url(#clipPath2)" fill="none" x1="829" x2="827" y1="57" y2="57"/>
</g>
</g>
</svg>
