<?xml version="1.0" encoding="UTF-8"?><svg xmlns="http://www.w3.org/2000/svg" xmlns:xlink="http://www.w3.org/1999/xlink" stroke-dasharray="none" shape-rendering="auto" font-family="'Dialog'" width="851" text-rendering="auto" fill-opacity="1" contentScriptType="text/ecmascript" color-interpolation="auto" color-rendering="auto" preserveAspectRatio="xMidYMid meet" font-size="12" fill="black" stroke="black" image-rendering="auto" stroke-miterlimit="10" zoomAndPan="magnify" version="1.0" stroke-linecap="square" stroke-linejoin="miter" contentStyleType="text/css" font-style="normal" height="535" stroke-width="1" stroke-dashoffset="0" font-weight="normal" stroke-opacity="1">
<!--Generated by the Batik Graphics2D SVG Generator-->
<defs id="genericDefs"/>
<g>
<defs id="defs1">
<clipPath clipPathUnits="userSpaceOnUse" id="clipPath1">
<path d="M25 38 L826 38 L826 513 L25 513 L25 38 Z"/>
</clipPath>
<clipPath clipPathUnits="userSpaceOnUse" id="clipPath2">
<path d="M-1 -1 L852 -1 L852 536 L-1 536 L-1 -1 Z"/>
</clipPath>
</defs>
<g font-size="15" fill="white" text-rendering="geometricPrecision" font-family="'Ubuntu'" stroke-linejoin="round" stroke="white" stroke-width="0" stroke-miterlimit="0">
<rect x="26" y="39" clip-path="url(#clipPath1)" width="799" height="473" stroke="none"/>
</g>
<g font-size="15" stroke-linecap="butt" fill="rgb(204,204,204)" text-rendering="geometricPrecision" font-family="'Ubuntu'" stroke-dasharray="3,3" stroke="rgb(204,204,204)">
<line clip-path="url(#clipPath1)" fill="none" x1="26" x2="26" y1="39" y2="512"/>
<line clip-path="url(#clipPath1)" fill="none" x1="88" x2="88" y1="39" y2="512"/>
<line clip-path="url(#clipPath1)" fill="none" x1="150" x2="150" y1="39" y2="512"/>
<line clip-path="url(#clipPath1)" fill="none" x1="212" x2="212" y1="39" y2="512"/>
<line clip-path="url(#clipPath1)" fill="none" x1="274" x2="274" y1="39" y2="512"/>
<line clip-path="url(#clipPath1)" fill="none" x1="337" x2="337" y1="39" y2="512"/>
<line clip-path="url(#clipPath1)" fill="none" x1="399" x2="399" y1="39" y2="512"/>
<line clip-path="url(#clipPath1)" fill="none" x1="461" x2="461" y1="39" y2="512"/>
<line clip-path="url(#clipPath1)" fill="none" x1="523" x2="523" y1="39" y2="512"/>
<line clip-path="url(#clipPath1)" fill="none" x1="586" x2="586" y1="39" y2="512"/>
<line clip-path="url(#clipPath1)" fill="none" x1="648" x2="648" y1="39" y2="512"/>
<line clip-path="url(#clipPath1)" fill="none" x1="710" x2="710" y1="39" y2="512"/>
<line clip-path="url(#clipPath1)" fill="none" x1="772" x2="772" y1="39" y2="512"/>
<line clip-path="url(#clipPath1)" fill="none" x1="26" x2="825" y1="512" y2="512"/>
<line clip-path="url(#clipPath1)" fill="none" x1="26" x2="825" y1="423" y2="423"/>
<line clip-path="url(#clipPath1)" fill="none" x1="26" x2="825" y1="334" y2="334"/>
<line clip-path="url(#clipPath1)" fill="none" x1="26" x2="825" y1="245" y2="245"/>
<line clip-path="url(#clipPath1)" fill="none" x1="26" x2="825" y1="157" y2="157"/>
<line clip-path="url(#clipPath1)" fill="none" x1="26" x2="825" y1="68" y2="68"/>
<rect x="24" y="492" clip-path="url(#clipPath1)" fill="rgb(0,0,139)" width="5" height="5" stroke="none"/>
<line clip-path="url(#clipPath1)" fill="none" x1="26" x2="29" y1="494" y2="476" stroke-dasharray="none" stroke="rgb(0,0,139)"/>
<rect x="27" y="474" clip-path="url(#clipPath1)" fill="rgb(0,0,139)" width="5" stroke-dasharray="none" height="5" stroke="none"/>
<circle clip-path="url(#clipPath1)" fill="rgb(238,0,0)" stroke-dasharray="none" r="2" cx="26" cy="494" stroke="none"/>
<line clip-path="url(#clipPath1)" fill="none" x1="26" x2="29" y1="494" y2="476" stroke-dasharray="none" stroke="rgb(238,0,0)"/>
<circle clip-path="url(#clipPath1)" fill="rgb(238,0,0)" stroke-dasharray="none" r="2" cx="29" cy="476" stroke="none"/>
<line clip-path="url(#clipPath1)" fill="none" x1="29" x2="30" y1="476" y2="458" stroke-dasharray="none" stroke="rgb(238,0,0)"/>
<circle clip-path="url(#clipPath1)" fill="rgb(238,0,0)" stroke-dasharray="none" r="2" cx="30" cy="458" stroke="none"/>
<polygon fill="rgb(0,100,0)" stroke-dasharray="none" clip-path="url(#clipPath1)" points=" 26 491 29 496 23 496 26 491" stroke="none"/>
<line clip-path="url(#clipPath1)" fill="none" x1="26" x2="29" y1="494" y2="476" stroke-dasharray="none" stroke="rgb(0,100,0)"/>
<polygon fill="rgb(0,100,0)" stroke-dasharray="none" clip-path="url(#clipPath1)" points=" 29 473 32 478 26 478 29 473" stroke="none"/>
</g>
<g font-size="15" stroke-linecap="butt" fill="rgb(0,100,0)" text-rendering="geometricPrecision" font-family="'Ubuntu'" shape-rendering="crispEdges" stroke="rgb(0,100,0)">
<line clip-path="url(#clipPath1)" fill="none" x1="29" x2="29" y1="476" y2="458"/>
<polygon shape-rendering="auto" clip-path="url(#clipPath1)" points=" 29 455 32 460 26 460 29 455" stroke="none"/>
<line clip-path="url(#clipPath1)" fill="none" x1="29" x2="30" y1="458" y2="441" shape-rendering="auto"/>
<polygon shape-rendering="auto" clip-path="url(#clipPath1)" points=" 30 438 33 443 27 443 30 438" stroke="none"/>
<polygon fill="rgb(255,165,0)" shape-rendering="auto" clip-path="url(#clipPath1)" points=" 23 494 26 491 29 494 26 497 23 494" stroke="none"/>
<line clip-path="url(#clipPath1)" fill="none" x1="26" x2="29" y1="494" y2="476" shape-rendering="auto" stroke="rgb(255,165,0)"/>
<polygon fill="rgb(255,165,0)" shape-rendering="auto" clip-path="url(#clipPath1)" points=" 26 476 29 473 32 476 29 479 26 476" stroke="none"/>
<line clip-path="url(#clipPath1)" fill="none" x1="29" x2="29" y1="476" y2="458" stroke="rgb(255,165,0)"/>
<polygon fill="rgb(255,165,0)" shape-rendering="auto" clip-path="url(#clipPath1)" points=" 26 458 29 455 32 458 29 461 26 458" stroke="none"/>
<line clip-path="url(#clipPath1)" fill="none" x1="29" x2="29" y1="458" y2="441" stroke="rgb(255,165,0)"/>
<polygon fill="rgb(255,165,0)" shape-rendering="auto" clip-path="url(#clipPath1)" points=" 26 441 29 438 32 441 29 444 26 441" stroke="none"/>
<line clip-path="url(#clipPath1)" fill="none" x1="29" x2="123" y1="441" y2="423" shape-rendering="auto" stroke="rgb(255,165,0)"/>
<polygon fill="rgb(255,165,0)" shape-rendering="auto" clip-path="url(#clipPath1)" points=" 120 423 123 420 126 423 123 426 120 423" stroke="none"/>
<line clip-path="url(#clipPath1)" fill="none" x1="24" x2="28" y1="492" y2="496" shape-rendering="auto" stroke="green"/>
<line clip-path="url(#clipPath1)" fill="none" x1="24" x2="28" y1="496" y2="492" shape-rendering="auto" stroke="green"/>
<line clip-path="url(#clipPath1)" fill="none" x1="26" x2="29" y1="494" y2="476" shape-rendering="auto" stroke="green"/>
<line clip-path="url(#clipPath1)" fill="none" x1="27" x2="31" y1="474" y2="478" shape-rendering="auto" stroke="green"/>
<line clip-path="url(#clipPath1)" fill="none" x1="27" x2="31" y1="478" y2="474" shape-rendering="auto" stroke="green"/>
<line clip-path="url(#clipPath1)" fill="none" x1="29" x2="29" y1="476" y2="458" stroke="green"/>
<line clip-path="url(#clipPath1)" fill="none" x1="27" x2="31" y1="456" y2="460" shape-rendering="auto" stroke="green"/>
<line clip-path="url(#clipPath1)" fill="none" x1="27" x2="31" y1="460" y2="456" shape-rendering="auto" stroke="green"/>
<line clip-path="url(#clipPath1)" fill="none" x1="29" x2="30" y1="458" y2="441" shape-rendering="auto" stroke="green"/>
<line clip-path="url(#clipPath1)" fill="none" x1="28" x2="32" y1="439" y2="443" shape-rendering="auto" stroke="green"/>
<line clip-path="url(#clipPath1)" fill="none" x1="28" x2="32" y1="443" y2="439" shape-rendering="auto" stroke="green"/>
<line clip-path="url(#clipPath1)" fill="none" x1="30" x2="66" y1="441" y2="423" shape-rendering="auto" stroke="green"/>
<line clip-path="url(#clipPath1)" fill="none" x1="64" x2="68" y1="421" y2="425" shape-rendering="auto" stroke="green"/>
<line clip-path="url(#clipPath1)" fill="none" x1="64" x2="68" y1="425" y2="421" shape-rendering="auto" stroke="green"/>
<line clip-path="url(#clipPath1)" fill="none" x1="66" x2="123" y1="423" y2="405" shape-rendering="auto" stroke="green"/>
<line clip-path="url(#clipPath1)" fill="none" x1="121" x2="125" y1="403" y2="407" shape-rendering="auto" stroke="green"/>
<line clip-path="url(#clipPath1)" fill="none" x1="121" x2="125" y1="407" y2="403" shape-rendering="auto" stroke="green"/>
<line clip-path="url(#clipPath1)" fill="none" x1="24" x2="28" y1="494" y2="494" shape-rendering="auto" stroke="rgb(169,169,169)"/>
<line clip-path="url(#clipPath1)" fill="none" x1="26" x2="26" y1="492" y2="496" shape-rendering="auto" stroke="rgb(169,169,169)"/>
<line clip-path="url(#clipPath1)" fill="none" x1="26" x2="139" y1="494" y2="476" shape-rendering="auto" stroke="rgb(169,169,169)"/>
<line clip-path="url(#clipPath1)" fill="none" x1="137" x2="141" y1="476" y2="476" shape-rendering="auto" stroke="rgb(169,169,169)"/>
<line clip-path="url(#clipPath1)" fill="none" x1="139" x2="139" y1="474" y2="478" shape-rendering="auto" stroke="rgb(169,169,169)"/>
<line clip-path="url(#clipPath1)" fill="none" x1="139" x2="153" y1="476" y2="458" shape-rendering="auto" stroke="rgb(169,169,169)"/>
<line clip-path="url(#clipPath1)" fill="none" x1="151" x2="155" y1="458" y2="458" shape-rendering="auto" stroke="rgb(169,169,169)"/>
<line clip-path="url(#clipPath1)" fill="none" x1="153" x2="153" y1="456" y2="460" shape-rendering="auto" stroke="rgb(169,169,169)"/>
<line clip-path="url(#clipPath1)" fill="none" x1="153" x2="243" y1="458" y2="441" shape-rendering="auto" stroke="rgb(169,169,169)"/>
<line clip-path="url(#clipPath1)" fill="none" x1="241" x2="245" y1="441" y2="441" shape-rendering="auto" stroke="rgb(169,169,169)"/>
<line clip-path="url(#clipPath1)" fill="none" x1="243" x2="243" y1="439" y2="443" shape-rendering="auto" stroke="rgb(169,169,169)"/>
<line clip-path="url(#clipPath1)" fill="none" x1="243" x2="258" y1="441" y2="423" shape-rendering="auto" stroke="rgb(169,169,169)"/>
<line clip-path="url(#clipPath1)" fill="none" x1="256" x2="260" y1="423" y2="423" shape-rendering="auto" stroke="rgb(169,169,169)"/>
<line clip-path="url(#clipPath1)" fill="none" x1="258" x2="258" y1="421" y2="425" shape-rendering="auto" stroke="rgb(169,169,169)"/>
<line clip-path="url(#clipPath1)" fill="none" x1="258" x2="330" y1="423" y2="405" shape-rendering="auto" stroke="rgb(169,169,169)"/>
<line clip-path="url(#clipPath1)" fill="none" x1="328" x2="332" y1="405" y2="405" shape-rendering="auto" stroke="rgb(169,169,169)"/>
<line clip-path="url(#clipPath1)" fill="none" x1="330" x2="330" y1="403" y2="407" shape-rendering="auto" stroke="rgb(169,169,169)"/>
<line clip-path="url(#clipPath1)" fill="none" x1="330" x2="376" y1="405" y2="387" shape-rendering="auto" stroke="rgb(169,169,169)"/>
<line clip-path="url(#clipPath1)" fill="none" x1="374" x2="378" y1="387" y2="387" shape-rendering="auto" stroke="rgb(169,169,169)"/>
<line clip-path="url(#clipPath1)" fill="none" x1="376" x2="376" y1="385" y2="389" shape-rendering="auto" stroke="rgb(169,169,169)"/>
<line clip-path="url(#clipPath1)" fill="none" x1="376" x2="393" y1="387" y2="370" shape-rendering="auto" stroke="rgb(169,169,169)"/>
<line clip-path="url(#clipPath1)" fill="none" x1="391" x2="395" y1="370" y2="370" shape-rendering="auto" stroke="rgb(169,169,169)"/>
<line clip-path="url(#clipPath1)" fill="none" x1="393" x2="393" y1="368" y2="372" shape-rendering="auto" stroke="rgb(169,169,169)"/>
<line clip-path="url(#clipPath1)" fill="none" x1="393" x2="400" y1="370" y2="352" shape-rendering="auto" stroke="rgb(169,169,169)"/>
<line clip-path="url(#clipPath1)" fill="none" x1="398" x2="402" y1="352" y2="352" shape-rendering="auto" stroke="rgb(169,169,169)"/>
<line clip-path="url(#clipPath1)" fill="none" x1="400" x2="400" y1="350" y2="354" shape-rendering="auto" stroke="rgb(169,169,169)"/>
<line clip-path="url(#clipPath1)" fill="none" x1="400" x2="412" y1="352" y2="334" shape-rendering="auto" stroke="rgb(169,169,169)"/>
<line clip-path="url(#clipPath1)" fill="none" x1="410" x2="414" y1="334" y2="334" shape-rendering="auto" stroke="rgb(169,169,169)"/>
<line clip-path="url(#clipPath1)" fill="none" x1="412" x2="412" y1="332" y2="336" shape-rendering="auto" stroke="rgb(169,169,169)"/>
<rect x="24" y="492" clip-path="url(#clipPath1)" fill="rgb(160,0,0)" width="5" shape-rendering="auto" height="5" stroke="none"/>
<line clip-path="url(#clipPath1)" fill="none" x1="26" x2="112" y1="494" y2="476" shape-rendering="auto" stroke="rgb(160,0,0)"/>
<rect x="110" y="474" clip-path="url(#clipPath1)" fill="rgb(160,0,0)" width="5" shape-rendering="auto" height="5" stroke="none"/>
<line clip-path="url(#clipPath1)" fill="none" x1="112" x2="132" y1="476" y2="458" shape-rendering="auto" stroke="rgb(160,0,0)"/>
<rect x="130" y="456" clip-path="url(#clipPath1)" fill="rgb(160,0,0)" width="5" shape-rendering="auto" height="5" stroke="none"/>
<line clip-path="url(#clipPath1)" fill="none" x1="132" x2="160" y1="458" y2="441" shape-rendering="auto" stroke="rgb(160,0,0)"/>
<rect x="158" y="439" clip-path="url(#clipPath1)" fill="rgb(160,0,0)" width="5" shape-rendering="auto" height="5" stroke="none"/>
<line clip-path="url(#clipPath1)" fill="none" x1="160" x2="161" y1="441" y2="423" shape-rendering="auto" stroke="rgb(160,0,0)"/>
<rect x="159" y="421" clip-path="url(#clipPath1)" fill="rgb(160,0,0)" width="5" shape-rendering="auto" height="5" stroke="none"/>
<line clip-path="url(#clipPath1)" fill="none" x1="161" x2="217" y1="423" y2="405" shape-rendering="auto" stroke="rgb(160,0,0)"/>
<rect x="215" y="403" clip-path="url(#clipPath1)" fill="rgb(160,0,0)" width="5" shape-rendering="auto" height="5" stroke="none"/>
<line clip-path="url(#clipPath1)" fill="none" x1="217" x2="217" y1="405" y2="387" stroke="rgb(160,0,0)"/>
<rect x="215" y="385" clip-path="url(#clipPath1)" fill="rgb(160,0,0)" width="5" shape-rendering="auto" height="5" stroke="none"/>
<line clip-path="url(#clipPath1)" fill="none" x1="217" x2="220" y1="387" y2="370" shape-rendering="auto" stroke="rgb(160,0,0)"/>
<rect x="218" y="368" clip-path="url(#clipPath1)" fill="rgb(160,0,0)" width="5" shape-rendering="auto" height="5" stroke="none"/>
<line clip-path="url(#clipPath1)" fill="none" x1="220" x2="225" y1="370" y2="352" shape-rendering="auto" stroke="rgb(160,0,0)"/>
<rect x="223" y="350" clip-path="url(#clipPath1)" fill="rgb(160,0,0)" width="5" shape-rendering="auto" height="5" stroke="none"/>
<line clip-path="url(#clipPath1)" fill="none" x1="225" x2="226" y1="352" y2="334" shape-rendering="auto" stroke="rgb(160,0,0)"/>
<rect x="224" y="332" clip-path="url(#clipPath1)" fill="rgb(160,0,0)" width="5" shape-rendering="auto" height="5" stroke="none"/>
<line clip-path="url(#clipPath1)" fill="none" x1="226" x2="271" y1="334" y2="316" shape-rendering="auto" stroke="rgb(160,0,0)"/>
<rect x="269" y="314" clip-path="url(#clipPath1)" fill="rgb(160,0,0)" width="5" shape-rendering="auto" height="5" stroke="none"/>
<line clip-path="url(#clipPath1)" fill="none" x1="271" x2="271" y1="316" y2="299" stroke="rgb(160,0,0)"/>
<rect x="269" y="297" clip-path="url(#clipPath1)" fill="rgb(160,0,0)" width="5" shape-rendering="auto" height="5" stroke="none"/>
<line clip-path="url(#clipPath1)" fill="none" x1="271" x2="292" y1="299" y2="281" shape-rendering="auto" stroke="rgb(160,0,0)"/>
<rect x="290" y="279" clip-path="url(#clipPath1)" fill="rgb(160,0,0)" width="5" shape-rendering="auto" height="5" stroke="none"/>
<line clip-path="url(#clipPath1)" fill="none" x1="292" x2="306" y1="281" y2="263" shape-rendering="auto" stroke="rgb(160,0,0)"/>
<rect x="304" y="261" clip-path="url(#clipPath1)" fill="rgb(160,0,0)" width="5" shape-rendering="auto" height="5" stroke="none"/>
<line clip-path="url(#clipPath1)" fill="none" x1="306" x2="337" y1="263" y2="245" shape-rendering="auto" stroke="rgb(160,0,0)"/>
<rect x="335" y="243" clip-path="url(#clipPath1)" fill="rgb(160,0,0)" width="5" shape-rendering="auto" height="5" stroke="none"/>
<circle clip-path="url(#clipPath1)" fill="teal" shape-rendering="auto" r="2" cx="26" cy="494" stroke="none"/>
<line clip-path="url(#clipPath1)" fill="none" x1="26" x2="145" y1="494" y2="476" shape-rendering="auto" stroke="teal"/>
<circle clip-path="url(#clipPath1)" fill="teal" shape-rendering="auto" r="2" cx="145" cy="476" stroke="none"/>
<line clip-path="url(#clipPath1)" fill="none" x1="145" x2="184" y1="476" y2="458" shape-rendering="auto" stroke="teal"/>
<circle clip-path="url(#clipPath1)" fill="teal" shape-rendering="auto" r="2" cx="184" cy="458" stroke="none"/>
<line clip-path="url(#clipPath1)" fill="none" x1="184" x2="217" y1="458" y2="441" shape-rendering="auto" stroke="teal"/>
<circle clip-path="url(#clipPath1)" fill="teal" shape-rendering="auto" r="2" cx="217" cy="441" stroke="none"/>
<line clip-path="url(#clipPath1)" fill="none" x1="217" x2="221" y1="441" y2="423" shape-rendering="auto" stroke="teal"/>
<circle clip-path="url(#clipPath1)" fill="teal" shape-rendering="auto" r="2" cx="221" cy="423" stroke="none"/>
<line clip-path="url(#clipPath1)" fill="none" x1="221" x2="227" y1="423" y2="405" shape-rendering="auto" stroke="teal"/>
<circle clip-path="url(#clipPath1)" fill="teal" shape-rendering="auto" r="2" cx="227" cy="405" stroke="none"/>
<line clip-path="url(#clipPath1)" fill="none" x1="227" x2="241" y1="405" y2="387" shape-rendering="auto" stroke="teal"/>
<circle clip-path="url(#clipPath1)" fill="teal" shape-rendering="auto" r="2" cx="241" cy="387" stroke="none"/>
<line clip-path="url(#clipPath1)" fill="none" x1="241" x2="257" y1="387" y2="370" shape-rendering="auto" stroke="teal"/>
<circle clip-path="url(#clipPath1)" fill="teal" shape-rendering="auto" r="2" cx="257" cy="370" stroke="none"/>
<line clip-path="url(#clipPath1)" fill="none" x1="257" x2="331" y1="370" y2="352" shape-rendering="auto" stroke="teal"/>
<circle clip-path="url(#clipPath1)" fill="teal" shape-rendering="auto" r="2" cx="331" cy="352" stroke="none"/>
<line clip-path="url(#clipPath1)" fill="none" x1="331" x2="333" y1="352" y2="334" shape-rendering="auto" stroke="teal"/>
<circle clip-path="url(#clipPath1)" fill="teal" shape-rendering="auto" r="2" cx="333" cy="334" stroke="none"/>
<line clip-path="url(#clipPath1)" fill="none" x1="333" x2="342" y1="334" y2="316" shape-rendering="auto" stroke="teal"/>
<circle clip-path="url(#clipPath1)" fill="teal" shape-rendering="auto" r="2" cx="342" cy="316" stroke="none"/>
<line clip-path="url(#clipPath1)" fill="none" x1="342" x2="351" y1="316" y2="299" shape-rendering="auto" stroke="teal"/>
<circle clip-path="url(#clipPath1)" fill="teal" shape-rendering="auto" r="2" cx="351" cy="299" stroke="none"/>
<line clip-path="url(#clipPath1)" fill="none" x1="351" x2="364" y1="299" y2="281" shape-rendering="auto" stroke="teal"/>
<circle clip-path="url(#clipPath1)" fill="teal" shape-rendering="auto" r="2" cx="364" cy="281" stroke="none"/>
<line clip-path="url(#clipPath1)" fill="none" x1="364" x2="369" y1="281" y2="263" shape-rendering="auto" stroke="teal"/>
<circle clip-path="url(#clipPath1)" fill="teal" shape-rendering="auto" r="2" cx="369" cy="263" stroke="none"/>
<line clip-path="url(#clipPath1)" fill="none" x1="369" x2="438" y1="263" y2="245" shape-rendering="auto" stroke="teal"/>
<circle clip-path="url(#clipPath1)" fill="teal" shape-rendering="auto" r="2" cx="438" cy="245" stroke="none"/>
<line clip-path="url(#clipPath1)" fill="none" x1="438" x2="453" y1="245" y2="228" shape-rendering="auto" stroke="teal"/>
<circle clip-path="url(#clipPath1)" fill="teal" shape-rendering="auto" r="2" cx="453" cy="228" stroke="none"/>
<line clip-path="url(#clipPath1)" fill="none" x1="453" x2="514" y1="228" y2="210" shape-rendering="auto" stroke="teal"/>
<circle clip-path="url(#clipPath1)" fill="teal" shape-rendering="auto" r="2" cx="514" cy="210" stroke="none"/>
<line clip-path="url(#clipPath1)" fill="none" x1="514" x2="623" y1="210" y2="192" shape-rendering="auto" stroke="teal"/>
<circle clip-path="url(#clipPath1)" fill="teal" shape-rendering="auto" r="2" cx="623" cy="192" stroke="none"/>
<line clip-path="url(#clipPath1)" fill="none" x1="623" x2="624" y1="192" y2="174" shape-rendering="auto" stroke="teal"/>
<circle clip-path="url(#clipPath1)" fill="teal" shape-rendering="auto" r="2" cx="624" cy="174" stroke="none"/>
<line clip-path="url(#clipPath1)" fill="none" x1="624" x2="815" y1="174" y2="157" shape-rendering="auto" stroke="teal"/>
<circle clip-path="url(#clipPath1)" fill="teal" shape-rendering="auto" r="2" cx="815" cy="157" stroke="none"/>
<rect x="26" y="39" clip-path="url(#clipPath2)" fill="none" width="799" shape-rendering="auto" height="473" stroke="black"/>
</g>
<g text-rendering="geometricPrecision" font-size="13" stroke-linecap="butt">
<text xml:space="preserve" x="264" y="13" clip-path="url(#clipPath2)" stroke="none">number of seeders P2PTorrentFlatNet.tracker.tcpApp[0]</text>
<line clip-path="url(#clipPath2)" fill="none" x1="26" x2="825" y1="37" y2="37"/>
<line clip-path="url(#clipPath2)" fill="none" x1="26" x2="825" y1="514" y2="514"/>
<line clip-path="url(#clipPath2)" fill="none" x1="26" x2="26" y1="33" y2="37"/>
<line clip-path="url(#clipPath2)" fill="none" x1="26" x2="26" y1="518" y2="514"/>
<text font-size="11" x="25" y="30" clip-path="url(#clipPath2)" stroke="none" xml:space="preserve">0</text>
<text font-size="11" x="25" y="530" clip-path="url(#clipPath2)" stroke="none" xml:space="preserve">0</text>
<line clip-path="url(#clipPath2)" fill="none" x1="57" x2="57" y1="35" y2="37"/>
<line clip-path="url(#clipPath2)" fill="none" x1="57" x2="57" y1="516" y2="514"/>
<line clip-path="url(#clipPath2)" fill="none" x1="88" x2="88" y1="33" y2="37"/>
<line clip-path="url(#clipPath2)" fill="none" x1="88" x2="88" y1="518" y2="514"/>
<text font-size="11" x="87" y="30" clip-path="url(#clipPath2)" stroke="none" xml:space="preserve">2</text>
<text font-size="11" x="87" y="530" clip-path="url(#clipPath2)" stroke="none" xml:space="preserve">2</text>
<line clip-path="url(#clipPath2)" fill="none" x1="119" x2="119" y1="35" y2="37"/>
<line clip-path="url(#clipPath2)" fill="none" x1="119" x2="119" y1="516" y2="514"/>
<line clip-path="url(#clipPath2)" fill="none" x1="150" x2="150" y1="33" y2="37"/>
<line clip-path="url(#clipPath2)" fill="none" x1="150" x2="150" y1="518" y2="514"/>
<text font-size="11" x="149" y="30" clip-path="url(#clipPath2)" stroke="none" xml:space="preserve">4</text>
<text font-size="11" x="149" y="530" clip-path="url(#clipPath2)" stroke="none" xml:space="preserve">4</text>
<line clip-path="url(#clipPath2)" fill="none" x1="181" x2="181" y1="35" y2="37"/>
<line clip-path="url(#clipPath2)" fill="none" x1="181" x2="181" y1="516" y2="514"/>
<line clip-path="url(#clipPath2)" fill="none" x1="212" x2="212" y1="33" y2="37"/>
<line clip-path="url(#clipPath2)" fill="none" x1="212" x2="212" y1="518" y2="514"/>
<text font-size="11" x="211" y="30" clip-path="url(#clipPath2)" stroke="none" xml:space="preserve">6</text>
<text font-size="11" x="211" y="530" clip-path="url(#clipPath2)" stroke="none" xml:space="preserve">6</text>
<line clip-path="url(#clipPath2)" fill="none" x1="243" x2="243" y1="35" y2="37"/>
<line clip-path="url(#clipPath2)" fill="none" x1="243" x2="243" y1="516" y2="514"/>
<line clip-path="url(#clipPath2)" fill="none" x1="274" x2="274" y1="33" y2="37"/>
<line clip-path="url(#clipPath2)" fill="none" x1="274" x2="274" y1="518" y2="514"/>
<text font-size="11" x="273" y="30" clip-path="url(#clipPath2)" stroke="none" xml:space="preserve">8</text>
<text font-size="11" x="273" y="530" clip-path="url(#clipPath2)" stroke="none" xml:space="preserve">8</text>
<line clip-path="url(#clipPath2)" fill="none" x1="306" x2="306" y1="35" y2="37"/>
<line clip-path="url(#clipPath2)" fill="none" x1="306" x2="306" y1="516" y2="514"/>
<line clip-path="url(#clipPath2)" fill="none" x1="337" x2="337" y1="33" y2="37"/>
<line clip-path="url(#clipPath2)" fill="none" x1="337" x2="337" y1="518" y2="514"/>
<text font-size="11" x="333" y="30" clip-path="url(#clipPath2)" stroke="none" xml:space="preserve">10</text>
<text font-size="11" x="333" y="530" clip-path="url(#clipPath2)" stroke="none" xml:space="preserve">10</text>
<line clip-path="url(#clipPath2)" fill="none" x1="368" x2="368" y1="35" y2="37"/>
<line clip-path="url(#clipPath2)" fill="none" x1="368" x2="368" y1="516" y2="514"/>
<line clip-path="url(#clipPath2)" fill="none" x1="399" x2="399" y1="33" y2="37"/>
<line clip-path="url(#clipPath2)" fill="none" x1="399" x2="399" y1="518" y2="514"/>
<text font-size="11" x="395" y="30" clip-path="url(#clipPath2)" stroke="none" xml:space="preserve">12</text>
<text font-size="11" x="395" y="530" clip-path="url(#clipPath2)" stroke="none" xml:space="preserve">12</text>
<line clip-path="url(#clipPath2)" fill="none" x1="430" x2="430" y1="35" y2="37"/>
<line clip-path="url(#clipPath2)" fill="none" x1="430" x2="430" y1="516" y2="514"/>
<line clip-path="url(#clipPath2)" fill="none" x1="461" x2="461" y1="33" y2="37"/>
<line clip-path="url(#clipPath2)" fill="none" x1="461" x2="461" y1="518" y2="514"/>
<text font-size="11" x="457" y="30" clip-path="url(#clipPath2)" stroke="none" xml:space="preserve">14</text>
<text font-size="11" x="457" y="530" clip-path="url(#clipPath2)" stroke="none" xml:space="preserve">14</text>
<line clip-path="url(#clipPath2)" fill="none" x1="492" x2="492" y1="35" y2="37"/>
<line clip-path="url(#clipPath2)" fill="none" x1="492" x2="492" y1="516" y2="514"/>
<line clip-path="url(#clipPath2)" fill="none" x1="523" x2="523" y1="33" y2="37"/>
<line clip-path="url(#clipPath2)" fill="none" x1="523" x2="523" y1="518" y2="514"/>
<text font-size="11" x="519" y="30" clip-path="url(#clipPath2)" stroke="none" xml:space="preserve">16</text>
<text font-size="11" x="519" y="530" clip-path="url(#clipPath2)" stroke="none" xml:space="preserve">16</text>
<line clip-path="url(#clipPath2)" fill="none" x1="554" x2="554" y1="35" y2="37"/>
<line clip-path="url(#clipPath2)" fill="none" x1="554" x2="554" y1="516" y2="514"/>
<line clip-path="url(#clipPath2)" fill="none" x1="586" x2="586" y1="33" y2="37"/>
<line clip-path="url(#clipPath2)" fill="none" x1="586" x2="586" y1="518" y2="514"/>
<text font-size="11" x="582" y="30" clip-path="url(#clipPath2)" stroke="none" xml:space="preserve">18</text>
<text font-size="11" x="582" y="530" clip-path="url(#clipPath2)" stroke="none" xml:space="preserve">18</text>
<line clip-path="url(#clipPath2)" fill="none" x1="617" x2="617" y1="35" y2="37"/>
<line clip-path="url(#clipPath2)" fill="none" x1="617" x2="617" y1="516" y2="514"/>
<line clip-path="url(#clipPath2)" fill="none" x1="648" x2="648" y1="33" y2="37"/>
<line clip-path="url(#clipPath2)" fill="none" x1="648" x2="648" y1="518" y2="514"/>
<text font-size="11" x="644" y="30" clip-path="url(#clipPath2)" stroke="none" xml:space="preserve">20</text>
<text font-size="11" x="644" y="530" clip-path="url(#clipPath2)" stroke="none" xml:space="preserve">20</text>
<line clip-path="url(#clipPath2)" fill="none" x1="679" x2="679" y1="35" y2="37"/>
<line clip-path="url(#clipPath2)" fill="none" x1="679" x2="679" y1="516" y2="514"/>
<line clip-path="url(#clipPath2)" fill="none" x1="710" x2="710" y1="33" y2="37"/>
<line clip-path="url(#clipPath2)" fill="none" x1="710" x2="710" y1="518" y2="514"/>
<text font-size="11" x="706" y="30" clip-path="url(#clipPath2)" stroke="none" xml:space="preserve">22</text>
<text font-size="11" x="706" y="530" clip-path="url(#clipPath2)" stroke="none" xml:space="preserve">22</text>
<line clip-path="url(#clipPath2)" fill="none" x1="741" x2="741" y1="35" y2="37"/>
<line clip-path="url(#clipPath2)" fill="none" x1="741" x2="741" y1="516" y2="514"/>
<line clip-path="url(#clipPath2)" fill="none" x1="772" x2="772" y1="33" y2="37"/>
<line clip-path="url(#clipPath2)" fill="none" x1="772" x2="772" y1="518" y2="514"/>
<text font-size="11" x="768" y="30" clip-path="url(#clipPath2)" stroke="none" xml:space="preserve">24</text>
<text font-size="11" x="768" y="530" clip-path="url(#clipPath2)" stroke="none" xml:space="preserve">24</text>
<line clip-path="url(#clipPath2)" fill="none" x1="803" x2="803" y1="35" y2="37"/>
<line clip-path="url(#clipPath2)" fill="none" x1="803" x2="803" y1="516" y2="514"/>
<line clip-path="url(#clipPath2)" fill="none" x1="24" x2="24" y1="39" y2="512"/>
<line clip-path="url(#clipPath2)" fill="none" x1="827" x2="827" y1="39" y2="512"/>
<line clip-path="url(#clipPath2)" fill="none" x1="20" x2="24" y1="512" y2="512"/>
<line clip-path="url(#clipPath2)" fill="none" x1="831" x2="827" y1="512" y2="512"/>
<text font-size="11" x="14" y="517" clip-path="url(#clipPath2)" stroke="none" xml:space="preserve">0</text>
<text font-size="11" x="834" y="517" clip-path="url(#clipPath2)" stroke="none" xml:space="preserve">0</text>
<line clip-path="url(#clipPath2)" fill="none" x1="22" x2="24" y1="494" y2="494"/>
<line clip-path="url(#clipPath2)" fill="none" x1="829" x2="827" y1="494" y2="494"/>
<line clip-path="url(#clipPath2)" fill="none" x1="22" x2="24" y1="476" y2="476"/>
<line clip-path="url(#clipPath2)" fill="none" x1="829" x2="827" y1="476" y2="476"/>
<line clip-path="url(#clipPath2)" fill="none" x1="22" x2="24" y1="458" y2="458"/>
<line clip-path="url(#clipPath2)" fill="none" x1="829" x2="827" y1="458" y2="458"/>
<line clip-path="url(#clipPath2)" fill="none" x1="22" x2="24" y1="441" y2="441"/>
<line clip-path="url(#clipPath2)" fill="none" x1="829" x2="827" y1="441" y2="441"/>
<line clip-path="url(#clipPath2)" fill="none" x1="20" x2="24" y1="423" y2="423"/>
<line clip-path="url(#clipPath2)" fill="none" x1="831" x2="827" y1="423" y2="423"/>
<text font-size="11" x="14" y="428" clip-path="url(#clipPath2)" stroke="none" xml:space="preserve">5</text>
<text font-size="11" x="834" y="428" clip-path="url(#clipPath2)" stroke="none" xml:space="preserve">5</text>
<line clip-path="url(#clipPath2)" fill="none" x1="22" x2="24" y1="405" y2="405"/>
<line clip-path="url(#clipPath2)" fill="none" x1="829" x2="827" y1="405" y2="405"/>
<line clip-path="url(#clipPath2)" fill="none" x1="22" x2="24" y1="387" y2="387"/>
<line clip-path="url(#clipPath2)" fill="none" x1="829" x2="827" y1="387" y2="387"/>
<line clip-path="url(#clipPath2)" fill="none" x1="22" x2="24" y1="370" y2="370"/>
<line clip-path="url(#clipPath2)" fill="none" x1="829" x2="827" y1="370" y2="370"/>
<line clip-path="url(#clipPath2)" fill="none" x1="22" x2="24" y1="352" y2="352"/>
<line clip-path="url(#clipPath2)" fill="none" x1="829" x2="827" y1="352" y2="352"/>
<line clip-path="url(#clipPath2)" fill="none" x1="20" x2="24" y1="334" y2="334"/>
<line clip-path="url(#clipPath2)" fill="none" x1="831" x2="827" y1="334" y2="334"/>
<text font-size="11" x="9" y="339" clip-path="url(#clipPath2)" stroke="none" xml:space="preserve">10</text>
<text font-size="11" x="834" y="339" clip-path="url(#clipPath2)" stroke="none" xml:space="preserve">10</text>
<line clip-path="url(#clipPath2)" fill="none" x1="22" x2="24" y1="316" y2="316"/>
<line clip-path="url(#clipPath2)" fill="none" x1="829" x2="827" y1="316" y2="316"/>
<line clip-path="url(#clipPath2)" fill="none" x1="22" x2="24" y1="299" y2="299"/>
<line clip-path="url(#clipPath2)" fill="none" x1="829" x2="827" y1="299" y2="299"/>
<line clip-path="url(#clipPath2)" fill="none" x1="22" x2="24" y1="281" y2="281"/>
<line clip-path="url(#clipPath2)" fill="none" x1="829" x2="827" y1="281" y2="281"/>
<line clip-path="url(#clipPath2)" fill="none" x1="22" x2="24" y1="263" y2="263"/>
<line clip-path="url(#clipPath2)" fill="none" x1="829" x2="827" y1="263" y2="263"/>
<line clip-path="url(#clipPath2)" fill="none" x1="20" x2="24" y1="245" y2="245"/>
<line clip-path="url(#clipPath2)" fill="none" x1="831" x2="827" y1="245" y2="245"/>
<text font-size="11" x="9" y="250" clip-path="url(#clipPath2)" stroke="none" xml:space="preserve">15</text>
<text font-size="11" x="834" y="250" clip-path="url(#clipPath2)" stroke="none" xml:space="preserve">15</text>
<line clip-path="url(#clipPath2)" fill="none" x1="22" x2="24" y1="228" y2="228"/>
<line clip-path="url(#clipPath2)" fill="none" x1="829" x2="827" y1="228" y2="228"/>
<line clip-path="url(#clipPath2)" fill="none" x1="22" x2="24" y1="210" y2="210"/>
<line clip-path="url(#clipPath2)" fill="none" x1="829" x2="827" y1="210" y2="210"/>
<line clip-path="url(#clipPath2)" fill="none" x1="22" x2="24" y1="192" y2="192"/>
<line clip-path="url(#clipPath2)" fill="none" x1="829" x2="827" y1="192" y2="192"/>
<line clip-path="url(#clipPath2)" fill="none" x1="22" x2="24" y1="174" y2="174"/>
<line clip-path="url(#clipPath2)" fill="none" x1="829" x2="827" y1="174" y2="174"/>
<line clip-path="url(#clipPath2)" fill="none" x1="20" x2="24" y1="157" y2="157"/>
<line clip-path="url(#clipPath2)" fill="none" x1="831" x2="827" y1="157" y2="157"/>
<text font-size="11" x="9" y="162" clip-path="url(#clipPath2)" stroke="none" xml:space="preserve">20</text>
<text font-size="11" x="834" y="162" clip-path="url(#clipPath2)" stroke="none" xml:space="preserve">20</text>
<line clip-path="url(#clipPath2)" fill="none" x1="22" x2="24" y1="139" y2="139"/>
<line clip-path="url(#clipPath2)" fill="none" x1="829" x2="827" y1="139" y2="139"/>
<line clip-path="url(#clipPath2)" fill="none" x1="22" x2="24" y1="121" y2="121"/>
<line clip-path="url(#clipPath2)" fill="none" x1="829" x2="827" y1="121" y2="121"/>
<line clip-path="url(#clipPath2)" fill="none" x1="22" x2="24" y1="104" y2="104"/>
<line clip-path="url(#clipPath2)" fill="none" x1="829" x2="827" y1="104" y2="104"/>
<line clip-path="url(#clipPath2)" fill="none" x1="22" x2="24" y1="86" y2="86"/>
<line clip-path="url(#clipPath2)" fill="none" x1="829" x2="827" y1="86" y2="86"/>
<line clip-path="url(#clipPath2)" fill="none" x1="20" x2="24" y1="68" y2="68"/>
<line clip-path="url(#clipPath2)" fill="none" x1="831" x2="827" y1="68" y2="68"/>
<text font-size="11" x="9" y="73" clip-path="url(#clipPath2)" stroke="none" xml:space="preserve">25</text>
<text font-size="11" x="834" y="73" clip-path="url(#clipPath2)" stroke="none" xml:space="preserve">25</text>
<line clip-path="url(#clipPath2)" fill="none" x1="22" x2="24" y1="50" y2="50"/>
<line clip-path="url(#clipPath2)" fill="none" x1="829" x2="827" y1="50" y2="50"/>
</g>
</g>
</svg>
