<?xml version="1.0" encoding="UTF-8"?><svg xmlns="http://www.w3.org/2000/svg" xmlns:xlink="http://www.w3.org/1999/xlink" stroke-dasharray="none" shape-rendering="auto" font-family="'Dialog'" width="851" text-rendering="auto" fill-opacity="1" contentScriptType="text/ecmascript" color-interpolation="auto" color-rendering="auto" preserveAspectRatio="xMidYMid meet" font-size="12" fill="black" stroke="black" image-rendering="auto" stroke-miterlimit="10" zoomAndPan="magnify" version="1.0" stroke-linecap="square" stroke-linejoin="miter" contentStyleType="text/css" font-style="normal" height="535" stroke-width="1" stroke-dashoffset="0" font-weight="normal" stroke-opacity="1">
<!--Generated by the Batik Graphics2D SVG Generator-->
<defs id="genericDefs"/>
<g>
<defs id="defs1">
<clipPath clipPathUnits="userSpaceOnUse" id="clipPath1">
<path d="M25 38 L826 38 L826 513 L25 513 L25 38 Z"/>
</clipPath>
<clipPath clipPathUnits="userSpaceOnUse" id="clipPath2">
<path d="M-1 -1 L852 -1 L852 536 L-1 536 L-1 -1 Z"/>
</clipPath>
</defs>
<g font-size="15" fill="white" text-rendering="geometricPrecision" font-family="'Ubuntu'" stroke-linejoin="round" stroke="white" stroke-width="0" stroke-miterlimit="0">
<rect x="26" y="39" clip-path="url(#clipPath1)" width="799" height="473" stroke="none"/>
</g>
<g font-size="15" stroke-linecap="butt" fill="rgb(204,204,204)" text-rendering="geometricPrecision" font-family="'Ubuntu'" stroke-dasharray="3,3" stroke="rgb(204,204,204)">
<line clip-path="url(#clipPath1)" fill="none" x1="26" x2="26" y1="39" y2="512"/>
<line clip-path="url(#clipPath1)" fill="none" x1="88" x2="88" y1="39" y2="512"/>
<line clip-path="url(#clipPath1)" fill="none" x1="150" x2="150" y1="39" y2="512"/>
<line clip-path="url(#clipPath1)" fill="none" x1="212" x2="212" y1="39" y2="512"/>
<line clip-path="url(#clipPath1)" fill="none" x1="274" x2="274" y1="39" y2="512"/>
<line clip-path="url(#clipPath1)" fill="none" x1="337" x2="337" y1="39" y2="512"/>
<line clip-path="url(#clipPath1)" fill="none" x1="399" x2="399" y1="39" y2="512"/>
<line clip-path="url(#clipPath1)" fill="none" x1="461" x2="461" y1="39" y2="512"/>
<line clip-path="url(#clipPath1)" fill="none" x1="523" x2="523" y1="39" y2="512"/>
<line clip-path="url(#clipPath1)" fill="none" x1="586" x2="586" y1="39" y2="512"/>
<line clip-path="url(#clipPath1)" fill="none" x1="648" x2="648" y1="39" y2="512"/>
<line clip-path="url(#clipPath1)" fill="none" x1="710" x2="710" y1="39" y2="512"/>
<line clip-path="url(#clipPath1)" fill="none" x1="772" x2="772" y1="39" y2="512"/>
<line clip-path="url(#clipPath1)" fill="none" x1="26" x2="825" y1="512" y2="512"/>
<line clip-path="url(#clipPath1)" fill="none" x1="26" x2="825" y1="451" y2="451"/>
<line clip-path="url(#clipPath1)" fill="none" x1="26" x2="825" y1="390" y2="390"/>
<line clip-path="url(#clipPath1)" fill="none" x1="26" x2="825" y1="329" y2="329"/>
<line clip-path="url(#clipPath1)" fill="none" x1="26" x2="825" y1="269" y2="269"/>
<line clip-path="url(#clipPath1)" fill="none" x1="26" x2="825" y1="208" y2="208"/>
<line clip-path="url(#clipPath1)" fill="none" x1="26" x2="825" y1="147" y2="147"/>
<line clip-path="url(#clipPath1)" fill="none" x1="26" x2="825" y1="86" y2="86"/>
<rect x="27" y="479" clip-path="url(#clipPath1)" fill="rgb(0,0,139)" width="5" height="5" stroke="none"/>
<circle clip-path="url(#clipPath1)" fill="rgb(238,0,0)" r="2" cx="29" cy="481" stroke="none"/>
<line clip-path="url(#clipPath1)" fill="none" x1="29" x2="30" y1="481" y2="472" stroke-dasharray="none" stroke="rgb(238,0,0)"/>
<circle clip-path="url(#clipPath1)" fill="rgb(238,0,0)" stroke-dasharray="none" r="2" cx="30" cy="472" stroke="none"/>
<polygon fill="rgb(0,100,0)" stroke-dasharray="none" clip-path="url(#clipPath1)" points=" 29 478 32 483 26 483 29 478" stroke="none"/>
</g>
<g font-size="15" stroke-linecap="butt" fill="rgb(0,100,0)" text-rendering="geometricPrecision" font-family="'Ubuntu'" shape-rendering="crispEdges" stroke="rgb(0,100,0)">
<line clip-path="url(#clipPath1)" fill="none" x1="29" x2="29" y1="481" y2="480"/>
<polygon shape-rendering="auto" clip-path="url(#clipPath1)" points=" 29 477 32 482 26 482 29 477" stroke="none"/>
<line clip-path="url(#clipPath1)" fill="none" x1="29" x2="30" y1="480" y2="473" shape-rendering="auto"/>
<polygon shape-rendering="auto" clip-path="url(#clipPath1)" points=" 30 470 33 475 27 475 30 470" stroke="none"/>
<polygon fill="rgb(255,165,0)" shape-rendering="auto" clip-path="url(#clipPath1)" points=" 26 481 29 478 32 481 29 484 26 481" stroke="none"/>
<line clip-path="url(#clipPath1)" fill="none" x1="29" x2="29" y1="481" y2="478" stroke="rgb(255,165,0)"/>
<polygon fill="rgb(255,165,0)" shape-rendering="auto" clip-path="url(#clipPath1)" points=" 26 478 29 475 32 478 29 481 26 478" stroke="none"/>
<line clip-path="url(#clipPath1)" fill="none" x1="29" x2="123" y1="478" y2="394" shape-rendering="auto" stroke="rgb(255,165,0)"/>
<polygon fill="rgb(255,165,0)" shape-rendering="auto" clip-path="url(#clipPath1)" points=" 120 394 123 391 126 394 123 397 120 394" stroke="none"/>
<line clip-path="url(#clipPath1)" fill="none" x1="27" x2="31" y1="479" y2="483" shape-rendering="auto" stroke="green"/>
<line clip-path="url(#clipPath1)" fill="none" x1="27" x2="31" y1="483" y2="479" shape-rendering="auto" stroke="green"/>
<line clip-path="url(#clipPath1)" fill="none" x1="29" x2="30" y1="481" y2="473" shape-rendering="auto" stroke="green"/>
<line clip-path="url(#clipPath1)" fill="none" x1="28" x2="32" y1="471" y2="475" shape-rendering="auto" stroke="green"/>
<line clip-path="url(#clipPath1)" fill="none" x1="28" x2="32" y1="475" y2="471" shape-rendering="auto" stroke="green"/>
<line clip-path="url(#clipPath1)" fill="none" x1="30" x2="66" y1="473" y2="399" shape-rendering="auto" stroke="green"/>
<line clip-path="url(#clipPath1)" fill="none" x1="64" x2="68" y1="397" y2="401" shape-rendering="auto" stroke="green"/>
<line clip-path="url(#clipPath1)" fill="none" x1="64" x2="68" y1="401" y2="397" shape-rendering="auto" stroke="green"/>
<line clip-path="url(#clipPath1)" fill="none" x1="66" x2="123" y1="399" y2="376" shape-rendering="auto" stroke="green"/>
<line clip-path="url(#clipPath1)" fill="none" x1="121" x2="125" y1="374" y2="378" shape-rendering="auto" stroke="green"/>
<line clip-path="url(#clipPath1)" fill="none" x1="121" x2="125" y1="378" y2="374" shape-rendering="auto" stroke="green"/>
<line clip-path="url(#clipPath1)" fill="none" x1="137" x2="141" y1="481" y2="481" shape-rendering="auto" stroke="rgb(169,169,169)"/>
<line clip-path="url(#clipPath1)" fill="none" x1="139" x2="139" y1="479" y2="483" shape-rendering="auto" stroke="rgb(169,169,169)"/>
<line clip-path="url(#clipPath1)" fill="none" x1="139" x2="153" y1="481" y2="478" shape-rendering="auto" stroke="rgb(169,169,169)"/>
<line clip-path="url(#clipPath1)" fill="none" x1="151" x2="155" y1="478" y2="478" shape-rendering="auto" stroke="rgb(169,169,169)"/>
<line clip-path="url(#clipPath1)" fill="none" x1="153" x2="153" y1="476" y2="480" shape-rendering="auto" stroke="rgb(169,169,169)"/>
<line clip-path="url(#clipPath1)" fill="none" x1="153" x2="243" y1="478" y2="454" shape-rendering="auto" stroke="rgb(169,169,169)"/>
<line clip-path="url(#clipPath1)" fill="none" x1="241" x2="245" y1="454" y2="454" shape-rendering="auto" stroke="rgb(169,169,169)"/>
<line clip-path="url(#clipPath1)" fill="none" x1="243" x2="243" y1="452" y2="456" shape-rendering="auto" stroke="rgb(169,169,169)"/>
<line clip-path="url(#clipPath1)" fill="none" x1="243" x2="258" y1="454" y2="450" shape-rendering="auto" stroke="rgb(169,169,169)"/>
<line clip-path="url(#clipPath1)" fill="none" x1="256" x2="260" y1="450" y2="450" shape-rendering="auto" stroke="rgb(169,169,169)"/>
<line clip-path="url(#clipPath1)" fill="none" x1="258" x2="258" y1="448" y2="452" shape-rendering="auto" stroke="rgb(169,169,169)"/>
<line clip-path="url(#clipPath1)" fill="none" x1="258" x2="330" y1="450" y2="429" shape-rendering="auto" stroke="rgb(169,169,169)"/>
<line clip-path="url(#clipPath1)" fill="none" x1="328" x2="332" y1="429" y2="429" shape-rendering="auto" stroke="rgb(169,169,169)"/>
<line clip-path="url(#clipPath1)" fill="none" x1="330" x2="330" y1="427" y2="431" shape-rendering="auto" stroke="rgb(169,169,169)"/>
<line clip-path="url(#clipPath1)" fill="none" x1="330" x2="376" y1="429" y2="415" shape-rendering="auto" stroke="rgb(169,169,169)"/>
<line clip-path="url(#clipPath1)" fill="none" x1="374" x2="378" y1="415" y2="415" shape-rendering="auto" stroke="rgb(169,169,169)"/>
<line clip-path="url(#clipPath1)" fill="none" x1="376" x2="376" y1="413" y2="417" shape-rendering="auto" stroke="rgb(169,169,169)"/>
<line clip-path="url(#clipPath1)" fill="none" x1="376" x2="393" y1="415" y2="410" shape-rendering="auto" stroke="rgb(169,169,169)"/>
<line clip-path="url(#clipPath1)" fill="none" x1="391" x2="395" y1="410" y2="410" shape-rendering="auto" stroke="rgb(169,169,169)"/>
<line clip-path="url(#clipPath1)" fill="none" x1="393" x2="393" y1="408" y2="412" shape-rendering="auto" stroke="rgb(169,169,169)"/>
<line clip-path="url(#clipPath1)" fill="none" x1="393" x2="400" y1="410" y2="407" shape-rendering="auto" stroke="rgb(169,169,169)"/>
<line clip-path="url(#clipPath1)" fill="none" x1="398" x2="402" y1="407" y2="407" shape-rendering="auto" stroke="rgb(169,169,169)"/>
<line clip-path="url(#clipPath1)" fill="none" x1="400" x2="400" y1="405" y2="409" shape-rendering="auto" stroke="rgb(169,169,169)"/>
<line clip-path="url(#clipPath1)" fill="none" x1="400" x2="412" y1="407" y2="402" shape-rendering="auto" stroke="rgb(169,169,169)"/>
<line clip-path="url(#clipPath1)" fill="none" x1="410" x2="414" y1="402" y2="402" shape-rendering="auto" stroke="rgb(169,169,169)"/>
<line clip-path="url(#clipPath1)" fill="none" x1="412" x2="412" y1="400" y2="404" shape-rendering="auto" stroke="rgb(169,169,169)"/>
<rect x="110" y="479" clip-path="url(#clipPath1)" fill="rgb(160,0,0)" width="5" shape-rendering="auto" height="5" stroke="none"/>
<line clip-path="url(#clipPath1)" fill="none" x1="112" x2="132" y1="481" y2="475" shape-rendering="auto" stroke="rgb(160,0,0)"/>
<rect x="130" y="473" clip-path="url(#clipPath1)" fill="rgb(160,0,0)" width="5" shape-rendering="auto" height="5" stroke="none"/>
<line clip-path="url(#clipPath1)" fill="none" x1="132" x2="160" y1="475" y2="464" shape-rendering="auto" stroke="rgb(160,0,0)"/>
<rect x="158" y="462" clip-path="url(#clipPath1)" fill="rgb(160,0,0)" width="5" shape-rendering="auto" height="5" stroke="none"/>
<line clip-path="url(#clipPath1)" fill="none" x1="160" x2="161" y1="464" y2="464" shape-rendering="auto" stroke="rgb(160,0,0)"/>
<rect x="159" y="462" clip-path="url(#clipPath1)" fill="rgb(160,0,0)" width="5" shape-rendering="auto" height="5" stroke="none"/>
<line clip-path="url(#clipPath1)" fill="none" x1="161" x2="217" y1="464" y2="433" shape-rendering="auto" stroke="rgb(160,0,0)"/>
<rect x="215" y="431" clip-path="url(#clipPath1)" fill="rgb(160,0,0)" width="5" shape-rendering="auto" height="5" stroke="none"/>
<line clip-path="url(#clipPath1)" fill="none" x1="217" x2="220" y1="433" y2="431" shape-rendering="auto" stroke="rgb(160,0,0)"/>
<rect x="218" y="429" clip-path="url(#clipPath1)" fill="rgb(160,0,0)" width="5" shape-rendering="auto" height="5" stroke="none"/>
<line clip-path="url(#clipPath1)" fill="none" x1="220" x2="225" y1="431" y2="426" shape-rendering="auto" stroke="rgb(160,0,0)"/>
<rect x="223" y="424" clip-path="url(#clipPath1)" fill="rgb(160,0,0)" width="5" shape-rendering="auto" height="5" stroke="none"/>
<line clip-path="url(#clipPath1)" fill="none" x1="225" x2="226" y1="426" y2="426" shape-rendering="auto" stroke="rgb(160,0,0)"/>
<rect x="224" y="424" clip-path="url(#clipPath1)" fill="rgb(160,0,0)" width="5" shape-rendering="auto" height="5" stroke="none"/>
<line clip-path="url(#clipPath1)" fill="none" x1="226" x2="271" y1="426" y2="386" shape-rendering="auto" stroke="rgb(160,0,0)"/>
<rect x="269" y="384" clip-path="url(#clipPath1)" fill="rgb(160,0,0)" width="5" shape-rendering="auto" height="5" stroke="none"/>
<line clip-path="url(#clipPath1)" fill="none" x1="271" x2="292" y1="386" y2="367" shape-rendering="auto" stroke="rgb(160,0,0)"/>
<rect x="290" y="365" clip-path="url(#clipPath1)" fill="rgb(160,0,0)" width="5" shape-rendering="auto" height="5" stroke="none"/>
<line clip-path="url(#clipPath1)" fill="none" x1="292" x2="306" y1="367" y2="354" shape-rendering="auto" stroke="rgb(160,0,0)"/>
<rect x="304" y="352" clip-path="url(#clipPath1)" fill="rgb(160,0,0)" width="5" shape-rendering="auto" height="5" stroke="none"/>
<line clip-path="url(#clipPath1)" fill="none" x1="306" x2="337" y1="354" y2="328" shape-rendering="auto" stroke="rgb(160,0,0)"/>
<rect x="335" y="326" clip-path="url(#clipPath1)" fill="rgb(160,0,0)" width="5" shape-rendering="auto" height="5" stroke="none"/>
<circle clip-path="url(#clipPath1)" fill="teal" shape-rendering="auto" r="2" cx="145" cy="481" stroke="none"/>
<line clip-path="url(#clipPath1)" fill="none" x1="145" x2="184" y1="481" y2="474" shape-rendering="auto" stroke="teal"/>
<circle clip-path="url(#clipPath1)" fill="teal" shape-rendering="auto" r="2" cx="184" cy="474" stroke="none"/>
<line clip-path="url(#clipPath1)" fill="none" x1="184" x2="217" y1="474" y2="464" shape-rendering="auto" stroke="teal"/>
<circle clip-path="url(#clipPath1)" fill="teal" shape-rendering="auto" r="2" cx="217" cy="464" stroke="none"/>
<line clip-path="url(#clipPath1)" fill="none" x1="217" x2="221" y1="464" y2="463" shape-rendering="auto" stroke="teal"/>
<circle clip-path="url(#clipPath1)" fill="teal" shape-rendering="auto" r="2" cx="221" cy="463" stroke="none"/>
<line clip-path="url(#clipPath1)" fill="none" x1="221" x2="227" y1="463" y2="460" shape-rendering="auto" stroke="teal"/>
<circle clip-path="url(#clipPath1)" fill="teal" shape-rendering="auto" r="2" cx="227" cy="460" stroke="none"/>
<line clip-path="url(#clipPath1)" fill="none" x1="227" x2="241" y1="460" y2="452" shape-rendering="auto" stroke="teal"/>
<circle clip-path="url(#clipPath1)" fill="teal" shape-rendering="auto" r="2" cx="241" cy="452" stroke="none"/>
<line clip-path="url(#clipPath1)" fill="none" x1="241" x2="257" y1="452" y2="441" shape-rendering="auto" stroke="teal"/>
<circle clip-path="url(#clipPath1)" fill="teal" shape-rendering="auto" r="2" cx="257" cy="441" stroke="none"/>
<line clip-path="url(#clipPath1)" fill="none" x1="257" x2="331" y1="441" y2="399" shape-rendering="auto" stroke="teal"/>
<circle clip-path="url(#clipPath1)" fill="teal" shape-rendering="auto" r="2" cx="331" cy="399" stroke="none"/>
<line clip-path="url(#clipPath1)" fill="none" x1="331" x2="333" y1="399" y2="398" shape-rendering="auto" stroke="teal"/>
<circle clip-path="url(#clipPath1)" fill="teal" shape-rendering="auto" r="2" cx="333" cy="398" stroke="none"/>
<line clip-path="url(#clipPath1)" fill="none" x1="333" x2="342" y1="398" y2="392" shape-rendering="auto" stroke="teal"/>
<circle clip-path="url(#clipPath1)" fill="teal" shape-rendering="auto" r="2" cx="342" cy="392" stroke="none"/>
<line clip-path="url(#clipPath1)" fill="none" x1="342" x2="351" y1="392" y2="387" shape-rendering="auto" stroke="teal"/>
<circle clip-path="url(#clipPath1)" fill="teal" shape-rendering="auto" r="2" cx="351" cy="387" stroke="none"/>
<line clip-path="url(#clipPath1)" fill="none" x1="351" x2="364" y1="387" y2="378" shape-rendering="auto" stroke="teal"/>
<circle clip-path="url(#clipPath1)" fill="teal" shape-rendering="auto" r="2" cx="364" cy="378" stroke="none"/>
<line clip-path="url(#clipPath1)" fill="none" x1="364" x2="369" y1="378" y2="374" shape-rendering="auto" stroke="teal"/>
<circle clip-path="url(#clipPath1)" fill="teal" shape-rendering="auto" r="2" cx="369" cy="374" stroke="none"/>
<line clip-path="url(#clipPath1)" fill="none" x1="369" x2="438" y1="374" y2="325" shape-rendering="auto" stroke="teal"/>
<circle clip-path="url(#clipPath1)" fill="teal" shape-rendering="auto" r="2" cx="438" cy="325" stroke="none"/>
<line clip-path="url(#clipPath1)" fill="none" x1="438" x2="453" y1="325" y2="316" shape-rendering="auto" stroke="teal"/>
<circle clip-path="url(#clipPath1)" fill="teal" shape-rendering="auto" r="2" cx="453" cy="316" stroke="none"/>
<line clip-path="url(#clipPath1)" fill="none" x1="453" x2="514" y1="316" y2="280" shape-rendering="auto" stroke="teal"/>
<circle clip-path="url(#clipPath1)" fill="teal" shape-rendering="auto" r="2" cx="514" cy="280" stroke="none"/>
<line clip-path="url(#clipPath1)" fill="none" x1="514" x2="623" y1="280" y2="228" shape-rendering="auto" stroke="teal"/>
<circle clip-path="url(#clipPath1)" fill="teal" shape-rendering="auto" r="2" cx="623" cy="228" stroke="none"/>
<line clip-path="url(#clipPath1)" fill="none" x1="623" x2="624" y1="228" y2="228" shape-rendering="auto" stroke="teal"/>
<circle clip-path="url(#clipPath1)" fill="teal" shape-rendering="auto" r="2" cx="624" cy="228" stroke="none"/>
<line clip-path="url(#clipPath1)" fill="none" x1="624" x2="815" y1="228" y2="157" shape-rendering="auto" stroke="teal"/>
<circle clip-path="url(#clipPath1)" fill="teal" shape-rendering="auto" r="2" cx="815" cy="157" stroke="none"/>
<rect x="26" y="39" clip-path="url(#clipPath2)" fill="none" width="799" shape-rendering="auto" height="473" stroke="black"/>
</g>
<g text-rendering="geometricPrecision" font-size="13" stroke-linecap="butt">
<text xml:space="preserve" x="237" y="13" clip-path="url(#clipPath2)" stroke="none">timeavg(number of seeders) P2PTorrentFlatNet.tracker.tcpApp[0]</text>
<line clip-path="url(#clipPath2)" fill="none" x1="26" x2="825" y1="37" y2="37"/>
<line clip-path="url(#clipPath2)" fill="none" x1="26" x2="825" y1="514" y2="514"/>
<line clip-path="url(#clipPath2)" fill="none" x1="26" x2="26" y1="33" y2="37"/>
<line clip-path="url(#clipPath2)" fill="none" x1="26" x2="26" y1="518" y2="514"/>
<text font-size="11" x="25" y="30" clip-path="url(#clipPath2)" stroke="none" xml:space="preserve">0</text>
<text font-size="11" x="25" y="530" clip-path="url(#clipPath2)" stroke="none" xml:space="preserve">0</text>
<line clip-path="url(#clipPath2)" fill="none" x1="57" x2="57" y1="35" y2="37"/>
<line clip-path="url(#clipPath2)" fill="none" x1="57" x2="57" y1="516" y2="514"/>
<line clip-path="url(#clipPath2)" fill="none" x1="88" x2="88" y1="33" y2="37"/>
<line clip-path="url(#clipPath2)" fill="none" x1="88" x2="88" y1="518" y2="514"/>
<text font-size="11" x="87" y="30" clip-path="url(#clipPath2)" stroke="none" xml:space="preserve">2</text>
<text font-size="11" x="87" y="530" clip-path="url(#clipPath2)" stroke="none" xml:space="preserve">2</text>
<line clip-path="url(#clipPath2)" fill="none" x1="119" x2="119" y1="35" y2="37"/>
<line clip-path="url(#clipPath2)" fill="none" x1="119" x2="119" y1="516" y2="514"/>
<line clip-path="url(#clipPath2)" fill="none" x1="150" x2="150" y1="33" y2="37"/>
<line clip-path="url(#clipPath2)" fill="none" x1="150" x2="150" y1="518" y2="514"/>
<text font-size="11" x="149" y="30" clip-path="url(#clipPath2)" stroke="none" xml:space="preserve">4</text>
<text font-size="11" x="149" y="530" clip-path="url(#clipPath2)" stroke="none" xml:space="preserve">4</text>
<line clip-path="url(#clipPath2)" fill="none" x1="181" x2="181" y1="35" y2="37"/>
<line clip-path="url(#clipPath2)" fill="none" x1="181" x2="181" y1="516" y2="514"/>
<line clip-path="url(#clipPath2)" fill="none" x1="212" x2="212" y1="33" y2="37"/>
<line clip-path="url(#clipPath2)" fill="none" x1="212" x2="212" y1="518" y2="514"/>
<text font-size="11" x="211" y="30" clip-path="url(#clipPath2)" stroke="none" xml:space="preserve">6</text>
<text font-size="11" x="211" y="530" clip-path="url(#clipPath2)" stroke="none" xml:space="preserve">6</text>
<line clip-path="url(#clipPath2)" fill="none" x1="243" x2="243" y1="35" y2="37"/>
<line clip-path="url(#clipPath2)" fill="none" x1="243" x2="243" y1="516" y2="514"/>
<line clip-path="url(#clipPath2)" fill="none" x1="274" x2="274" y1="33" y2="37"/>
<line clip-path="url(#clipPath2)" fill="none" x1="274" x2="274" y1="518" y2="514"/>
<text font-size="11" x="273" y="30" clip-path="url(#clipPath2)" stroke="none" xml:space="preserve">8</text>
<text font-size="11" x="273" y="530" clip-path="url(#clipPath2)" stroke="none" xml:space="preserve">8</text>
<line clip-path="url(#clipPath2)" fill="none" x1="306" x2="306" y1="35" y2="37"/>
<line clip-path="url(#clipPath2)" fill="none" x1="306" x2="306" y1="516" y2="514"/>
<line clip-path="url(#clipPath2)" fill="none" x1="337" x2="337" y1="33" y2="37"/>
<line clip-path="url(#clipPath2)" fill="none" x1="337" x2="337" y1="518" y2="514"/>
<text font-size="11" x="333" y="30" clip-path="url(#clipPath2)" stroke="none" xml:space="preserve">10</text>
<text font-size="11" x="333" y="530" clip-path="url(#clipPath2)" stroke="none" xml:space="preserve">10</text>
<line clip-path="url(#clipPath2)" fill="none" x1="368" x2="368" y1="35" y2="37"/>
<line clip-path="url(#clipPath2)" fill="none" x1="368" x2="368" y1="516" y2="514"/>
<line clip-path="url(#clipPath2)" fill="none" x1="399" x2="399" y1="33" y2="37"/>
<line clip-path="url(#clipPath2)" fill="none" x1="399" x2="399" y1="518" y2="514"/>
<text font-size="11" x="395" y="30" clip-path="url(#clipPath2)" stroke="none" xml:space="preserve">12</text>
<text font-size="11" x="395" y="530" clip-path="url(#clipPath2)" stroke="none" xml:space="preserve">12</text>
<line clip-path="url(#clipPath2)" fill="none" x1="430" x2="430" y1="35" y2="37"/>
<line clip-path="url(#clipPath2)" fill="none" x1="430" x2="430" y1="516" y2="514"/>
<line clip-path="url(#clipPath2)" fill="none" x1="461" x2="461" y1="33" y2="37"/>
<line clip-path="url(#clipPath2)" fill="none" x1="461" x2="461" y1="518" y2="514"/>
<text font-size="11" x="457" y="30" clip-path="url(#clipPath2)" stroke="none" xml:space="preserve">14</text>
<text font-size="11" x="457" y="530" clip-path="url(#clipPath2)" stroke="none" xml:space="preserve">14</text>
<line clip-path="url(#clipPath2)" fill="none" x1="492" x2="492" y1="35" y2="37"/>
<line clip-path="url(#clipPath2)" fill="none" x1="492" x2="492" y1="516" y2="514"/>
<line clip-path="url(#clipPath2)" fill="none" x1="523" x2="523" y1="33" y2="37"/>
<line clip-path="url(#clipPath2)" fill="none" x1="523" x2="523" y1="518" y2="514"/>
<text font-size="11" x="519" y="30" clip-path="url(#clipPath2)" stroke="none" xml:space="preserve">16</text>
<text font-size="11" x="519" y="530" clip-path="url(#clipPath2)" stroke="none" xml:space="preserve">16</text>
<line clip-path="url(#clipPath2)" fill="none" x1="554" x2="554" y1="35" y2="37"/>
<line clip-path="url(#clipPath2)" fill="none" x1="554" x2="554" y1="516" y2="514"/>
<line clip-path="url(#clipPath2)" fill="none" x1="586" x2="586" y1="33" y2="37"/>
<line clip-path="url(#clipPath2)" fill="none" x1="586" x2="586" y1="518" y2="514"/>
<text font-size="11" x="582" y="30" clip-path="url(#clipPath2)" stroke="none" xml:space="preserve">18</text>
<text font-size="11" x="582" y="530" clip-path="url(#clipPath2)" stroke="none" xml:space="preserve">18</text>
<line clip-path="url(#clipPath2)" fill="none" x1="617" x2="617" y1="35" y2="37"/>
<line clip-path="url(#clipPath2)" fill="none" x1="617" x2="617" y1="516" y2="514"/>
<line clip-path="url(#clipPath2)" fill="none" x1="648" x2="648" y1="33" y2="37"/>
<line clip-path="url(#clipPath2)" fill="none" x1="648" x2="648" y1="518" y2="514"/>
<text font-size="11" x="644" y="30" clip-path="url(#clipPath2)" stroke="none" xml:space="preserve">20</text>
<text font-size="11" x="644" y="530" clip-path="url(#clipPath2)" stroke="none" xml:space="preserve">20</text>
<line clip-path="url(#clipPath2)" fill="none" x1="679" x2="679" y1="35" y2="37"/>
<line clip-path="url(#clipPath2)" fill="none" x1="679" x2="679" y1="516" y2="514"/>
<line clip-path="url(#clipPath2)" fill="none" x1="710" x2="710" y1="33" y2="37"/>
<line clip-path="url(#clipPath2)" fill="none" x1="710" x2="710" y1="518" y2="514"/>
<text font-size="11" x="706" y="30" clip-path="url(#clipPath2)" stroke="none" xml:space="preserve">22</text>
<text font-size="11" x="706" y="530" clip-path="url(#clipPath2)" stroke="none" xml:space="preserve">22</text>
<line clip-path="url(#clipPath2)" fill="none" x1="741" x2="741" y1="35" y2="37"/>
<line clip-path="url(#clipPath2)" fill="none" x1="741" x2="741" y1="516" y2="514"/>
<line clip-path="url(#clipPath2)" fill="none" x1="772" x2="772" y1="33" y2="37"/>
<line clip-path="url(#clipPath2)" fill="none" x1="772" x2="772" y1="518" y2="514"/>
<text font-size="11" x="768" y="30" clip-path="url(#clipPath2)" stroke="none" xml:space="preserve">24</text>
<text font-size="11" x="768" y="530" clip-path="url(#clipPath2)" stroke="none" xml:space="preserve">24</text>
<line clip-path="url(#clipPath2)" fill="none" x1="803" x2="803" y1="35" y2="37"/>
<line clip-path="url(#clipPath2)" fill="none" x1="803" x2="803" y1="516" y2="514"/>
<line clip-path="url(#clipPath2)" fill="none" x1="24" x2="24" y1="39" y2="512"/>
<line clip-path="url(#clipPath2)" fill="none" x1="827" x2="827" y1="39" y2="512"/>
<line clip-path="url(#clipPath2)" fill="none" x1="20" x2="24" y1="512" y2="512"/>
<line clip-path="url(#clipPath2)" fill="none" x1="831" x2="827" y1="512" y2="512"/>
<text font-size="11" x="14" y="517" clip-path="url(#clipPath2)" stroke="none" xml:space="preserve">0</text>
<text font-size="11" x="834" y="517" clip-path="url(#clipPath2)" stroke="none" xml:space="preserve">0</text>
<line clip-path="url(#clipPath2)" fill="none" x1="22" x2="24" y1="481" y2="481"/>
<line clip-path="url(#clipPath2)" fill="none" x1="829" x2="827" y1="481" y2="481"/>
<line clip-path="url(#clipPath2)" fill="none" x1="20" x2="24" y1="451" y2="451"/>
<line clip-path="url(#clipPath2)" fill="none" x1="831" x2="827" y1="451" y2="451"/>
<text font-size="11" x="14" y="456" clip-path="url(#clipPath2)" stroke="none" xml:space="preserve">2</text>
<text font-size="11" x="834" y="456" clip-path="url(#clipPath2)" stroke="none" xml:space="preserve">2</text>
<line clip-path="url(#clipPath2)" fill="none" x1="22" x2="24" y1="420" y2="420"/>
<line clip-path="url(#clipPath2)" fill="none" x1="829" x2="827" y1="420" y2="420"/>
<line clip-path="url(#clipPath2)" fill="none" x1="20" x2="24" y1="390" y2="390"/>
<line clip-path="url(#clipPath2)" fill="none" x1="831" x2="827" y1="390" y2="390"/>
<text font-size="11" x="14" y="395" clip-path="url(#clipPath2)" stroke="none" xml:space="preserve">4</text>
<text font-size="11" x="834" y="395" clip-path="url(#clipPath2)" stroke="none" xml:space="preserve">4</text>
<line clip-path="url(#clipPath2)" fill="none" x1="22" x2="24" y1="360" y2="360"/>
<line clip-path="url(#clipPath2)" fill="none" x1="829" x2="827" y1="360" y2="360"/>
<line clip-path="url(#clipPath2)" fill="none" x1="20" x2="24" y1="329" y2="329"/>
<line clip-path="url(#clipPath2)" fill="none" x1="831" x2="827" y1="329" y2="329"/>
<text font-size="11" x="14" y="334" clip-path="url(#clipPath2)" stroke="none" xml:space="preserve">6</text>
<text font-size="11" x="834" y="334" clip-path="url(#clipPath2)" stroke="none" xml:space="preserve">6</text>
<line clip-path="url(#clipPath2)" fill="none" x1="22" x2="24" y1="299" y2="299"/>
<line clip-path="url(#clipPath2)" fill="none" x1="829" x2="827" y1="299" y2="299"/>
<line clip-path="url(#clipPath2)" fill="none" x1="20" x2="24" y1="269" y2="269"/>
<line clip-path="url(#clipPath2)" fill="none" x1="831" x2="827" y1="269" y2="269"/>
<text font-size="11" x="14" y="274" clip-path="url(#clipPath2)" stroke="none" xml:space="preserve">8</text>
<text font-size="11" x="834" y="274" clip-path="url(#clipPath2)" stroke="none" xml:space="preserve">8</text>
<line clip-path="url(#clipPath2)" fill="none" x1="22" x2="24" y1="238" y2="238"/>
<line clip-path="url(#clipPath2)" fill="none" x1="829" x2="827" y1="238" y2="238"/>
<line clip-path="url(#clipPath2)" fill="none" x1="20" x2="24" y1="208" y2="208"/>
<line clip-path="url(#clipPath2)" fill="none" x1="831" x2="827" y1="208" y2="208"/>
<text font-size="11" x="9" y="213" clip-path="url(#clipPath2)" stroke="none" xml:space="preserve">10</text>
<text font-size="11" x="834" y="213" clip-path="url(#clipPath2)" stroke="none" xml:space="preserve">10</text>
<line clip-path="url(#clipPath2)" fill="none" x1="22" x2="24" y1="177" y2="177"/>
<line clip-path="url(#clipPath2)" fill="none" x1="829" x2="827" y1="177" y2="177"/>
<line clip-path="url(#clipPath2)" fill="none" x1="20" x2="24" y1="147" y2="147"/>
<line clip-path="url(#clipPath2)" fill="none" x1="831" x2="827" y1="147" y2="147"/>
<text font-size="11" x="9" y="152" clip-path="url(#clipPath2)" stroke="none" xml:space="preserve">12</text>
<text font-size="11" x="834" y="152" clip-path="url(#clipPath2)" stroke="none" xml:space="preserve">12</text>
<line clip-path="url(#clipPath2)" fill="none" x1="22" x2="24" y1="117" y2="117"/>
<line clip-path="url(#clipPath2)" fill="none" x1="829" x2="827" y1="117" y2="117"/>
<line clip-path="url(#clipPath2)" fill="none" x1="20" x2="24" y1="86" y2="86"/>
<line clip-path="url(#clipPath2)" fill="none" x1="831" x2="827" y1="86" y2="86"/>
<text font-size="11" x="9" y="91" clip-path="url(#clipPath2)" stroke="none" xml:space="preserve">14</text>
<text font-size="11" x="834" y="91" clip-path="url(#clipPath2)" stroke="none" xml:space="preserve">14</text>
<line clip-path="url(#clipPath2)" fill="none" x1="22" x2="24" y1="56" y2="56"/>
<line clip-path="url(#clipPath2)" fill="none" x1="829" x2="827" y1="56" y2="56"/>
</g>
</g>
</svg>
