<?xml version="1.0" encoding="UTF-8"?><svg xmlns="http://www.w3.org/2000/svg" xmlns:xlink="http://www.w3.org/1999/xlink" stroke-dasharray="none" shape-rendering="auto" font-family="'Dialog'" width="851" text-rendering="auto" fill-opacity="1" contentScriptType="text/ecmascript" color-interpolation="auto" color-rendering="auto" preserveAspectRatio="xMidYMid meet" font-size="12" fill="black" stroke="black" image-rendering="auto" stroke-miterlimit="10" zoomAndPan="magnify" version="1.0" stroke-linecap="square" stroke-linejoin="miter" contentStyleType="text/css" font-style="normal" height="535" stroke-width="1" stroke-dashoffset="0" font-weight="normal" stroke-opacity="1">
<!--Generated by the Batik Graphics2D SVG Generator-->
<defs id="genericDefs"/>
<g>
<defs id="defs1">
<clipPath clipPathUnits="userSpaceOnUse" id="clipPath1">
<path d="M31 38 L820 38 L820 513 L31 513 L31 38 Z"/>
</clipPath>
<clipPath clipPathUnits="userSpaceOnUse" id="clipPath2">
<path d="M-1 -1 L852 -1 L852 536 L-1 536 L-1 -1 Z"/>
</clipPath>
</defs>
<g font-size="15" fill="white" text-rendering="geometricPrecision" font-family="'Ubuntu'" stroke-linejoin="round" stroke="white" stroke-width="0" stroke-miterlimit="0">
<rect x="32" y="39" clip-path="url(#clipPath1)" width="787" height="473" stroke="none"/>
</g>
<g font-size="15" stroke-linecap="butt" fill="rgb(204,204,204)" text-rendering="geometricPrecision" font-family="'Ubuntu'" stroke-dasharray="3,3" stroke="rgb(204,204,204)">
<line clip-path="url(#clipPath1)" fill="none" x1="32" x2="32" y1="39" y2="512"/>
<line clip-path="url(#clipPath1)" fill="none" x1="93" x2="93" y1="39" y2="512"/>
<line clip-path="url(#clipPath1)" fill="none" x1="154" x2="154" y1="39" y2="512"/>
<line clip-path="url(#clipPath1)" fill="none" x1="215" x2="215" y1="39" y2="512"/>
<line clip-path="url(#clipPath1)" fill="none" x1="277" x2="277" y1="39" y2="512"/>
<line clip-path="url(#clipPath1)" fill="none" x1="338" x2="338" y1="39" y2="512"/>
<line clip-path="url(#clipPath1)" fill="none" x1="399" x2="399" y1="39" y2="512"/>
<line clip-path="url(#clipPath1)" fill="none" x1="461" x2="461" y1="39" y2="512"/>
<line clip-path="url(#clipPath1)" fill="none" x1="522" x2="522" y1="39" y2="512"/>
<line clip-path="url(#clipPath1)" fill="none" x1="583" x2="583" y1="39" y2="512"/>
<line clip-path="url(#clipPath1)" fill="none" x1="644" x2="644" y1="39" y2="512"/>
<line clip-path="url(#clipPath1)" fill="none" x1="706" x2="706" y1="39" y2="512"/>
<line clip-path="url(#clipPath1)" fill="none" x1="767" x2="767" y1="39" y2="512"/>
<line clip-path="url(#clipPath1)" fill="none" x1="32" x2="819" y1="512" y2="512"/>
<line clip-path="url(#clipPath1)" fill="none" x1="32" x2="819" y1="452" y2="452"/>
<line clip-path="url(#clipPath1)" fill="none" x1="32" x2="819" y1="392" y2="392"/>
<line clip-path="url(#clipPath1)" fill="none" x1="32" x2="819" y1="332" y2="332"/>
<line clip-path="url(#clipPath1)" fill="none" x1="32" x2="819" y1="272" y2="272"/>
<line clip-path="url(#clipPath1)" fill="none" x1="32" x2="819" y1="212" y2="212"/>
<line clip-path="url(#clipPath1)" fill="none" x1="32" x2="819" y1="152" y2="152"/>
<line clip-path="url(#clipPath1)" fill="none" x1="32" x2="819" y1="92" y2="92"/>
<rect x="30" y="510" clip-path="url(#clipPath1)" fill="rgb(0,0,139)" width="5" height="5" stroke="none"/>
<line clip-path="url(#clipPath1)" fill="none" x1="32" x2="35" y1="512" y2="511" stroke-dasharray="none" stroke="rgb(0,0,139)"/>
<rect x="33" y="509" clip-path="url(#clipPath1)" fill="rgb(0,0,139)" width="5" stroke-dasharray="none" height="5" stroke="none"/>
<circle clip-path="url(#clipPath1)" fill="rgb(238,0,0)" stroke-dasharray="none" r="2" cx="32" cy="512" stroke="none"/>
<line clip-path="url(#clipPath1)" fill="none" x1="32" x2="35" y1="512" y2="511" stroke-dasharray="none" stroke="rgb(238,0,0)"/>
<circle clip-path="url(#clipPath1)" fill="rgb(238,0,0)" stroke-dasharray="none" r="2" cx="35" cy="511" stroke="none"/>
<line clip-path="url(#clipPath1)" fill="none" x1="35" x2="36" y1="511" y2="511" stroke-dasharray="none" stroke="rgb(238,0,0)"/>
<circle clip-path="url(#clipPath1)" fill="rgb(238,0,0)" stroke-dasharray="none" r="2" cx="36" cy="511" stroke="none"/>
<polygon fill="rgb(0,100,0)" stroke-dasharray="none" clip-path="url(#clipPath1)" points=" 32 509 35 514 29 514 32 509" stroke="none"/>
<line clip-path="url(#clipPath1)" fill="none" x1="32" x2="35" y1="512" y2="511" stroke-dasharray="none" stroke="rgb(0,100,0)"/>
<polygon fill="rgb(0,100,0)" stroke-dasharray="none" clip-path="url(#clipPath1)" points=" 35 508 38 513 32 513 35 508" stroke="none"/>
<line clip-path="url(#clipPath1)" fill="none" x1="35" x2="36" y1="511" y2="511" stroke-dasharray="none" stroke="rgb(0,100,0)"/>
<polygon fill="rgb(0,100,0)" stroke-dasharray="none" clip-path="url(#clipPath1)" points=" 36 508 39 513 33 513 36 508" stroke="none"/>
<polygon fill="rgb(255,165,0)" stroke-dasharray="none" clip-path="url(#clipPath1)" points=" 29 512 32 509 35 512 32 515 29 512" stroke="none"/>
<line clip-path="url(#clipPath1)" fill="none" x1="32" x2="35" y1="512" y2="511" stroke-dasharray="none" stroke="rgb(255,165,0)"/>
<polygon fill="rgb(255,165,0)" stroke-dasharray="none" clip-path="url(#clipPath1)" points=" 32 511 35 508 38 511 35 514 32 511" stroke="none"/>
<line clip-path="url(#clipPath1)" fill="none" x1="35" x2="128" y1="511" y2="497" stroke-dasharray="none" stroke="rgb(255,165,0)"/>
<polygon fill="rgb(255,165,0)" stroke-dasharray="none" clip-path="url(#clipPath1)" points=" 125 497 128 494 131 497 128 500 125 497" stroke="none"/>
<line clip-path="url(#clipPath1)" fill="none" x1="30" x2="34" y1="510" y2="514" stroke-dasharray="none" stroke="green"/>
<line clip-path="url(#clipPath1)" fill="none" x1="30" x2="34" y1="514" y2="510" stroke-dasharray="none" stroke="green"/>
<line clip-path="url(#clipPath1)" fill="none" x1="32" x2="35" y1="512" y2="511" stroke-dasharray="none" stroke="green"/>
<line clip-path="url(#clipPath1)" fill="none" x1="33" x2="37" y1="509" y2="513" stroke-dasharray="none" stroke="green"/>
<line clip-path="url(#clipPath1)" fill="none" x1="33" x2="37" y1="513" y2="509" stroke-dasharray="none" stroke="green"/>
<line clip-path="url(#clipPath1)" fill="none" x1="35" x2="36" y1="511" y2="511" stroke-dasharray="none" stroke="green"/>
<line clip-path="url(#clipPath1)" fill="none" x1="34" x2="38" y1="509" y2="513" stroke-dasharray="none" stroke="green"/>
<line clip-path="url(#clipPath1)" fill="none" x1="34" x2="38" y1="513" y2="509" stroke-dasharray="none" stroke="green"/>
<line clip-path="url(#clipPath1)" fill="none" x1="36" x2="71" y1="511" y2="506" stroke-dasharray="none" stroke="green"/>
<line clip-path="url(#clipPath1)" fill="none" x1="69" x2="73" y1="504" y2="508" stroke-dasharray="none" stroke="green"/>
<line clip-path="url(#clipPath1)" fill="none" x1="69" x2="73" y1="508" y2="504" stroke-dasharray="none" stroke="green"/>
<line clip-path="url(#clipPath1)" fill="none" x1="71" x2="128" y1="506" y2="495" stroke-dasharray="none" stroke="green"/>
<line clip-path="url(#clipPath1)" fill="none" x1="126" x2="130" y1="493" y2="497" stroke-dasharray="none" stroke="green"/>
<line clip-path="url(#clipPath1)" fill="none" x1="126" x2="130" y1="497" y2="493" stroke-dasharray="none" stroke="green"/>
<line clip-path="url(#clipPath1)" fill="none" x1="30" x2="34" y1="512" y2="512" stroke-dasharray="none" stroke="rgb(169,169,169)"/>
<line clip-path="url(#clipPath1)" fill="none" x1="32" x2="32" y1="510" y2="514" stroke-dasharray="none" stroke="rgb(169,169,169)"/>
<line clip-path="url(#clipPath1)" fill="none" x1="32" x2="144" y1="512" y2="507" stroke-dasharray="none" stroke="rgb(169,169,169)"/>
<line clip-path="url(#clipPath1)" fill="none" x1="142" x2="146" y1="507" y2="507" stroke-dasharray="none" stroke="rgb(169,169,169)"/>
<line clip-path="url(#clipPath1)" fill="none" x1="144" x2="144" y1="505" y2="509" stroke-dasharray="none" stroke="rgb(169,169,169)"/>
<line clip-path="url(#clipPath1)" fill="none" x1="144" x2="157" y1="507" y2="506" stroke-dasharray="none" stroke="rgb(169,169,169)"/>
<line clip-path="url(#clipPath1)" fill="none" x1="155" x2="159" y1="506" y2="506" stroke-dasharray="none" stroke="rgb(169,169,169)"/>
<line clip-path="url(#clipPath1)" fill="none" x1="157" x2="157" y1="504" y2="508" stroke-dasharray="none" stroke="rgb(169,169,169)"/>
<line clip-path="url(#clipPath1)" fill="none" x1="157" x2="246" y1="506" y2="496" stroke-dasharray="none" stroke="rgb(169,169,169)"/>
<line clip-path="url(#clipPath1)" fill="none" x1="244" x2="248" y1="496" y2="496" stroke-dasharray="none" stroke="rgb(169,169,169)"/>
<line clip-path="url(#clipPath1)" fill="none" x1="246" x2="246" y1="494" y2="498" stroke-dasharray="none" stroke="rgb(169,169,169)"/>
<line clip-path="url(#clipPath1)" fill="none" x1="246" x2="261" y1="496" y2="493" stroke-dasharray="none" stroke="rgb(169,169,169)"/>
<line clip-path="url(#clipPath1)" fill="none" x1="259" x2="263" y1="493" y2="493" stroke-dasharray="none" stroke="rgb(169,169,169)"/>
<line clip-path="url(#clipPath1)" fill="none" x1="261" x2="261" y1="491" y2="495" stroke-dasharray="none" stroke="rgb(169,169,169)"/>
<line clip-path="url(#clipPath1)" fill="none" x1="261" x2="331" y1="493" y2="480" stroke-dasharray="none" stroke="rgb(169,169,169)"/>
<line clip-path="url(#clipPath1)" fill="none" x1="329" x2="333" y1="480" y2="480" stroke-dasharray="none" stroke="rgb(169,169,169)"/>
<line clip-path="url(#clipPath1)" fill="none" x1="331" x2="331" y1="478" y2="482" stroke-dasharray="none" stroke="rgb(169,169,169)"/>
<line clip-path="url(#clipPath1)" fill="none" x1="331" x2="377" y1="480" y2="469" stroke-dasharray="none" stroke="rgb(169,169,169)"/>
<line clip-path="url(#clipPath1)" fill="none" x1="375" x2="379" y1="469" y2="469" stroke-dasharray="none" stroke="rgb(169,169,169)"/>
<line clip-path="url(#clipPath1)" fill="none" x1="377" x2="377" y1="467" y2="471" stroke-dasharray="none" stroke="rgb(169,169,169)"/>
<line clip-path="url(#clipPath1)" fill="none" x1="377" x2="393" y1="469" y2="464" stroke-dasharray="none" stroke="rgb(169,169,169)"/>
<line clip-path="url(#clipPath1)" fill="none" x1="391" x2="395" y1="464" y2="464" stroke-dasharray="none" stroke="rgb(169,169,169)"/>
<line clip-path="url(#clipPath1)" fill="none" x1="393" x2="393" y1="462" y2="466" stroke-dasharray="none" stroke="rgb(169,169,169)"/>
<line clip-path="url(#clipPath1)" fill="none" x1="393" x2="401" y1="464" y2="462" stroke-dasharray="none" stroke="rgb(169,169,169)"/>
<line clip-path="url(#clipPath1)" fill="none" x1="399" x2="403" y1="462" y2="462" stroke-dasharray="none" stroke="rgb(169,169,169)"/>
<line clip-path="url(#clipPath1)" fill="none" x1="401" x2="401" y1="460" y2="464" stroke-dasharray="none" stroke="rgb(169,169,169)"/>
<line clip-path="url(#clipPath1)" fill="none" x1="401" x2="413" y1="462" y2="458" stroke-dasharray="none" stroke="rgb(169,169,169)"/>
<line clip-path="url(#clipPath1)" fill="none" x1="411" x2="415" y1="458" y2="458" stroke-dasharray="none" stroke="rgb(169,169,169)"/>
<line clip-path="url(#clipPath1)" fill="none" x1="413" x2="413" y1="456" y2="460" stroke-dasharray="none" stroke="rgb(169,169,169)"/>
<rect x="30" y="510" clip-path="url(#clipPath1)" fill="rgb(160,0,0)" width="5" stroke-dasharray="none" height="5" stroke="none"/>
<line clip-path="url(#clipPath1)" fill="none" x1="32" x2="116" y1="512" y2="508" stroke-dasharray="none" stroke="rgb(160,0,0)"/>
<rect x="114" y="506" clip-path="url(#clipPath1)" fill="rgb(160,0,0)" width="5" stroke-dasharray="none" height="5" stroke="none"/>
<line clip-path="url(#clipPath1)" fill="none" x1="116" x2="137" y1="508" y2="507" stroke-dasharray="none" stroke="rgb(160,0,0)"/>
<rect x="135" y="505" clip-path="url(#clipPath1)" fill="rgb(160,0,0)" width="5" stroke-dasharray="none" height="5" stroke="none"/>
<line clip-path="url(#clipPath1)" fill="none" x1="137" x2="164" y1="507" y2="503" stroke-dasharray="none" stroke="rgb(160,0,0)"/>
<rect x="162" y="501" clip-path="url(#clipPath1)" fill="rgb(160,0,0)" width="5" stroke-dasharray="none" height="5" stroke="none"/>
<line clip-path="url(#clipPath1)" fill="none" x1="164" x2="165" y1="503" y2="503" stroke-dasharray="none" stroke="rgb(160,0,0)"/>
<rect x="163" y="501" clip-path="url(#clipPath1)" fill="rgb(160,0,0)" width="5" stroke-dasharray="none" height="5" stroke="none"/>
<line clip-path="url(#clipPath1)" fill="none" x1="165" x2="220" y1="503" y2="493" stroke-dasharray="none" stroke="rgb(160,0,0)"/>
<rect x="218" y="491" clip-path="url(#clipPath1)" fill="rgb(160,0,0)" width="5" stroke-dasharray="none" height="5" stroke="none"/>
<line clip-path="url(#clipPath1)" fill="none" x1="220" x2="223" y1="493" y2="492" stroke-dasharray="none" stroke="rgb(160,0,0)"/>
<rect x="221" y="490" clip-path="url(#clipPath1)" fill="rgb(160,0,0)" width="5" stroke-dasharray="none" height="5" stroke="none"/>
<line clip-path="url(#clipPath1)" fill="none" x1="223" x2="228" y1="492" y2="490" stroke-dasharray="none" stroke="rgb(160,0,0)"/>
<rect x="226" y="488" clip-path="url(#clipPath1)" fill="rgb(160,0,0)" width="5" stroke-dasharray="none" height="5" stroke="none"/>
<line clip-path="url(#clipPath1)" fill="none" x1="228" x2="229" y1="490" y2="490" stroke-dasharray="none" stroke="rgb(160,0,0)"/>
<rect x="227" y="488" clip-path="url(#clipPath1)" fill="rgb(160,0,0)" width="5" stroke-dasharray="none" height="5" stroke="none"/>
<line clip-path="url(#clipPath1)" fill="none" x1="229" x2="273" y1="490" y2="472" stroke-dasharray="none" stroke="rgb(160,0,0)"/>
<rect x="271" y="470" clip-path="url(#clipPath1)" fill="rgb(160,0,0)" width="5" stroke-dasharray="none" height="5" stroke="none"/>
<line clip-path="url(#clipPath1)" fill="none" x1="273" x2="294" y1="472" y2="463" stroke-dasharray="none" stroke="rgb(160,0,0)"/>
<rect x="292" y="461" clip-path="url(#clipPath1)" fill="rgb(160,0,0)" width="5" stroke-dasharray="none" height="5" stroke="none"/>
<line clip-path="url(#clipPath1)" fill="none" x1="294" x2="308" y1="463" y2="456" stroke-dasharray="none" stroke="rgb(160,0,0)"/>
<rect x="306" y="454" clip-path="url(#clipPath1)" fill="rgb(160,0,0)" width="5" stroke-dasharray="none" height="5" stroke="none"/>
<line clip-path="url(#clipPath1)" fill="none" x1="308" x2="339" y1="456" y2="439" stroke-dasharray="none" stroke="rgb(160,0,0)"/>
<rect x="337" y="437" clip-path="url(#clipPath1)" fill="rgb(160,0,0)" width="5" stroke-dasharray="none" height="5" stroke="none"/>
<circle clip-path="url(#clipPath1)" fill="teal" stroke-dasharray="none" r="2" cx="32" cy="512" stroke="none"/>
<line clip-path="url(#clipPath1)" fill="none" x1="32" x2="149" y1="512" y2="507" stroke-dasharray="none" stroke="teal"/>
<circle clip-path="url(#clipPath1)" fill="teal" stroke-dasharray="none" r="2" cx="149" cy="507" stroke="none"/>
<line clip-path="url(#clipPath1)" fill="none" x1="149" x2="187" y1="507" y2="504" stroke-dasharray="none" stroke="teal"/>
<circle clip-path="url(#clipPath1)" fill="teal" stroke-dasharray="none" r="2" cx="187" cy="504" stroke="none"/>
<line clip-path="url(#clipPath1)" fill="none" x1="187" x2="220" y1="504" y2="500" stroke-dasharray="none" stroke="teal"/>
<circle clip-path="url(#clipPath1)" fill="teal" stroke-dasharray="none" r="2" cx="220" cy="500" stroke="none"/>
<line clip-path="url(#clipPath1)" fill="none" x1="220" x2="224" y1="500" y2="499" stroke-dasharray="none" stroke="teal"/>
<circle clip-path="url(#clipPath1)" fill="teal" stroke-dasharray="none" r="2" cx="224" cy="499" stroke="none"/>
<line clip-path="url(#clipPath1)" fill="none" x1="224" x2="230" y1="499" y2="498" stroke-dasharray="none" stroke="teal"/>
<circle clip-path="url(#clipPath1)" fill="teal" stroke-dasharray="none" r="2" cx="230" cy="498" stroke="none"/>
<line clip-path="url(#clipPath1)" fill="none" x1="230" x2="243" y1="498" y2="495" stroke-dasharray="none" stroke="teal"/>
<circle clip-path="url(#clipPath1)" fill="teal" stroke-dasharray="none" r="2" cx="243" cy="495" stroke="none"/>
<line clip-path="url(#clipPath1)" fill="none" x1="243" x2="259" y1="495" y2="491" stroke-dasharray="none" stroke="teal"/>
<circle clip-path="url(#clipPath1)" fill="teal" stroke-dasharray="none" r="2" cx="259" cy="491" stroke="none"/>
<line clip-path="url(#clipPath1)" fill="none" x1="259" x2="333" y1="491" y2="468" stroke-dasharray="none" stroke="teal"/>
<circle clip-path="url(#clipPath1)" fill="teal" stroke-dasharray="none" r="2" cx="333" cy="468" stroke="none"/>
<line clip-path="url(#clipPath1)" fill="none" x1="333" x2="334" y1="468" y2="467" stroke-dasharray="none" stroke="teal"/>
<circle clip-path="url(#clipPath1)" fill="teal" stroke-dasharray="none" r="2" cx="334" cy="467" stroke="none"/>
<line clip-path="url(#clipPath1)" fill="none" x1="334" x2="344" y1="467" y2="464" stroke-dasharray="none" stroke="teal"/>
<circle clip-path="url(#clipPath1)" fill="teal" stroke-dasharray="none" r="2" cx="344" cy="464" stroke="none"/>
<line clip-path="url(#clipPath1)" fill="none" x1="344" x2="352" y1="464" y2="460" stroke-dasharray="none" stroke="teal"/>
<circle clip-path="url(#clipPath1)" fill="teal" stroke-dasharray="none" r="2" cx="352" cy="460" stroke="none"/>
<line clip-path="url(#clipPath1)" fill="none" x1="352" x2="365" y1="460" y2="454" stroke-dasharray="none" stroke="teal"/>
<circle clip-path="url(#clipPath1)" fill="teal" stroke-dasharray="none" r="2" cx="365" cy="454" stroke="none"/>
<line clip-path="url(#clipPath1)" fill="none" x1="365" x2="370" y1="454" y2="452" stroke-dasharray="none" stroke="teal"/>
<circle clip-path="url(#clipPath1)" fill="teal" stroke-dasharray="none" r="2" cx="370" cy="452" stroke="none"/>
<line clip-path="url(#clipPath1)" fill="none" x1="370" x2="438" y1="452" y2="414" stroke-dasharray="none" stroke="teal"/>
<circle clip-path="url(#clipPath1)" fill="teal" stroke-dasharray="none" r="2" cx="438" cy="414" stroke="none"/>
<line clip-path="url(#clipPath1)" fill="none" x1="438" x2="453" y1="414" y2="405" stroke-dasharray="none" stroke="teal"/>
<circle clip-path="url(#clipPath1)" fill="teal" stroke-dasharray="none" r="2" cx="453" cy="405" stroke="none"/>
<line clip-path="url(#clipPath1)" fill="none" x1="453" x2="513" y1="405" y2="368" stroke-dasharray="none" stroke="teal"/>
<circle clip-path="url(#clipPath1)" fill="teal" stroke-dasharray="none" r="2" cx="513" cy="368" stroke="none"/>
<line clip-path="url(#clipPath1)" fill="none" x1="513" x2="620" y1="368" y2="297" stroke-dasharray="none" stroke="teal"/>
<circle clip-path="url(#clipPath1)" fill="teal" stroke-dasharray="none" r="2" cx="620" cy="297" stroke="none"/>
<line clip-path="url(#clipPath1)" fill="none" x1="620" x2="621" y1="297" y2="296" stroke-dasharray="none" stroke="teal"/>
<circle clip-path="url(#clipPath1)" fill="teal" stroke-dasharray="none" r="2" cx="621" cy="296" stroke="none"/>
<line clip-path="url(#clipPath1)" fill="none" x1="621" x2="809" y1="296" y2="157" stroke-dasharray="none" stroke="teal"/>
<circle clip-path="url(#clipPath1)" fill="teal" stroke-dasharray="none" r="2" cx="809" cy="157" stroke="none"/>
<rect x="32" y="39" clip-path="url(#clipPath2)" fill="none" width="787" stroke-dasharray="none" height="473" stroke="black"/>
</g>
<g text-rendering="geometricPrecision" font-size="13" stroke-linecap="butt">
<text xml:space="preserve" x="235" y="13" clip-path="url(#clipPath2)" stroke="none">integrate(number of seeders) P2PTorrentFlatNet.tracker.tcpApp[0]</text>
<line clip-path="url(#clipPath2)" fill="none" x1="32" x2="819" y1="37" y2="37"/>
<line clip-path="url(#clipPath2)" fill="none" x1="32" x2="819" y1="514" y2="514"/>
<line clip-path="url(#clipPath2)" fill="none" x1="32" x2="32" y1="33" y2="37"/>
<line clip-path="url(#clipPath2)" fill="none" x1="32" x2="32" y1="518" y2="514"/>
<text font-size="11" x="31" y="30" clip-path="url(#clipPath2)" stroke="none" xml:space="preserve">0</text>
<text font-size="11" x="31" y="530" clip-path="url(#clipPath2)" stroke="none" xml:space="preserve">0</text>
<line clip-path="url(#clipPath2)" fill="none" x1="62" x2="62" y1="35" y2="37"/>
<line clip-path="url(#clipPath2)" fill="none" x1="62" x2="62" y1="516" y2="514"/>
<line clip-path="url(#clipPath2)" fill="none" x1="93" x2="93" y1="33" y2="37"/>
<line clip-path="url(#clipPath2)" fill="none" x1="93" x2="93" y1="518" y2="514"/>
<text font-size="11" x="92" y="30" clip-path="url(#clipPath2)" stroke="none" xml:space="preserve">2</text>
<text font-size="11" x="92" y="530" clip-path="url(#clipPath2)" stroke="none" xml:space="preserve">2</text>
<line clip-path="url(#clipPath2)" fill="none" x1="123" x2="123" y1="35" y2="37"/>
<line clip-path="url(#clipPath2)" fill="none" x1="123" x2="123" y1="516" y2="514"/>
<line clip-path="url(#clipPath2)" fill="none" x1="154" x2="154" y1="33" y2="37"/>
<line clip-path="url(#clipPath2)" fill="none" x1="154" x2="154" y1="518" y2="514"/>
<text font-size="11" x="153" y="30" clip-path="url(#clipPath2)" stroke="none" xml:space="preserve">4</text>
<text font-size="11" x="153" y="530" clip-path="url(#clipPath2)" stroke="none" xml:space="preserve">4</text>
<line clip-path="url(#clipPath2)" fill="none" x1="185" x2="185" y1="35" y2="37"/>
<line clip-path="url(#clipPath2)" fill="none" x1="185" x2="185" y1="516" y2="514"/>
<line clip-path="url(#clipPath2)" fill="none" x1="215" x2="215" y1="33" y2="37"/>
<line clip-path="url(#clipPath2)" fill="none" x1="215" x2="215" y1="518" y2="514"/>
<text font-size="11" x="214" y="30" clip-path="url(#clipPath2)" stroke="none" xml:space="preserve">6</text>
<text font-size="11" x="214" y="530" clip-path="url(#clipPath2)" stroke="none" xml:space="preserve">6</text>
<line clip-path="url(#clipPath2)" fill="none" x1="246" x2="246" y1="35" y2="37"/>
<line clip-path="url(#clipPath2)" fill="none" x1="246" x2="246" y1="516" y2="514"/>
<line clip-path="url(#clipPath2)" fill="none" x1="277" x2="277" y1="33" y2="37"/>
<line clip-path="url(#clipPath2)" fill="none" x1="277" x2="277" y1="518" y2="514"/>
<text font-size="11" x="276" y="30" clip-path="url(#clipPath2)" stroke="none" xml:space="preserve">8</text>
<text font-size="11" x="276" y="530" clip-path="url(#clipPath2)" stroke="none" xml:space="preserve">8</text>
<line clip-path="url(#clipPath2)" fill="none" x1="307" x2="307" y1="35" y2="37"/>
<line clip-path="url(#clipPath2)" fill="none" x1="307" x2="307" y1="516" y2="514"/>
<line clip-path="url(#clipPath2)" fill="none" x1="338" x2="338" y1="33" y2="37"/>
<line clip-path="url(#clipPath2)" fill="none" x1="338" x2="338" y1="518" y2="514"/>
<text font-size="11" x="334" y="30" clip-path="url(#clipPath2)" stroke="none" xml:space="preserve">10</text>
<text font-size="11" x="334" y="530" clip-path="url(#clipPath2)" stroke="none" xml:space="preserve">10</text>
<line clip-path="url(#clipPath2)" fill="none" x1="369" x2="369" y1="35" y2="37"/>
<line clip-path="url(#clipPath2)" fill="none" x1="369" x2="369" y1="516" y2="514"/>
<line clip-path="url(#clipPath2)" fill="none" x1="399" x2="399" y1="33" y2="37"/>
<line clip-path="url(#clipPath2)" fill="none" x1="399" x2="399" y1="518" y2="514"/>
<text font-size="11" x="395" y="30" clip-path="url(#clipPath2)" stroke="none" xml:space="preserve">12</text>
<text font-size="11" x="395" y="530" clip-path="url(#clipPath2)" stroke="none" xml:space="preserve">12</text>
<line clip-path="url(#clipPath2)" fill="none" x1="430" x2="430" y1="35" y2="37"/>
<line clip-path="url(#clipPath2)" fill="none" x1="430" x2="430" y1="516" y2="514"/>
<line clip-path="url(#clipPath2)" fill="none" x1="461" x2="461" y1="33" y2="37"/>
<line clip-path="url(#clipPath2)" fill="none" x1="461" x2="461" y1="518" y2="514"/>
<text font-size="11" x="457" y="30" clip-path="url(#clipPath2)" stroke="none" xml:space="preserve">14</text>
<text font-size="11" x="457" y="530" clip-path="url(#clipPath2)" stroke="none" xml:space="preserve">14</text>
<line clip-path="url(#clipPath2)" fill="none" x1="491" x2="491" y1="35" y2="37"/>
<line clip-path="url(#clipPath2)" fill="none" x1="491" x2="491" y1="516" y2="514"/>
<line clip-path="url(#clipPath2)" fill="none" x1="522" x2="522" y1="33" y2="37"/>
<line clip-path="url(#clipPath2)" fill="none" x1="522" x2="522" y1="518" y2="514"/>
<text font-size="11" x="518" y="30" clip-path="url(#clipPath2)" stroke="none" xml:space="preserve">16</text>
<text font-size="11" x="518" y="530" clip-path="url(#clipPath2)" stroke="none" xml:space="preserve">16</text>
<line clip-path="url(#clipPath2)" fill="none" x1="552" x2="552" y1="35" y2="37"/>
<line clip-path="url(#clipPath2)" fill="none" x1="552" x2="552" y1="516" y2="514"/>
<line clip-path="url(#clipPath2)" fill="none" x1="583" x2="583" y1="33" y2="37"/>
<line clip-path="url(#clipPath2)" fill="none" x1="583" x2="583" y1="518" y2="514"/>
<text font-size="11" x="579" y="30" clip-path="url(#clipPath2)" stroke="none" xml:space="preserve">18</text>
<text font-size="11" x="579" y="530" clip-path="url(#clipPath2)" stroke="none" xml:space="preserve">18</text>
<line clip-path="url(#clipPath2)" fill="none" x1="614" x2="614" y1="35" y2="37"/>
<line clip-path="url(#clipPath2)" fill="none" x1="614" x2="614" y1="516" y2="514"/>
<line clip-path="url(#clipPath2)" fill="none" x1="644" x2="644" y1="33" y2="37"/>
<line clip-path="url(#clipPath2)" fill="none" x1="644" x2="644" y1="518" y2="514"/>
<text font-size="11" x="640" y="30" clip-path="url(#clipPath2)" stroke="none" xml:space="preserve">20</text>
<text font-size="11" x="640" y="530" clip-path="url(#clipPath2)" stroke="none" xml:space="preserve">20</text>
<line clip-path="url(#clipPath2)" fill="none" x1="675" x2="675" y1="35" y2="37"/>
<line clip-path="url(#clipPath2)" fill="none" x1="675" x2="675" y1="516" y2="514"/>
<line clip-path="url(#clipPath2)" fill="none" x1="706" x2="706" y1="33" y2="37"/>
<line clip-path="url(#clipPath2)" fill="none" x1="706" x2="706" y1="518" y2="514"/>
<text font-size="11" x="702" y="30" clip-path="url(#clipPath2)" stroke="none" xml:space="preserve">22</text>
<text font-size="11" x="702" y="530" clip-path="url(#clipPath2)" stroke="none" xml:space="preserve">22</text>
<line clip-path="url(#clipPath2)" fill="none" x1="736" x2="736" y1="35" y2="37"/>
<line clip-path="url(#clipPath2)" fill="none" x1="736" x2="736" y1="516" y2="514"/>
<line clip-path="url(#clipPath2)" fill="none" x1="767" x2="767" y1="33" y2="37"/>
<line clip-path="url(#clipPath2)" fill="none" x1="767" x2="767" y1="518" y2="514"/>
<text font-size="11" x="763" y="30" clip-path="url(#clipPath2)" stroke="none" xml:space="preserve">24</text>
<text font-size="11" x="763" y="530" clip-path="url(#clipPath2)" stroke="none" xml:space="preserve">24</text>
<line clip-path="url(#clipPath2)" fill="none" x1="798" x2="798" y1="35" y2="37"/>
<line clip-path="url(#clipPath2)" fill="none" x1="798" x2="798" y1="516" y2="514"/>
<line clip-path="url(#clipPath2)" fill="none" x1="30" x2="30" y1="39" y2="512"/>
<line clip-path="url(#clipPath2)" fill="none" x1="821" x2="821" y1="39" y2="512"/>
<line clip-path="url(#clipPath2)" fill="none" x1="26" x2="30" y1="512" y2="512"/>
<line clip-path="url(#clipPath2)" fill="none" x1="825" x2="821" y1="512" y2="512"/>
<text font-size="11" x="20" y="517" clip-path="url(#clipPath2)" stroke="none" xml:space="preserve">0</text>
<text font-size="11" x="828" y="517" clip-path="url(#clipPath2)" stroke="none" xml:space="preserve">0</text>
<line clip-path="url(#clipPath2)" fill="none" x1="28" x2="30" y1="500" y2="500"/>
<line clip-path="url(#clipPath2)" fill="none" x1="823" x2="821" y1="500" y2="500"/>
<line clip-path="url(#clipPath2)" fill="none" x1="28" x2="30" y1="488" y2="488"/>
<line clip-path="url(#clipPath2)" fill="none" x1="823" x2="821" y1="488" y2="488"/>
<line clip-path="url(#clipPath2)" fill="none" x1="28" x2="30" y1="476" y2="476"/>
<line clip-path="url(#clipPath2)" fill="none" x1="823" x2="821" y1="476" y2="476"/>
<line clip-path="url(#clipPath2)" fill="none" x1="28" x2="30" y1="464" y2="464"/>
<line clip-path="url(#clipPath2)" fill="none" x1="823" x2="821" y1="464" y2="464"/>
<line clip-path="url(#clipPath2)" fill="none" x1="26" x2="30" y1="452" y2="452"/>
<line clip-path="url(#clipPath2)" fill="none" x1="825" x2="821" y1="452" y2="452"/>
<text font-size="11" x="15" y="457" clip-path="url(#clipPath2)" stroke="none" xml:space="preserve">50</text>
<text font-size="11" x="828" y="457" clip-path="url(#clipPath2)" stroke="none" xml:space="preserve">50</text>
<line clip-path="url(#clipPath2)" fill="none" x1="28" x2="30" y1="440" y2="440"/>
<line clip-path="url(#clipPath2)" fill="none" x1="823" x2="821" y1="440" y2="440"/>
<line clip-path="url(#clipPath2)" fill="none" x1="28" x2="30" y1="428" y2="428"/>
<line clip-path="url(#clipPath2)" fill="none" x1="823" x2="821" y1="428" y2="428"/>
<line clip-path="url(#clipPath2)" fill="none" x1="28" x2="30" y1="416" y2="416"/>
<line clip-path="url(#clipPath2)" fill="none" x1="823" x2="821" y1="416" y2="416"/>
<line clip-path="url(#clipPath2)" fill="none" x1="28" x2="30" y1="404" y2="404"/>
<line clip-path="url(#clipPath2)" fill="none" x1="823" x2="821" y1="404" y2="404"/>
<line clip-path="url(#clipPath2)" fill="none" x1="26" x2="30" y1="392" y2="392"/>
<line clip-path="url(#clipPath2)" fill="none" x1="825" x2="821" y1="392" y2="392"/>
<text font-size="11" x="10" y="397" clip-path="url(#clipPath2)" stroke="none" xml:space="preserve">100</text>
<text font-size="11" x="828" y="397" clip-path="url(#clipPath2)" stroke="none" xml:space="preserve">100</text>
<line clip-path="url(#clipPath2)" fill="none" x1="28" x2="30" y1="380" y2="380"/>
<line clip-path="url(#clipPath2)" fill="none" x1="823" x2="821" y1="380" y2="380"/>
<line clip-path="url(#clipPath2)" fill="none" x1="28" x2="30" y1="368" y2="368"/>
<line clip-path="url(#clipPath2)" fill="none" x1="823" x2="821" y1="368" y2="368"/>
<line clip-path="url(#clipPath2)" fill="none" x1="28" x2="30" y1="356" y2="356"/>
<line clip-path="url(#clipPath2)" fill="none" x1="823" x2="821" y1="356" y2="356"/>
<line clip-path="url(#clipPath2)" fill="none" x1="28" x2="30" y1="344" y2="344"/>
<line clip-path="url(#clipPath2)" fill="none" x1="823" x2="821" y1="344" y2="344"/>
<line clip-path="url(#clipPath2)" fill="none" x1="26" x2="30" y1="332" y2="332"/>
<line clip-path="url(#clipPath2)" fill="none" x1="825" x2="821" y1="332" y2="332"/>
<text font-size="11" x="10" y="337" clip-path="url(#clipPath2)" stroke="none" xml:space="preserve">150</text>
<text font-size="11" x="828" y="337" clip-path="url(#clipPath2)" stroke="none" xml:space="preserve">150</text>
<line clip-path="url(#clipPath2)" fill="none" x1="28" x2="30" y1="320" y2="320"/>
<line clip-path="url(#clipPath2)" fill="none" x1="823" x2="821" y1="320" y2="320"/>
<line clip-path="url(#clipPath2)" fill="none" x1="28" x2="30" y1="308" y2="308"/>
<line clip-path="url(#clipPath2)" fill="none" x1="823" x2="821" y1="308" y2="308"/>
<line clip-path="url(#clipPath2)" fill="none" x1="28" x2="30" y1="296" y2="296"/>
<line clip-path="url(#clipPath2)" fill="none" x1="823" x2="821" y1="296" y2="296"/>
<line clip-path="url(#clipPath2)" fill="none" x1="28" x2="30" y1="284" y2="284"/>
<line clip-path="url(#clipPath2)" fill="none" x1="823" x2="821" y1="284" y2="284"/>
<line clip-path="url(#clipPath2)" fill="none" x1="26" x2="30" y1="272" y2="272"/>
<line clip-path="url(#clipPath2)" fill="none" x1="825" x2="821" y1="272" y2="272"/>
<text font-size="11" x="10" y="277" clip-path="url(#clipPath2)" stroke="none" xml:space="preserve">200</text>
<text font-size="11" x="828" y="277" clip-path="url(#clipPath2)" stroke="none" xml:space="preserve">200</text>
<line clip-path="url(#clipPath2)" fill="none" x1="28" x2="30" y1="260" y2="260"/>
<line clip-path="url(#clipPath2)" fill="none" x1="823" x2="821" y1="260" y2="260"/>
<line clip-path="url(#clipPath2)" fill="none" x1="28" x2="30" y1="248" y2="248"/>
<line clip-path="url(#clipPath2)" fill="none" x1="823" x2="821" y1="248" y2="248"/>
<line clip-path="url(#clipPath2)" fill="none" x1="28" x2="30" y1="236" y2="236"/>
<line clip-path="url(#clipPath2)" fill="none" x1="823" x2="821" y1="236" y2="236"/>
<line clip-path="url(#clipPath2)" fill="none" x1="28" x2="30" y1="224" y2="224"/>
<line clip-path="url(#clipPath2)" fill="none" x1="823" x2="821" y1="224" y2="224"/>
<line clip-path="url(#clipPath2)" fill="none" x1="26" x2="30" y1="212" y2="212"/>
<line clip-path="url(#clipPath2)" fill="none" x1="825" x2="821" y1="212" y2="212"/>
<text font-size="11" x="10" y="217" clip-path="url(#clipPath2)" stroke="none" xml:space="preserve">250</text>
<text font-size="11" x="828" y="217" clip-path="url(#clipPath2)" stroke="none" xml:space="preserve">250</text>
<line clip-path="url(#clipPath2)" fill="none" x1="28" x2="30" y1="200" y2="200"/>
<line clip-path="url(#clipPath2)" fill="none" x1="823" x2="821" y1="200" y2="200"/>
<line clip-path="url(#clipPath2)" fill="none" x1="28" x2="30" y1="188" y2="188"/>
<line clip-path="url(#clipPath2)" fill="none" x1="823" x2="821" y1="188" y2="188"/>
<line clip-path="url(#clipPath2)" fill="none" x1="28" x2="30" y1="176" y2="176"/>
<line clip-path="url(#clipPath2)" fill="none" x1="823" x2="821" y1="176" y2="176"/>
<line clip-path="url(#clipPath2)" fill="none" x1="28" x2="30" y1="164" y2="164"/>
<line clip-path="url(#clipPath2)" fill="none" x1="823" x2="821" y1="164" y2="164"/>
<line clip-path="url(#clipPath2)" fill="none" x1="26" x2="30" y1="152" y2="152"/>
<line clip-path="url(#clipPath2)" fill="none" x1="825" x2="821" y1="152" y2="152"/>
<text font-size="11" x="10" y="157" clip-path="url(#clipPath2)" stroke="none" xml:space="preserve">300</text>
<text font-size="11" x="828" y="157" clip-path="url(#clipPath2)" stroke="none" xml:space="preserve">300</text>
<line clip-path="url(#clipPath2)" fill="none" x1="28" x2="30" y1="140" y2="140"/>
<line clip-path="url(#clipPath2)" fill="none" x1="823" x2="821" y1="140" y2="140"/>
<line clip-path="url(#clipPath2)" fill="none" x1="28" x2="30" y1="128" y2="128"/>
<line clip-path="url(#clipPath2)" fill="none" x1="823" x2="821" y1="128" y2="128"/>
<line clip-path="url(#clipPath2)" fill="none" x1="28" x2="30" y1="116" y2="116"/>
<line clip-path="url(#clipPath2)" fill="none" x1="823" x2="821" y1="116" y2="116"/>
<line clip-path="url(#clipPath2)" fill="none" x1="28" x2="30" y1="104" y2="104"/>
<line clip-path="url(#clipPath2)" fill="none" x1="823" x2="821" y1="104" y2="104"/>
<line clip-path="url(#clipPath2)" fill="none" x1="26" x2="30" y1="92" y2="92"/>
<line clip-path="url(#clipPath2)" fill="none" x1="825" x2="821" y1="92" y2="92"/>
<text font-size="11" x="10" y="97" clip-path="url(#clipPath2)" stroke="none" xml:space="preserve">350</text>
<text font-size="11" x="828" y="97" clip-path="url(#clipPath2)" stroke="none" xml:space="preserve">350</text>
<line clip-path="url(#clipPath2)" fill="none" x1="28" x2="30" y1="80" y2="80"/>
<line clip-path="url(#clipPath2)" fill="none" x1="823" x2="821" y1="80" y2="80"/>
<line clip-path="url(#clipPath2)" fill="none" x1="28" x2="30" y1="68" y2="68"/>
<line clip-path="url(#clipPath2)" fill="none" x1="823" x2="821" y1="68" y2="68"/>
<line clip-path="url(#clipPath2)" fill="none" x1="28" x2="30" y1="57" y2="57"/>
<line clip-path="url(#clipPath2)" fill="none" x1="823" x2="821" y1="57" y2="57"/>
<line clip-path="url(#clipPath2)" fill="none" x1="28" x2="30" y1="45" y2="45"/>
<line clip-path="url(#clipPath2)" fill="none" x1="823" x2="821" y1="45" y2="45"/>
</g>
</g>
</svg>
